<svg version="1.1" xmlns="http://www.w3.org/2000/svg" xmlns:xlink="http://www.w3.org/1999/xlink" width="351.39248" height="372.37237" viewBox="0,0,351.39248,372.37237"><g transform="translate(-144.65465,7.36931)"><g data-paper-data="{&quot;isPaintingLayer&quot;:true}" fill="#000000" fill-rule="nonzero" stroke="none" stroke-width="0" stroke-linecap="butt" stroke-linejoin="miter" stroke-miterlimit="10" stroke-dasharray="" stroke-dashoffset="0" style="mix-blend-mode: normal"><path d="M458.50959,-7.36931l37.53754,0v372.37237l-37.53754,0z"/><path d="M374.38438,98.16817c0,16.58513 -49.07389,30.03003 -109.60961,30.03003c-60.53572,0 -109.60961,-13.4449 -109.60961,-30.03003c0,-16.58513 49.07389,-30.03003 109.60961,-30.03003c60.53572,0 109.60961,13.4449 109.60961,30.03003z"/><path d="M144.65465,263.33333c0,-19.90215 16.13388,-36.03604 36.03604,-36.03604c19.90215,0 36.03604,16.13388 36.03604,36.03604c0,19.90215 -16.13388,36.03604 -36.03604,36.03604c-19.90215,0 -36.03604,-16.13388 -36.03604,-36.03604z"/></g></g></svg>