<svg version="1.1" xmlns="http://www.w3.org/2000/svg" xmlns:xlink="http://www.w3.org/1999/xlink" width="417.49968" height="312.19355" viewBox="0,0,417.49968,312.19355"><g transform="translate(-63.57357,2.31367)"><g data-paper-data="{&quot;isPaintingLayer&quot;:true}" fill="#000000" fill-rule="nonzero" stroke="none" stroke-width="0" stroke-linecap="butt" stroke-linejoin="miter" stroke-miterlimit="10" stroke-dasharray="" stroke-dashoffset="0" style="mix-blend-mode: normal"><path d="M235.19707,252.73782l-115.72769,-115.72769l21.23444,-21.23444l115.72769,115.72769z"/><path d="M223.56849,222.98987l115.72769,-115.72769l21.23444,21.23444l-115.72769,115.72768z" data-paper-data="{&quot;index&quot;:null}"/><path d="M63.57357,281.99199c0,-15.40206 12.48583,-27.88789 27.88789,-27.88789c15.40206,0 27.88789,12.48583 27.88789,27.88789c0,15.40206 -12.48583,27.88789 -27.88789,27.88789c-15.40206,0 -27.88789,-12.48583 -27.88789,-27.88789z"/><path d="M336.45312,281.32799c0,-15.03534 12.18855,-27.22389 27.22389,-27.22389c15.03534,0 27.22389,12.18855 27.22389,27.22389c0,15.03534 -12.18855,27.22389 -27.22389,27.22389c-15.03534,0 -27.22389,-12.18855 -27.22389,-27.22389z"/><path d="M455.54772,30.71936v-33.03303h25.52553v33.03303z"/></g></g></svg>