<svg version="1.1" xmlns="http://www.w3.org/2000/svg" xmlns:xlink="http://www.w3.org/1999/xlink" width="58" height="58.00002" viewBox="0,0,58,58.00002"><g transform="translate(-211,-151)"><g data-paper-data="{&quot;isPaintingLayer&quot;:true}" fill-rule="nonzero" stroke-linejoin="miter" stroke-miterlimit="10" stroke-dasharray="" stroke-dashoffset="0" style="mix-blend-mode: normal"><path d="M213.5,206.50003v-53h53v53z" fill="#cccccc" stroke="#000000" stroke-width="5" stroke-linecap="butt"/><path d="M219.5,180.00003c0,-11.32184 9.17816,-20.5 20.5,-20.5c11.32184,0 20.5,9.17816 20.5,20.5c0,11.32184 -9.17816,20.5 -20.5,20.5c-11.32184,0 -20.5,-9.17816 -20.5,-20.5z" fill="#669bff" stroke="#000000" stroke-width="5" stroke-linecap="butt"/><path d="M239.8754,180.62307v-13.95611" fill="none" stroke="#000000" stroke-width="5" stroke-linecap="round"/><path d="M240.77189,181.10011l5.98119,-5.98119" fill="none" stroke="#000000" stroke-width="5" stroke-linecap="round"/><path d="M213.5,206.50001v-53h53v53z" fill="#cccccc" stroke="#000000" stroke-width="5" stroke-linecap="butt"/><path d="M219.5,180.00001c0,-11.32184 9.17816,-20.5 20.5,-20.5c11.32184,0 20.5,9.17816 20.5,20.5c0,11.32184 -9.17816,20.5 -20.5,20.5c-11.32184,0 -20.5,-9.17816 -20.5,-20.5z" fill="#669bff" stroke="#000000" stroke-width="5" stroke-linecap="butt"/><text transform="translate(226.39943,186.85826) scale(0.59443,0.59443)" font-size="40" xml:space="preserve" fill="#000000" fill-rule="nonzero" stroke="none" stroke-width="1" stroke-linecap="butt" stroke-linejoin="miter" stroke-miterlimit="10" stroke-dasharray="" stroke-dashoffset="0" font-family="Sans Serif" font-weight="normal" text-anchor="start" style="mix-blend-mode: normal"><tspan x="0" dy="0">+1</tspan></text></g></g></svg>