<svg version="1.1" xmlns="http://www.w3.org/2000/svg" xmlns:xlink="http://www.w3.org/1999/xlink" width="2768.97371" height="1135.67443" viewBox="0,0,2768.97371,1135.67443"><defs><radialGradient cx="241.04713" cy="168.58418" r="246.24624" gradientUnits="userSpaceOnUse" id="color-1"><stop offset="0" stop-color="#58db60"/><stop offset="1" stop-color="#48b54f"/></radialGradient></defs><g transform="translate(345.74745,602.16444)"><g data-paper-data="{&quot;isPaintingLayer&quot;:true}" fill-rule="nonzero" stroke-linejoin="miter" stroke-miterlimit="10" stroke-dasharray="" stroke-dashoffset="0" style="mix-blend-mode: normal"><path d="M367.796,-10.14656c-3.23453,0 -3.23453,-2.5 -3.23453,-2.5l0.34148,-2.61954c2.27661,-3.51922 4.35414,-9.81957 11.68655,-8.76118c1.85539,0.26782 1.83485,2.6052 3.20697,3.60694c1.72216,1.25731 4.23841,1.67588 6.13428,2.77378c2.97186,1.721 5.39668,3.96113 8.35766,5.6933c0.37468,0.21919 1.02716,0.21091 1.40972,0c3.73341,-2.05835 3.68733,-5.74032 6.48988,-8.26796c1.35828,-1.22505 3.5637,-1.78175 4.8776,-3.03538c0.57066,-0.54449 0.97603,-1.17012 1.33275,-1.81962l-0.75854,-0.19543c-1.32171,-0.31417 -2.28244,-1.26534 -2.28244,-2.38994c0,-1.38071 1.44815,-2.5 3.23453,-2.5h2.86681c0.87222,-0.75692 1.74445,-1.51385 2.61667,-2.27077c0,0 2.28716,-1.76777 4.57432,0c2.28716,1.76776 0,3.53554 0,3.53554c-0.4342,0.31192 -0.86841,0.62384 -1.30261,0.93576c2.84503,1.13379 7.78455,3.78317 7.91198,4.01341c0.68432,1.23644 -1.73513,2.44913 -1.77668,3.79357c-0.02322,0.75143 1.06745,1.25665 1.60118,1.88497l-2.54855,4.3873c0,0 -2.28716,1.76776 -4.57432,0c-2.28716,-1.76776 0,-3.53553 0,-3.53553l1.33677,1.3843c-0.76138,-1.37368 -2.24274,-2.62696 -2.28414,-4.12104c-0.02537,-0.91577 2.17101,-1.29772 2.10865,-2.21243c-0.03972,-0.5826 -1.54507,0.12342 -2.26331,-0.05601c-0.87709,-0.21911 -1.71331,-0.53147 -2.51863,-0.88561c-0.62993,1.12054 -1.26478,2.23862 -2.23731,3.18882c-1.29504,1.2653 -3.48848,1.83116 -4.8776,3.03537c-3.78949,3.28507 -2.59754,7.6135 -9.05141,9.75006c-1.94905,0.64523 -4.391,0.60616 -6.36093,0c-2.01534,-0.62014 -3.103,-2.34832 -4.76679,-3.42406c-2.35052,-1.51976 -4.73997,-3.02765 -7.35187,-4.26652c-1.44284,-0.68436 -3.3161,-0.90442 -4.47199,-1.86036c-0.72313,-0.59805 -0.10409,-1.71128 -0.67835,-2.39906c-0.23424,-0.28054 -0.39654,0.5936 -0.57532,0.89756c-0.45871,0.77989 -0.86265,1.5789 -1.33677,2.35327c-0.61936,1.0116 -1.29511,2.002 -1.94266,3.003l0.34148,0.38347c0,0 0,2.5 -3.23453,2.5z" fill="#3e9a44" stroke="none" stroke-width="0.5" stroke-linecap="butt"/><path d="M486.24624,-60.24123v491.4935h-492.49249v-491.4935z" fill="#48b54f" stroke="none" stroke-width="0" stroke-linecap="butt"/><path d="M486.24625,-71.25225v491.4935h-492.49249v-491.4935z" fill="url(#color-1)" stroke="none" stroke-width="0" stroke-linecap="butt"/><path d="M316.24597,368.01855c0,-3.23453 2.41177,-3.23453 2.41177,-3.23453h2.89701c3.38021,0.08475 7.85095,1.36629 10.39643,4.8327c0.97634,1.32957 1.48602,3.18576 1.97131,4.93468c0.39197,1.41255 -0.19156,3.41415 0.63052,4.4418c0.78078,0.97603 2.43225,-0.66833 3.19221,0.33682c0.68756,0.9094 -0.68284,2.96955 0,3.88533c0.68283,0.91578 2.3017,-1.01974 2.89701,0c0.53263,0.91238 0.85231,2.90198 0.9209,5.09063c0.19514,-0.62793 0.39731,-1.25241 0.58558,-1.88369c1.72202,-5.7737 3.17369,-11.58555 4.6397,-17.48392c0,0 0.76267,-3.06855 3.05067,-2.0457c2.288,1.02285 1.52533,4.0914 1.52533,4.0914c-1.80305,7.25443 -3.7878,14.31911 -5.81741,21.45897c-0.64546,2.27063 -0.53804,5.21857 -1.89114,6.83472c-1.56508,1.86931 -4.21204,4.06943 -5.98693,2.57485c-0.56021,-0.47174 -1.47976,-9.85698 -1.14382,-12.46477c0.07861,-0.61025 1.11203,-1.30224 0.7064,-1.59816c-0.84828,-0.61886 -2.21419,0.91578 -2.89702,0c-0.68284,-0.91578 0.67708,-2.96189 0,-3.88533c-0.61091,-0.8332 -2.00192,1.1843 -2.60182,0.33683c-1.86937,-2.6408 -1.24676,-7.51009 -3.19221,-10.05014c-1.63897,-2.1399 -4.85198,-3.01675 -6.98567,-2.93795h-2.89701c0,0 -2.41177,0 -2.41177,-3.23453z" fill="#3e9a44" stroke="none" stroke-width="0.5" stroke-linecap="butt"/><path d="M223.42971,352.30064c0.69035,1.39121 0.04603,3.43028 0.54947,4.95894c0.17575,0.53365 0.28682,-1.1286 0.56389,-1.57834c1.31295,-2.1312 2.65004,-4.27942 3.64155,-6.70315c0.59805,-1.46193 1.30944,-2.82729 2.08939,-4.12939l-0.17947,-0.14441l2.45895,-5.49634c0.41658,-0.96898 1.1969,-1.62122 2.09081,-1.62122c1.33198,0 2.41177,1.44815 2.41177,3.23453v5.82799c0,0.09712 0.00059,0.43305 0.00106,0.91906c0.03774,0.02306 0.07583,0.04744 0.11426,0.07321c2.15715,1.44653 1.07857,4.33958 1.07857,4.33958c-0.48284,1.29511 -0.96567,2.59021 -1.44851,3.88532l-1.42514,3.82265c-0.38671,1.09407 -1.21772,1.85068 -2.18052,1.85068c-1.33198,0 -2.41177,-1.44815 -2.41177,-3.23453c0,-0.54327 0.09987,-1.05524 0.27632,-1.50472l1.36276,-3.65534c-0.01904,-0.31605 -0.03668,-0.63255 -0.05293,-0.95021c-1.56852,3.82564 -1.77471,6.15377 -5.00673,8.73426c-1.57697,1.25907 -3.54536,3.28305 -5.23014,2.30699c-0.86938,-0.50366 -1.15882,-1.75605 -1.39314,-3.11422c-0.32411,0.73694 -0.92294,1.41777 -2.02944,1.41777c-2.41177,0 -2.41177,-3.23453 -2.41177,-3.23453v-9.71331c0,-1.78638 1.07979,-3.23453 2.41177,-3.23453c1.33198,0 2.41177,1.44815 2.41177,3.23453v2.35687c0.8384,0.33869 1.84099,0.41227 2.30723,1.35185z" fill="#3e9a44" stroke="none" stroke-width="0.5" stroke-linecap="butt"/><path d="M147.73386,310.38946c0.16652,0 0.32154,0.01542 0.46587,0.04413c2.82092,-3.13012 6.26441,-2.50967 8.82825,1.48991c0.75398,1.17621 -0.10442,3.16646 0.25497,4.64081c0.29047,1.19164 1.37365,1.85852 1.62375,3.06652c0.30942,1.49456 -0.10413,3.10567 -0.02552,4.65319c0.02252,0.44323 0.07271,-0.89413 0.19552,-1.30673c0.3737,-1.25551 0.77578,-2.50465 1.28596,-3.67055c0.79012,-1.80557 1.72424,-3.48857 2.7378,-5.09161l-0.14167,-0.09499l1.42514,-3.82265c0.38671,-1.09407 1.21772,-1.85068 2.18052,-1.85068c1.33198,0 2.41177,1.44815 2.41177,3.23453c0,1.29511 0,8.4182 0,9.71331c0,0 0,3.23453 -2.41177,3.23453c-1.28201,0 -1.88254,-0.91395 -2.16387,-1.77021c-1.28441,3.02014 -3.1231,10.24953 -7.53496,7.30228c-1.89365,-1.26501 -1.44876,-5.34144 -2.36526,-7.89864c-0.48788,-1.36125 -1.50243,-2.36347 -1.83053,-3.80828c-0.22799,-1.00396 0.42587,-2.10568 0.25497,-3.12983c-0.14164,-0.84883 -1.63355,-0.3613 -1.92048,0.41877c-0.62134,1.68925 -0.81261,3.60614 -1.21892,5.40921l-0.47293,0.41669l0.12675,0.16997l-2.89701,3.88533c-0.43644,0.58533 -1.03939,0.94738 -1.70537,0.94738c-1.33198,0 -2.41177,-1.44815 -2.41177,-3.23453v-3.88533h0.09572c-0.00519,-0.41264 0.021,-0.82524 0.08787,-1.2378c0.35569,-2.19441 2.27989,-3.28978 3.41982,-4.93468l-0.7064,0.3445c0,0 0,-3.23453 2.41177,-3.23453z" fill="#3e9a44" stroke="none" stroke-width="0.5" stroke-linecap="butt"/><path d="M85.70492,350.19008c1.30228,1.74656 0.61563,3.49312 0.21827,4.22119c0.30009,0.53129 0.48062,1.19075 0.4879,1.90635l0.04334,3.65949c0.45454,1.69861 0.86651,3.41903 1.37023,5.09243c0.38705,1.28577 0.39933,3.10148 1.30311,3.77487c0.64564,0.48105 1.48609,-0.59346 1.98262,-1.32675c1.24553,-1.8394 1.49152,-4.55125 2.32006,-6.77363c0,0 1.07857,-2.89306 3.23573,-1.44653c2.15715,1.44653 1.07858,4.33958 1.07858,4.33958c-1.92902,5.17422 -3.70577,13.99462 -10.18239,11.32624c-2.18387,-0.89976 -3.73642,-5.61378 -4.78108,-9.55278c-0.07578,0.00963 -0.15258,0.01455 -0.23024,0.01455c-0.25235,0 -0.49564,-0.05198 -0.72425,-0.14839c-0.22861,0.09641 -0.4719,0.14839 -0.72425,0.14839c-1.33198,0 -2.41177,-1.44815 -2.41177,-3.23453v-3.88533c0,-0.25659 0.02228,-0.5062 0.06437,-0.74555c-0.09498,-1.68991 1.0928,-3.05745 1.63874,-4.5863l1.90028,-2.7833c0,0 1.70538,-2.28716 3.41075,0z" fill="#3e9a44" stroke="none" stroke-width="0.5" stroke-linecap="butt"/><path d="M403.95612,264.22531c0.57546,0.42119 1.12681,1.22828 1.12681,2.7748c0,3.23453 -2.41177,3.23453 -2.41177,3.23453l-4.60239,-0.94738c-0.1154,-2.62432 -1.14227,-5.47066 -0.3462,-7.87297c0.63508,-1.91648 2.5997,-2.36965 4.02564,-3.23049c4.06247,-2.4525 9.0874,-3.95744 12.76788,0.70116c2.49159,3.15377 3.15812,9.17465 4.05033,13.2618c0.11828,0.54178 0.59233,-0.9183 0.6108,-1.48229c0.06116,-1.86762 -0.07005,-3.73775 -0.08723,-5.60703c-0.01189,-1.29501 0,-2.59022 0,-3.88533c0,0 0,-3.23453 2.41177,-3.23453c2.41177,0 2.41177,3.23453 2.41177,3.23453c0,2.01338 0.0154,10.73506 -0.08723,11.21642c-0.91922,4.31112 -4.1979,8.70914 -8.08024,5.0062c-2.38561,-2.27536 -2.51272,-10.73356 -4.64072,-13.93546c-1.95694,-2.94452 -4.71052,-0.44489 -7.14922,0.76603z" fill="#3e9a44" stroke="none" stroke-width="0.5" stroke-linecap="butt"/><path d="M345.80944,316.55894c2.15715,1.44653 1.07857,4.33958 1.07857,4.33958l-1.19389,2.4388c0.79225,1.70611 2.59172,2.10329 3.63913,3.54082c0.63924,0.87733 0.47505,2.4271 1.01108,3.42103c0.60122,1.11482 1.60011,-1.73491 2.30698,-2.73203c1.10972,-1.5654 2.32673,-2.98802 3.60677,-4.31142l-0.19602,-0.26289l2.89701,-3.88533c0.43644,-0.58533 1.03939,-0.94738 1.70538,-0.94738c1.33198,0 2.41177,1.44815 2.41177,3.23453v3.88533c0,0 0,3.23453 -2.41177,3.23453c-0.79092,0 -1.32248,-0.34787 -1.6797,-0.81544c-1.90916,5.37903 -6.93226,10.89419 -11.1763,8.10301c-1.12282,-0.73845 -0.99318,-3.17515 -1.88595,-4.34962c-0.77076,-1.01397 -2.20507,-0.83115 -2.89701,-1.94266c-1.08565,-1.74394 -1.4366,-4.11499 -2.15491,-6.17248l1.70313,-5.33185c0,0 1.07857,-2.89305 3.23573,-1.44652z" fill="#3e9a44" stroke="none" stroke-width="0.5" stroke-linecap="butt"/><path d="M250.57789,221.02702c2.41177,0 2.41177,3.23453 2.41177,3.23453v3.23195c0.28698,-1.90773 0.621,-4.00715 0.66582,-4.04075c1.41339,-1.05974 3.11868,1.21534 4.71906,1.54611c1.59903,0.33049 3.26848,0.38985 4.8536,-0.04476c2.86569,-0.78573 5.48567,-2.76462 8.3147,-3.7611c2.03934,-0.71832 4.3291,-3.10488 6.18676,-1.76717c1.9695,1.41825 2.11256,5.32955 2.75055,8.20293c0.19428,0.87494 -0.68752,1.92688 -0.32905,2.70294c0.35172,0.76147 1.28268,0.50007 1.92402,0.7501c0,0 2.15715,1.44653 1.07858,4.33958c-1.07857,2.89306 -3.23573,1.44652 -3.23573,1.44652c-1.29001,-1.04507 -3.01702,-1.46889 -3.87002,-3.13522c-0.71558,-1.3979 -0.23468,-3.37681 -0.32905,-5.0677c-0.06416,-1.14966 0.65829,-3.04778 -0.14646,-3.45304c-0.92392,-0.46527 -1.60164,1.58303 -2.50429,2.11815c-1.39651,0.8279 -2.89545,1.30145 -4.34552,1.94266c-2.58262,1.14202 -5.28586,2.12672 -8.0052,2.10865c-0.80708,-0.00536 -2.47508,0.48495 -3.5453,-0.13773c-0.55062,2.30672 -1.24543,5.23953 -2.93458,5.79973c-6.58819,2.18493 -5.80278,-4.73029 -6.07144,-8.89654v-3.88533c0,0 0,-3.23453 2.41177,-3.23453z" fill="#3e9a44" stroke="none" stroke-width="0.5" stroke-linecap="butt"/><path d="M160.28518,255.34413c0,1.5031 -0.52082,2.30771 -1.07841,2.73841c0.72828,0.07213 1.45155,0.16011 2.1706,0.26317c-0.63731,-1.85422 -1.14336,-3.71367 -1.53907,-6.36878c-0.21452,-1.43941 -0.28642,-2.97604 -0.03114,-4.40344c0.01292,-0.07226 0.04284,-0.1506 0.08483,-0.23183c-3.73399,3.62132 -8.45104,5.23047 -12.6894,7.75758c-8.28324,4.93883 -16.26356,11.1283 -24.85603,14.96942l-2.84299,-5.50735c0,0 -1.07858,-2.89305 1.07857,-4.33958c2.15715,-1.44653 3.23573,1.44653 3.23573,1.44653l0.05403,2.2633c1.98499,-3.32251 5.55391,-4.7838 8.32953,-6.64476c6.55334,-4.3938 13.27507,-8.63137 20.13784,-12.08434c2.0104,-1.01152 9.58666,-5.16805 11.25338,-4.17284c1.51908,0.90705 0.81355,4.33418 1.03804,6.54387c0.45612,4.48972 1.0298,7.78832 2.5634,11.9398c3.64922,0.93532 7.24098,2.22249 10.88342,3.7547c4.06566,1.71023 7.51868,2.07469 9.54571,8.3223c1.23108,3.79437 0.17337,10.03069 -1.87372,13.09943c-1.03799,1.55603 -2.71786,2.10099 -3.8723,3.5017c-2.19115,2.65856 -3.04444,6.80262 -4.76153,10.02757c-0.63136,1.18579 -1.89195,1.65012 -2.42623,2.91882c-0.21987,0.52209 0.87663,-0.33915 1.32267,-0.29837c1.05388,0.09634 2.08445,0.46174 3.12508,0.70494c1.51493,0.35404 3.00966,0.90695 4.54156,1.08674c2.49391,0.29269 5.00686,-0.01231 7.5103,-0.01231c0,0 2.41177,0 2.41177,3.23453c0,3.23453 -2.41177,3.23453 -2.41177,3.23453c-1.19414,0 -7.80574,0.00237 -7.93079,-0.01231c-1.67155,-0.19617 -3.30696,-0.76561 -4.95886,-1.16044c-2.02793,-0.48471 -7.76806,-1.19715 -8.27191,-5.11691c-0.37041,-2.88161 1.94237,-5.23603 2.925,-7.84635c1.85245,-4.92106 2.5555,-7.64771 5.68728,-11.55597c1.82892,-2.28238 6.24628,-4.1954 4.52708,-9.33c-1.16236,-3.47155 -4.29433,-3.73203 -6.50067,-4.61195c-2.58341,-1.03031 -5.09139,-2.44317 -7.72968,-3.18218c-0.60386,-0.16915 -9.16485,-1.67066 -9.55503,-1.83122c-2.16989,-0.89287 -4.16119,-2.43303 -6.2418,-3.64954c0.34196,-2.19283 0.68391,-4.38566 1.02586,-6.57849l3.70786,-2.10292c0,0 2.41177,0 2.41177,3.23453zM158.10206,257.98569l0.58221,-1.50993c-0.40472,0.48861 -0.80944,0.97722 -1.21415,1.46583c0.2111,0.01336 0.42175,0.02806 0.63195,0.0441z" fill="#3e9a44" stroke="none" stroke-width="0.5" stroke-linecap="butt"/><path d="M269.96668,247.72197c1.3378,2.69129 -0.66891,4.48549 -0.66891,4.48549l-0.3321,0.29694c-8.1666,7.28556 -17.26284,11.5446 -25.98088,17.37564c-2.66446,1.78212 -4.54865,4.22518 -7.33272,5.88669c-1.149,0.6857 -2.754,0.10486 -3.64792,1.29121c-0.87226,1.1576 -0.2963,3.36584 -0.92571,4.77863c-0.01052,0.02359 -0.02287,0.04714 -0.03692,0.0706c2.82819,-1.10838 5.59891,0.07524 8.763,0.56592c0.77127,0.11961 1.54415,0.22445 2.31815,0.31442c1.88937,-1.81164 3.82225,-3.81561 5.05017,-6.02267c1.07404,-1.93047 2.07653,-7.62288 3.5856,-8.63084c1.62105,-1.08275 3.91594,-1.3266 5.4329,0c1.80262,1.57641 2.3958,4.84706 3.18189,7.53375c0.67898,2.32059 -0.19693,5.61939 0.83302,7.52447c0.50908,0 1.01814,0 1.52722,0l2.25091,-1.60118c0,0 2.15715,-1.44653 3.23573,1.44653c0.01939,0.05202 0.03775,0.10357 0.05508,0.15466c1.3581,0 2.7162,0 4.0743,0c1.43035,0 10.2492,-0.14815 11.01643,0.57195c5.33088,5.00332 1.01747,9.59423 -0.68341,13.88173c-1.2317,3.10481 -1.73748,6.65927 -2.929,9.79216c-0.95418,2.50888 -2.90537,4.11171 -4.04598,6.47645c-0.35523,0.73644 1.29131,0.42543 1.94349,0.36031c1.61694,-0.16143 3.2732,-0.60757 4.71546,-1.60118c0.96036,-0.66162 1.93134,-1.29511 2.89701,-1.94266c0,0 2.15715,-1.44653 3.23573,1.44652c1.07857,2.89306 -1.07857,4.33958 -1.07857,4.33958c-0.96567,0.64755 -1.92696,1.30702 -2.89702,1.94266c-3.81001,2.49656 -14.25732,6.04908 -13.62014,-5.1262c0.15508,-2.72 2.21468,-4.57728 3.36672,-6.82549c1.90609,-3.71973 2.4612,-8.04379 4.14337,-11.87382c0.67285,-1.53199 1.78778,-2.67214 2.41354,-4.23962c0.15632,-0.39159 0.1276,-1.23954 -0.19995,-1.30527c-2.73246,-0.54836 -5.51479,0.57195 -8.27769,0.57195c-3.41583,0 -6.83166,0 -10.24749,0c-0.74172,0.08856 -1.48364,0.17802 -2.16154,0c-3.26553,0 -6.53106,0 -9.79659,0c-1.89319,-0.00203 -3.78809,-0.08602 -5.67869,-0.25249c-0.53976,0.52057 -1.06964,1.03513 -1.57976,1.54825c0,0 -1.92941,1.94072 -3.37647,-0.64691c-0.31724,-0.56729 -0.4722,-1.10349 -0.52079,-1.59497c-2.13014,-0.29717 -4.26556,-0.54376 -6.37908,-1.00186c-2.09344,-0.45375 -4.93335,0.69127 -6.25884,-1.52872c-0.52378,-0.87724 2.99091,-13.36028 3.24321,-13.70096c1.26878,-1.71321 3.41989,-1.54948 5.04313,-2.59412c1.37051,-0.882 2.6004,-2.11251 3.90308,-3.16328c9.22841,-7.44388 19.7309,-11.52094 28.75046,-19.60441l0.3321,-0.29694c0,0 2.0067,-1.7942 3.34451,0.8971zM253.65547,273.63689c-0.3159,-0.85419 -0.64036,1.70401 -0.92044,2.58039c-0.47607,1.48968 -0.92221,3.03532 -1.64913,4.33006c-0.52194,0.92964 -1.11456,1.80762 -1.75435,2.64485c1.99504,0 3.99009,0 5.98512,0c-0.59397,-3.28817 -0.7227,-7.01758 -1.66122,-9.55531z" fill="#3e9a44" stroke="none" stroke-width="0.5" stroke-linecap="butt"/><path d="M60.56656,212.26108c1.70537,-2.28716 3.41076,0 3.41076,0l1.90028,2.7833c0.01801,0.75444 -0.23117,1.61258 0.05403,2.26331c0.16323,0.37242 0.29122,-0.77078 0.42897,-1.16127c0.59239,-1.67924 0.33589,-3.70748 0.74212,-5.48349v-3.88532c0,-1.78638 1.07979,-3.23453 2.41177,-3.23453c1.33198,0 2.41177,1.44815 2.41177,3.23453v3.33409c0.79537,2.20948 3.53085,4.86008 5.35634,3.3909c0.90871,-0.73136 1.27016,-2.3253 2.11458,-3.18416l2.89701,-3.88532c0.43644,-0.58533 1.03939,-0.94738 1.70537,-0.94738c1.33198,0 2.41177,1.44815 2.41177,3.23453v3.88533h-1.89803l-1.70537,2.28716l-3.41076,-4.57432c1.72584,-1.75537 3.68356,-3.05766 5.52533,-4.58648l1.48882,6.87365c0,0 0,3.23453 -2.41177,3.23453c-0.76457,0 -1.28676,-0.32508 -1.6434,-0.76911c-1.94771,5.21339 -7.16592,6.2267 -11.2719,3.39354c-1.62542,3.24344 -4.41724,5.74683 -6.67796,4.98023c-1.61406,-0.54732 -1.89532,-3.67156 -2.84299,-5.50734l-0.99674,-1.10203c0,0 -1.70537,-2.28716 0,-4.57432z" fill="#3e9a44" stroke="none" stroke-width="0.5" stroke-linecap="butt"/><path d="M121.66074,166.63248c2.41177,0 2.41177,3.23453 2.41177,3.23453l-0.3602,2.18483c1.22719,0.59313 2.43807,-1.55181 3.74246,-1.53404c1.8179,0.02478 3.48754,2.67832 5.23992,2.02918c1.45225,-0.53795 2.95791,-2.17154 4.35367,-4.01741l-0.16268,-0.10909l1.42514,-3.82265c0.38671,-1.09407 1.21774,-1.85068 2.18052,-1.85068c1.33198,0 2.41177,1.44815 2.41177,3.23453v2.86681c0.73021,0.87222 1.46042,1.74445 2.19062,2.61668c0,0 1.70537,2.28716 0,4.57432c-1.70537,2.28716 -3.41075,0 -3.41075,0c-0.52994,-0.76468 -1.05988,-1.52937 -1.58982,-2.29405c-2.29937,3.87639 -6.98283,6.06614 -10.29548,5.09756c-0.88624,-0.25912 -1.43593,-1.87111 -2.34291,-1.85613c-1.07957,0.01783 -1.82866,2.15155 -2.89701,1.94266c-1.84268,-0.36029 -3.29905,-2.3178 -4.94859,-3.4767l-0.3602,-5.58582c0,0 0,-3.23453 2.41177,-3.23453z" fill="#3e9a44" stroke="none" stroke-width="0.5" stroke-linecap="butt"/><path d="M191.44596,165.63718c0.69726,0.93513 0.82436,1.87026 0.73097,2.64907c1.19408,0.63606 2.35196,1.32962 3.43937,2.13814c1.45981,1.08541 2.58562,2.83204 3.88828,4.23164c0.5377,0.5777 0.96775,1.94242 1.63256,1.69997c1.98799,-0.72501 2.93581,-3.96807 4.71758,-5.35512c1.89301,-1.47364 3.84202,-2.81849 5.75648,-4.24171c-0.66559,-0.57576 -1.10627,-1.57893 -1.10627,-2.72014c0,-1.45502 0.71636,-2.68565 1.70186,-3.09214l4.29276,-1.91907l0.02344,0.09433c0.1166,-0.07538 0.2342,-0.1483 0.35291,-0.21854c1.91988,-1.13625 3.72016,0.69199 5.62624,0.04476c1.91432,-0.65002 3.50331,-2.44597 5.26956,-3.63037l2.52708,-0.34148c0,0 2.41177,0 2.41177,3.23453c0,3.23453 -2.41177,3.23453 -2.41177,3.23453l-0.36994,-0.34148c-2.60771,1.74865 -5.05125,3.40816 -7.5395,4.0307c-0.0551,1.29073 -0.67451,2.37875 -1.53242,2.8271l-4.26441,2.38101c-3.30399,2.76795 -6.76228,5.01283 -9.958,7.9436c-1.6851,1.54539 -3.09105,4.15455 -5.11438,4.51814c-3.14612,0.56536 -6.04827,-5.07036 -8.25313,-6.73032c-1.33688,-1.00648 -2.79685,-1.83097 -4.30471,-2.58732l-0.16221,0.21393c-0.48284,1.29511 -0.80071,2.72694 -1.44851,3.88533c-0.693,1.23923 -5.16435,5.53604 -4.07387,8.52691c1.27427,3.49493 5.88682,1.88859 7.92585,1.88859c6.27204,0 12.54408,0 18.81612,0c0,0 2.41177,0 2.41177,3.23453c0,3.23453 -2.41177,3.23453 -2.41177,3.23453c-6.27204,0 -12.54408,0 -18.81611,0c-1.60784,0 -3.21609,0.04838 -4.82353,0c-1.1202,-0.03372 -2.38728,0.50797 -3.35644,-0.24621c-3.81167,-2.96619 -5.1953,-5.96414 -4.32132,-11.50211c0.73844,-4.67905 3.7531,-7.56005 5.60577,-11.44393c-1.49657,-0.72025 -2.96585,-1.48583 -4.33709,-2.40383c0,0 -2.15715,-1.44652 -1.07858,-4.33958c1.07858,-2.89306 3.23573,-1.44653 3.23573,-1.44653c1.7554,1.17917 3.65282,2.11254 5.56412,3.01497l0.34298,-0.46642c0,0 1.70537,-2.28716 3.41075,0z" fill="#3e9a44" stroke="none" stroke-width="0.5" stroke-linecap="butt"/><path d="M343.53923,199.35143c-1.70537,2.28716 -3.41076,0 -3.41076,0l0.25687,-0.99529c-0.96567,0 -1.93134,0 -2.89701,0c-2.90295,-0.04829 -5.89572,2.55201 -8.65273,1.33212c-1.00092,-0.44288 0.25298,-3.01481 -0.29519,-4.22215c-0.24015,-0.52894 -0.73431,0.86174 -1.19164,0.94738c-1.27679,0.23909 -2.57835,0.00593 -3.86751,0c-1.73663,-0.00799 -3.49548,0.33006 -5.20985,-0.04177c-2.62217,-0.56873 -4.82202,-3.12965 -7.41032,-3.93009c-2.04729,-0.63312 -4.09055,1.28938 -6.13431,1.94267c-3.12699,0.99954 -9.65541,0.83472 -12.69628,0c-0.88691,-0.24346 -6.97979,-4.69023 -7.29148,-5.33284c-0.75988,-1.56657 -0.41518,-3.71839 -0.3602,-5.58582c0.06124,-2.07997 -0.39111,-4.70058 0.7064,-6.17248c1.09749,-1.47191 3.06826,-0.63158 4.60239,-0.94738c0,0 2.41177,0 2.41177,3.23453c0,3.23453 -2.41177,3.23453 -2.41177,3.23453c-0.39721,-0.31579 -0.86512,-1.38527 -1.19164,-0.94737c-0.32652,0.4379 0.65013,0.98349 0.70638,1.59816c0.06774,0.74031 -0.68353,1.57799 -0.3602,2.18483c0.38831,0.72878 1.30892,0.4011 1.92402,0.7501c3.4298,1.94602 9.06222,3.0303 12.85239,1.68771c1.04385,-0.36977 1.83325,-1.6952 2.89701,-1.94267c1.79117,-0.41669 3.66452,-0.4314 5.45374,0c2.50397,0.60373 4.56004,3.32322 7.07475,3.84057c1.462,0.30077 2.95812,-0.03432 4.4372,-0.04176c1.49386,-0.00751 7.31967,-0.25326 8.4699,0.94737c0.70032,0.73099 -1.13459,3.16226 -0.29519,3.5485c0.99724,0.45886 1.54676,-2.07268 2.54901,-2.51144c1.04046,-0.45548 2.1889,-0.02784 3.28333,-0.04176c0.96567,0 1.93134,0 2.89701,0l3.15388,2.89004c0,0 1.70538,2.28716 0,4.57432z" fill="#3e9a44" stroke="none" stroke-width="0.5" stroke-linecap="butt"/><path d="M420.31012,165.63719c1.70538,2.28716 0,4.57432 0,4.57432l-2.07531,2.54856c-3.37285,2.25822 -6.94131,4.47144 -10.52732,6.03394c-0.35473,0.15457 -0.71041,0.29576 -1.0668,0.42643c-0.01599,0.44977 -0.07431,0.8863 -0.21274,1.2972c-0.89856,2.66735 -1.95157,5.52459 -3.73474,7.21213c-2.64821,2.50619 -7.53652,0.49195 -9.31617,-2.56363c-0.13044,-0.22396 -0.21486,-0.47016 -0.26703,-0.73236c-2.79701,1.61644 -6.30847,3.9726 -6.86592,6.53544c-0.11685,0.53722 0.88823,0.2154 1.15578,0.64485c0.90654,1.4552 1.1622,3.61125 2.25013,4.82236c2.03486,2.26523 5.46608,0.83092 7.61344,1.3204c1.63227,0.37207 3.15116,1.36469 4.72187,2.06688c2.54193,1.13637 5.24903,1.80494 7.92837,1.77668c0,0 2.41177,0 2.41177,3.23453c0,3.23453 -2.41177,3.23453 -2.41177,3.23453c-1.57727,-0.01392 -3.1759,0.30529 -4.73184,-0.04176c-3.01236,-0.6719 -5.67714,-3.22617 -8.69105,-3.88532c-4.56295,-0.99792 -5.2283,1.96665 -9.76865,-2.56493c-1.44628,-1.44349 -2.06366,-3.96537 -3.10108,-5.94281c-0.7243,-1.38061 -2.35981,-2.45972 -2.18404,-4.13128c0.32272,-3.06901 1.86657,-5.81531 3.46533,-8.05334c1.24988,-1.74966 3.16981,-2.32661 4.76404,-3.46668c0.86441,-0.61816 1.73884,-1.18573 2.6214,-1.71279c-0.17359,-0.36528 -0.34053,-0.73498 -0.46483,-1.12902c-0.26023,-0.82495 -0.0159,-2.0596 -0.5593,-2.58039c-0.45248,-0.43365 -1.07394,0.43819 -1.62907,0.48307c-2.90782,0.23511 -5.85188,-0.57014 -8.73923,-0.05178c-1.76589,0.31702 -3.46549,2.42321 -5.17935,1.77039c-1.32091,-0.50314 -1.32775,-3.27141 -2.27188,-4.60864c-1.46006,-2.06799 -5.83946,-1.03918 -7.53979,-1.08182l-3.42148,-2.19761c0,0 -2.15714,-1.44652 -1.07857,-4.33958c1.07858,-2.89306 3.23573,-1.44653 3.23573,-1.44653l2.37255,1.68771c3.55239,-0.13119 6.91796,-0.92935 9.84231,2.80351c0.58894,0.75177 -0.16448,2.90208 0.62513,3.16201c0.97216,0.32002 1.57542,-1.84295 2.55568,-2.11494c0.08408,-0.02333 8.97618,-0.08713 9.59888,-0.05178c1.39226,0.07903 2.99687,-0.53603 4.16495,0.48308c0.35085,0.3061 1.92283,4.05412 2.98518,6.85632c1.75001,-0.81176 3.51845,-1.53499 5.29153,-2.24262c-0.05637,-2.77071 -0.36836,-5.58088 -0.36836,-7.69023c0,0 0,-3.23453 2.41177,-3.23453c2.41177,0 2.41177,3.23453 2.41177,3.23453c0,1.96563 0.01088,3.93135 0.01404,5.89701c3.22854,-1.33597 6.43385,-2.82362 9.53218,-4.90473l0.82171,-1.33677c0,0 1.70538,-2.28716 3.41075,0zM400.19489,182.19605c0.34844,-0.40832 0.63664,-0.87629 0.87388,-1.39185c-1.13572,0.31275 -2.26736,0.66901 -3.3879,1.16013c0.61497,0.33057 2.39183,0.37491 2.51403,0.23172z" fill="#3e9a44" stroke="none" stroke-width="0.5" stroke-linecap="butt"/><path d="M365.49522,105.75916c0,-3.23453 2.41177,-3.23453 2.41177,-3.23453h4.34552c4.15312,0 10.22396,-1.23551 14.12196,0.45875c1.63239,0.70952 2.78495,2.72621 4.31975,3.75548c1.54612,1.03687 3.49148,0.99902 4.8661,2.40475c0.40765,0.41689 2.78283,9.19385 4.7394,7.22587c2.01293,-2.02467 3.2412,-5.22735 5.21758,-7.31579c1.18149,-1.24848 2.65692,-1.93664 3.83179,-3.19633c2.2025,-2.36154 4.21737,-5.15628 6.72859,-6.87656c0,0 2.15715,-1.44653 3.23573,1.44653c1.07857,2.89306 -1.07858,4.33958 -1.07858,4.33958c-2.23782,1.45989 -3.94425,4.07164 -5.88694,6.1574c-1.17424,1.26072 -2.64652,1.95428 -3.83179,3.19633c-1.31678,1.37988 -5.11428,7.54143 -6.37047,8.2255c-4.1339,2.25116 -6.34415,-1.11061 -8.67349,-4.98238c-0.56654,-0.94169 -0.34448,-2.61777 -1.07218,-3.33305c-1.07033,-1.05208 -2.63106,-0.70359 -3.82494,-1.48057c-1.34952,-0.87827 -2.28909,-2.76521 -3.70708,-3.4213c-1.25497,-0.58066 -2.65396,-0.10973 -3.98137,-0.13603c-2.87624,-0.05697 -5.75742,0.00091 -8.63401,0.00091h-4.34553c0,0 -2.41177,0 -2.41177,-3.23453z" fill="#3e9a44" stroke="none" stroke-width="0.5" stroke-linecap="butt"/><path d="M281.73641,117.91126c1.07857,-2.89306 3.23573,-1.44652 3.23573,-1.44652l2.37256,1.68771c4.68415,0.02492 8.85948,-6.33748 12.72044,-9.36288c0.7566,-0.59287 1.78855,-0.59325 2.40217,-1.43224c0.66852,-0.91409 0.59564,-2.49534 1.19735,-3.48943c1.13624,-1.87716 2.25278,-4.0978 3.9306,-4.98238c4.05828,-2.1396 6.04456,-0.01712 9.24405,2.03792c0,0 2.15715,1.44653 1.07858,4.33958c-1.07858,2.89306 -3.23573,1.44652 -3.23573,1.44652c-0.79085,-0.56257 -1.50675,-1.38252 -2.37255,-1.68771c-4.78163,-1.68546 -3.91863,3.58608 -6.43156,6.9098c-0.91459,1.20968 -2.2943,1.55803 -3.39186,2.45308c-3.82497,3.11925 -7.7938,8.49591 -12.21571,10.05438c-1.30051,0.45836 -2.68934,0.00624 -4.03402,0.00936l-3.42148,-2.19761c0,0 -2.15715,-1.44653 -1.07857,-4.33958z" fill="#3e9a44" stroke="none" stroke-width="0.5" stroke-linecap="butt"/><path d="M198.81515,100.63401l0.00281,-0.01028c0.01732,0.00774 0.03463,0.01552 0.05194,0.02333c0.25064,0.0628 0.57699,0.18618 0.89194,0.42859c1.12088,0.56257 2.23152,1.17691 3.40165,1.49074c1.00183,0.26869 2.07653,-0.30263 3.0648,0.04477c0.87741,0.30843 1.43995,1.74061 2.34291,1.85613c0.60659,0.07761 3.01841,-3.32056 3.17869,-3.48168c1.33969,-1.34668 2.78302,-2.49715 4.17454,-3.74572c0,0 2.0067,-1.7942 3.34451,0.8971c1.3378,2.69129 -0.6689,4.48549 -0.6689,4.48549c-2.39567,2.1337 -6.93406,8.11602 -10.02885,8.31389c-1.25465,0.08022 -2.22957,-1.63696 -3.45113,-2.02918c-0.8848,-0.2841 -1.83709,0.28409 -2.72922,0.04476c-1.46526,-0.39308 -2.83725,-1.25722 -4.2529,-1.9009h-2.60332v0c-1.33198,0 -2.41177,-1.44815 -2.41177,-3.23453c0,-1.78638 1.07979,-3.23453 2.41177,-3.23453h2.89701c0,0 0.15371,0 0.38352,0.05204z" fill="#3e9a44" stroke="none" stroke-width="0.5" stroke-linecap="butt"/><path d="M174.3652,70.64278c-1.3378,2.69129 -3.34452,0.8971 -3.34452,0.8971l-0.3321,-0.29694c-1.12483,-1.06131 -2.08226,-2.55261 -3.37451,-3.18394c-3.88322,-1.89716 -10.21472,5.05187 -11.4779,9.49754c-0.91533,3.22145 0.7648,8.24282 -0.00174,11.66366c-0.43126,1.92459 -3.36,5.34053 -2.8793,7.9049c0.23776,1.26838 1.51876,1.64105 2.27814,2.46157c0,0 1.70538,2.28716 0,4.57432c-0.27573,0.3698 -0.55148,0.62002 -0.82001,0.77966c0.05083,0.26142 0.07789,0.53573 0.07789,0.8185c0,1.58994 -0.85536,2.91195 -1.98259,3.18347l-4.68604,1.25694c-3.80236,2.21562 -8.34571,-0.08584 -12.28316,0.70262c-1.582,0.31679 -3.06398,1.23361 -4.59597,1.8504l-3.43828,0.12571c0,0 -2.41124,0.06751 -2.46158,-3.16632c-0.05034,-3.23383 2.3609,-3.30134 2.3609,-3.30134l2.79005,-0.04868c0.78076,-0.31268 1.5367,-0.56284 2.2758,-0.76394c-5.58439,-1.07249 -11.19634,-1.92149 -16.75343,-2.43859c-1.74284,-0.16217 -7.12679,0.22828 -8.54117,0.00625c-1.68154,-0.26397 -4.11632,0.44326 -4.94859,-1.53404c-0.88694,-2.10721 0.73296,-4.75505 1.34292,-7.03235c0.24514,-0.91522 1.19389,-1.46632 1.19389,-2.4388c0,-0.97248 -0.83942,-1.59043 -1.19389,-2.4388c-0.52779,-1.26317 -0.96567,-2.59021 -1.44851,-3.88532c0,0 -1.07857,-2.89306 1.07857,-4.33958c2.15715,-1.44653 3.23573,1.44653 3.23573,1.44653c0.4994,1.33957 3.15164,8.26299 3.15163,9.21717c0,1.51364 -0.52767,2.96323 -1.16086,4.27434c3.93811,-0.60747 8.84381,0.47429 12.52556,1.08914c9.02928,1.50789 18.02149,2.65296 26.95524,5.00062h2.5772c-0.96243,-1.06321 -1.92769,-2.12449 -2.17795,-3.67271c-0.45447,-2.81157 0.60176,-5.73085 1.29097,-8.45521c0.30034,-1.18723 1.32362,-1.8792 1.62376,-3.06651c0.85925,-3.39893 -1.01497,-8.17202 -0.00173,-11.64829c2.34951,-8.06089 10.74683,-16.46009 17.49224,-13.8144c1.76711,0.6931 3.10156,2.6619 4.65233,3.99284l0.3321,0.29693c0,0 2.00671,1.7942 0.66891,4.48549z" fill="#3e9a44" stroke="none" stroke-width="0.5" stroke-linecap="butt"/><path d="M42.60594,113.07526c-0.94407,0.93788 -2.5659,1.27898 -2.83223,2.81364c-0.19194,1.10602 1.95165,-1.65256 2.47601,-0.76092c1.48723,2.52899 0.75668,12.88561 0.70638,15.8858c-0.02865,1.70925 0.35898,3.57602 -0.18358,5.12312c-0.87229,2.48734 -4.07237,3.35194 -4.13799,6.09926c-0.0423,1.77111 0.55109,3.47028 0.71817,5.22808c0.15656,1.64721 -0.3158,3.49399 0.25116,4.97021c0.32626,0.84949 1.34604,0.62725 2.01906,0.94087c0,0 2.15715,1.44653 1.07858,4.33958c-1.07858,2.89306 -3.23573,1.44652 -3.23573,1.44652c-1.25832,-0.98149 -3.01873,-1.27632 -3.77496,-2.94445c-0.4233,-0.93372 -1.88681,-14.18613 -1.75928,-15.4179c0.52015,-5.02353 2.82252,-3.33536 4.38464,-7.13779c0.31892,-0.77629 -0.16439,-1.76158 -0.18358,-2.64752c-0.0701,-3.2364 -0.411,-6.52281 0,-9.71331c0.07861,-0.61025 1.08939,-1.25221 0.7064,-1.59816c-0.93065,-0.84066 -3.18105,0.73268 -3.31803,-0.76092c-0.26214,-2.85828 1.67933,-5.30102 2.519,-7.95153l0.0183,-0.65336c-0.21177,-0.05618 -0.41218,-0.04333 -0.59148,0.1168c-0.66036,0.5898 -0.20463,2.26511 -0.75992,3.02513c-1.51933,2.07953 -3.07068,5.30087 -5.23987,5.18682c-1.76236,-0.09266 -2.14622,-3.75437 -3.21933,-5.63156l-1.44851,-3.88533c0,0 -1.07858,-2.89305 1.07857,-4.33958c2.15715,-1.44653 3.23573,1.44653 3.23573,1.44653l1.44851,3.88532c-0.10744,0.71303 -0.63313,2.73526 -0.32232,2.13909c1.16352,-2.23189 1.00201,-5.81815 2.69126,-7.32934c1.00465,-0.89875 2.44251,0.01335 3.61084,-0.39655c1.16408,-0.4084 2.07701,-2.04309 3.28015,-2.02105c1.61708,0.02962 8.21203,3.15144 9.46507,5.41122c0.64584,1.16472 -0.27803,3.03081 0.17662,4.34802c0.82946,2.40312 6.74594,7.19268 7.90992,8.36348c0,0 1.92941,1.94072 0.48236,4.52835c-1.44706,2.58763 -3.37647,0.64691 -3.37647,0.64691c-2.78101,-2.79731 -7.78031,-6.78695 -9.47217,-11.06314c-0.39968,-1.0102 0.57212,-2.40949 0.17662,-3.42263c-0.28364,-0.72658 -1.19129,-0.3836 -1.76839,-0.65484c-0.86941,-0.40862 -1.67092,-1.25872 -2.54439,-1.57925z" fill="#3e9a44" stroke="none" stroke-width="0.5" stroke-linecap="butt"/><path d="M148.69713,14.45405c0,3.23453 -2.41177,3.23453 -2.41177,3.23453h-1.44851c-1.92018,-0.10175 -3.80866,1.21638 -5.42852,2.60298c-2.72026,2.2088 -5.22994,4.89536 -8.05085,6.86402c-2.08929,1.45808 -4.21771,4.58348 -6.48923,3.7489c-1.63413,-0.60039 -0.96684,-4.36501 -1.2716,-6.60031c-0.93143,-6.8318 -0.08176,-13.99702 -4.03911,-19.60084c-2.70901,-3.8361 -3.3612,-2.61342 -7.08035,-2.55605c-3.21548,0.0496 -6.43222,0.09924 -9.64706,0c-0.68138,-0.02103 -1.43145,-0.6272 -2.03858,-0.21183c-1.07354,0.73447 -1.68397,2.31773 -2.59224,3.38007c-4.82185,5.63975 -8.35496,12.09925 -12.29604,18.89498c0,0 -1.48068,2.55318 -3.38441,0.56738c-1.90373,-1.98581 -0.42305,-4.53899 -0.42305,-4.53899c4.12463,-7.11224 7.79009,-14.11403 12.98528,-19.85892c1.34024,-1.48205 2.41096,-3.52965 3.99359,-4.48992c1.14154,-0.69263 2.50274,-0.18089 3.75545,-0.21182c3.21515,-0.07939 6.43153,-0.04292 9.64706,0c1.84044,0.02456 3.76964,-0.62238 5.52066,0.13806c4.77508,2.07375 8.2921,9.61793 9.59026,15.77759c0.47852,2.27058 0.33268,4.69796 0.48911,7.04816c0.07178,1.07834 0.27035,2.16646 0.36295,3.24724c2.16224,-3.20225 6.38786,-5.44 8.46952,-7.13117c1.46053,-1.13982 2.77827,-2.70374 4.3816,-3.41944c1.12172,-0.50073 2.36372,-0.07943 3.54557,-0.11915h1.44851c0,0 2.41177,0 2.41177,3.23453z" fill="#3e9a44" stroke="none" stroke-width="0.5" stroke-linecap="butt"/><path d="M223.31312,-22.11204c-1.70537,2.28716 -3.41076,0 -3.41076,0l-2.15489,-4.22982c0.23547,-0.53272 0.649,-0.98369 0.7064,-1.59817c0.03748,-0.4013 -0.3831,0.64374 -0.63754,0.86085c-0.69433,0.59248 -1.48692,0.95774 -2.18317,1.54611c-1.93324,1.63366 -3.652,3.68456 -5.48178,5.52007c-2.67794,3.60516 -5.30232,7.30435 -8.05213,10.8106c-0.94333,1.20284 -2.25504,1.99954 -2.88796,3.52496c-1.32067,3.18301 3.9965,9.70219 4.42563,11.42352c0.49242,1.97517 -0.17541,4.19122 0.07235,6.24719c0.21397,1.7756 0.8874,3.39519 1.29606,5.1083c0.18635,0.78113 0.0244,1.83727 0.48827,2.37167c0.30497,0.35134 0.74976,-0.45063 1.15107,-0.48308c0.29075,-0.02351 9.47979,-0.00451 9.72316,0.08653c1.62775,0.6089 3.33077,1.62911 4.39448,3.39017c0.60785,1.00635 -0.42393,2.72169 0,3.88533c0.24663,0.67694 1.07983,0.41976 1.62815,0.5837c2.25286,0.67355 6.87459,1.33167 8.39463,3.36629c1.17924,-0.95149 2.29801,-2.0041 2.96049,-3.44901c0.26013,-0.56737 -0.98841,0.45001 -1.47271,0.30251c-1.61361,-0.49142 -3.2758,-1.0285 -4.69052,-2.17952c-1.32565,-1.07855 -2.22297,-2.89975 -3.33444,-4.34962c0,0 -1.70538,-2.28716 0,-4.57432c1.70537,-2.28716 3.41075,0 3.41075,0c0.81986,1.14034 1.44307,2.6143 2.45957,3.42103c1.65396,1.31261 7.99756,2.0232 8.32184,5.89363c0.02172,0.25915 -3.61539,9.36051 -5.14744,10.99711c-0.79028,0.84421 -2.02374,0.7868 -2.73697,1.74651c-0.76218,1.02555 -0.96568,2.59021 -1.44852,3.88532l-0.75689,0.25697l0.13009,0.34892l-2.85362,1.91356c-0.33515,0.23664 -0.7169,0.37058 -1.12197,0.37058c-1.33198,0 -2.41177,-1.44815 -2.41177,-3.23453c0,-0.38415 0.04993,-0.75265 0.14157,-1.09448l1.43071,-5.75636l0.03649,0.01631c0.05983,-0.23384 0.1262,-0.46526 0.19994,-0.69396c0.37035,-1.14866 3.35961,-0.45032 2.6403,-1.24751c-0.76643,-0.84943 -1.90058,0.93451 -2.89457,0.96571c-0.96061,0.03016 -1.94164,-0.27103 -2.82239,-0.78624c-1.47846,-0.86484 -3.17592,-1.59375 -4.16589,-3.30162c-0.59268,-1.02249 0.38034,-2.6949 0,-3.88533c-0.19003,-0.59477 -0.91791,-0.45723 -1.39956,-0.49515c-2.8668,-0.22567 -5.74578,0.24938 -8.61494,0.08652c-1.23373,-0.07003 -2.6846,0.48414 -3.68695,-0.48307c-1.63828,-1.58086 -3.72842,-9.74652 -4.0097,-11.94665c-0.22723,-1.77728 0.4604,-3.6823 0.07234,-5.40878c-0.67852,-3.01881 -3.74212,-4.44887 -4.27993,-7.51824c-0.46938,-2.67888 -0.71686,-5.68441 0.01451,-8.25551c0.68311,-2.40144 2.60597,-3.77001 3.93356,-5.62368c2.7081,-3.78124 5.5334,-7.42231 8.30249,-11.12336c2.18796,-2.20637 6.68088,-7.96313 9.71713,-8.47511c1.71858,-0.28979 3.86551,-0.68788 5.1565,0.86084c1.15684,1.38778 0.47092,4.11499 0.70638,6.17248l0.74212,-0.3445c0,0 1.70537,2.28716 0,4.57431z" fill="#3e9a44" stroke="none" stroke-width="0.5" stroke-linecap="butt"/><path d="M282.44505,-10.14977c2.41177,0 2.41177,3.23453 2.41177,3.23453l-0.25461,0.49613c1.83008,5.04577 4.84477,8.03937 7.72554,12.069c0.90084,1.26008 1.50608,2.98878 2.62832,3.87316c1.26364,0.99582 2.92744,-0.24621 4.39308,-0.24621c1.6116,0 3.22223,0.17825 4.82353,0.48162v-0.48162h4.34552c1.33198,0 2.41177,1.44815 2.41177,3.23453c0,1.18398 -0.47433,2.21938 -1.18203,2.78306l-2.61234,2.16068l-0.09773,-0.21255l-0.33502,0.49483c-1.60304,0.33508 -3.27636,0.29204 -4.80913,1.00523c-1.47654,0.68703 -2.62363,2.32632 -4.06844,3.1255c-1.66257,0.91963 -3.38768,1.59658 -5.13116,2.20343l-3.08976,2.76255c-0.38819,0.35813 -0.85846,0.56776 -1.36524,0.56776c-1.33198,0 -2.41177,-1.44815 -2.41177,-3.23453c0,-0.85861 0.24944,-1.63908 0.65644,-2.21817l1.56622,-2.23978c0.97404,-1.91875 1.6897,-4.13182 2.93851,-5.73756c0.0938,-0.12062 0.1919,-0.23327 0.29363,-0.33917c-0.8151,-1.08804 -1.5423,-2.3426 -2.36513,-3.40846c-3.37005,-4.36542 -6.49245,-8.14019 -8.62908,-13.75027l-0.25462,-3.38919c0,0 0,-3.23453 2.41177,-3.23453z" fill="#3e9a44" stroke="none" stroke-width="0.5" stroke-linecap="butt"/><path d="M413.44277,46.16684c0.16985,-0.51674 0.48431,-1.02693 1.02446,-1.46141c2.06828,-1.66369 3.30877,1.11018 3.30877,1.11018l-1.21273,6.83092c-13.30198,-0.06547 -26.62021,0.07144 -38.15614,-9.90773c-2.59928,-2.24851 -7.60986,-5.90568 -8.53678,-10.29557c-0.41016,-1.94254 0.713,-4.08844 1.70256,-5.60988c2.97904,-4.58029 5.88549,-4.82143 9.90022,-6.17765c0.81788,-0.27629 1.62896,-0.7599 2.44413,-1.13907c0.65284,-0.52648 1.37181,-0.52648 1.37181,-0.52648h0.26481c0.24558,-0.03035 0.49218,-0.03309 0.74004,0h3.34067c1.33198,0 2.41177,1.44815 2.41177,3.23453c0,1.78638 -1.07979,3.23453 -2.41177,3.23453h-2.63974c-1.21735,0.7609 -7.46212,2.19919 -8.63513,2.85819c-1.16904,0.65677 -2.10018,1.90524 -3.17567,2.8047c-0.16864,0.14104 -0.6848,0.11555 -0.54939,0.31065c0.95953,1.38254 5.67399,5.2515 6.38902,5.8715c9.765,8.46717 21.13051,8.81821 32.41908,8.86258z" fill="#3e9a44" stroke="none" stroke-width="0.5" stroke-linecap="butt"/><path d="M330.98565,188.79751c-1.07858,-2.89306 1.07858,-4.33958 1.07858,-4.33958l3.05265,-2.03792c0.06466,0.01844 0.12931,0.03687 0.19396,0.05531l-0.03369,-0.13554l0.09606,-0.04295c-0.1565,-1.80667 -0.46493,-3.6247 -0.23215,-5.4023c0.73936,-5.64602 5.27508,-10.29329 7.60964,-14.70203c0.66796,-1.26141 1.05085,-2.78038 1.77591,-3.98375c0.64477,-1.07013 2.81387,-1.57964 2.28781,-2.76082c-0.7066,-1.58653 -3.19779,0.28891 -4.04009,-1.17361c-2.98196,-5.17764 1.70104,-9.94344 2.50629,-14.29038c0.57894,-3.12523 -0.04116,-6.46896 0.32946,-9.65061c0.76886,-6.60043 1.05448,-12.12303 1.0563,-18.87031c0.36788,-6.44724 0.6468,-12.86463 0.85652,-19.27248c-7.84451,1.20284 -15.66583,3.19501 -23.54916,3.20452h-0.9705c0,0 -2.41177,0 -2.41177,-3.23453c0,-3.23453 2.41177,-3.23453 2.41177,-3.23453h0.97051c7.95705,0.0102 15.83123,-1.98114 23.73772,-3.18627c0.31194,-12.07018 0.40165,-24.13074 0.40165,-36.31777c0,-3.67163 -0.01943,-7.34335 0,-11.01489c0.0101,-1.90881 0.14356,-3.82001 0.06452,-5.72592c-0.02696,-0.6503 0.08733,-1.71007 -0.38019,-1.88619c-1.16704,-0.43961 -2.432,0.66008 -3.62572,0.37723c-2.59351,-0.61452 -9.05471,-4.23791 -10.31564,-7.57462c-0.02614,-0.06917 -0.05127,-0.13839 -0.07542,-0.20764c-0.68839,0.25569 -2.02007,0.4172 -2.795,-1.66137c-1.07857,-2.89306 1.07858,-4.33958 1.07858,-4.33958c0.84646,-0.56369 1.70075,-1.11952 2.56598,-1.64169c1.27556,-2.28183 3.27118,-3.97016 5.05624,-4.38899c0.2343,-0.05497 0.46718,-0.07649 0.69889,-0.07033v-0.06846h2.89701c0.40941,0 0.795,0.13682 1.13273,0.37822c1.09536,-1.75231 2.22698,-3.45058 3.56988,-4.84046c2.58428,-2.67469 5.73019,-4.21883 8.44467,-6.6505c0,0 2.00671,-1.7942 3.34452,0.8971c1.3378,2.69129 -0.66891,4.48549 -0.66891,4.48549c-2.62742,2.34495 -5.67428,3.82122 -8.17948,6.39559c-2.31457,2.37849 -3.88816,5.83052 -5.88951,8.67458l0.65786,-0.2775c0,0 0,3.23453 -2.41177,3.23453c-2.41177,0 -2.41177,-3.23453 -2.41177,-3.23453l0.12208,-0.77256c-0.96116,0.34104 -1.90459,0.77022 -2.83255,1.25876c0.01869,0.02768 0.03981,0.05554 0.06344,0.08357c1.05863,1.25627 5.72512,3.67467 6.79664,3.95218c1.75049,0.45335 3.81102,-0.7341 5.33513,0.5064c1.4414,1.17319 2.08592,3.69827 2.5168,5.88446c0.45814,2.32441 0.05318,4.80802 0.06452,7.21221c0.02748,5.827 0,11.65683 0,17.48395c0,9.8113 -0.10199,19.52234 -0.35374,29.23031c3.23109,-0.31198 6.47147,-0.39819 9.72896,-0.06965c2.92871,0.29538 5.78252,1.39574 8.69105,1.94266c1.36416,0.25652 3.08018,-0.63007 4.10827,0.59953c1.04132,1.24543 0.00023,4.10708 0.96126,5.46366c0.48562,0.68549 0.75737,-1.77926 1.41995,-2.10235c0.90254,-0.44009 1.95084,0.32535 2.88105,0.00513c1.17503,-0.4045 6.19484,-5.12565 6.47481,-5.37641c0,0 2.00671,-1.7942 3.34452,0.8971c1.3378,2.69129 -0.66891,4.48549 -0.66891,4.48549c-1.89835,1.69458 -5.65234,5.37717 -8.01026,6.27956c-0.93372,0.35734 -1.95784,-0.22924 -2.91299,0.00514c-1.49899,0.36782 -3.02264,2.72736 -4.37406,1.78297c-1.47999,-1.03423 -0.8415,-4.50243 -1.93575,-6.19231c-0.38118,-0.58867 -1.10532,0.64295 -1.68576,0.59952c-2.93242,-0.21944 -5.76218,-1.65008 -8.69105,-1.94266c-3.18396,-0.31806 -6.35572,-0.23388 -9.52087,0.07139c-0.22086,6.69434 -0.5179,13.39746 -0.90677,20.14117c0.00194,6.94019 -0.30173,12.81048 -1.10977,19.61373c-0.39721,3.34434 0.21349,6.86069 -0.40148,10.14522c-0.30797,1.64487 -1.07309,3.07182 -1.63861,4.58871c-0.40035,1.07386 -0.85873,2.10763 -1.2584,3.18194c-0.1505,0.40452 -0.66772,0.99328 -0.39073,1.25092c1.3891,1.29206 4.25667,0.50706 4.65095,2.71172c0.52598,2.941 -1.68436,5.61694 -2.67557,8.33354c-2.3564,6.45813 -7.42551,10.93369 -9.01999,17.81434l1.7744,1.18987c0.81577,0.51864 1.37991,1.63316 1.37993,2.92439c0,1.45502 -0.71636,2.68565 -1.70186,3.09214l-4.1703,1.86433l-2.70356,1.82192c0,0 -2.15715,1.44653 -3.23573,-1.44653z" fill="#3e9a44" stroke="none" stroke-width="0.5" stroke-linecap="butt"/><path d="M349.60858,248.28723c1.51551,0.67168 7.72574,2.97065 8.76192,5.35642c0.65824,1.51559 -0.46238,3.49431 -0.3462,5.24132c0.02679,0.40284 0.38293,-0.64411 0.63754,-0.86084c0.72442,-0.6167 1.52882,-1.04723 2.27397,-1.61774c0.96828,-0.74135 2.07729,-1.25739 2.86446,-2.3164c1.12627,-1.51522 1.61281,-3.75558 2.75701,-5.24643c2.88097,-3.75379 5.9617,-2.64337 3.53808,-7.59418c0,0 -1.07857,-2.89306 1.07858,-4.33958c2.15715,-1.44653 3.23573,1.44653 3.23573,1.44653c0.56771,1.77728 1.7625,3.39999 1.70312,5.33185c-0.2123,6.90709 -3.25439,5.95387 -6.19188,9.79205c-1.16065,1.51653 -1.64588,3.80946 -2.81251,5.3177c-0.59146,0.76464 -6.19237,5.33642 -7.33834,5.52221c-1.71958,0.2788 -3.92302,0.77001 -5.15651,-0.86085c-1.13832,-1.50506 0.24895,-4.42496 -0.3462,-6.41465c-0.22768,-0.76118 -1.18528,-0.40776 -1.76839,-0.65484c-2.73473,-1.15875 -5.31928,-3.10051 -8.15443,-3.68088c-6.741,-1.37991 -14.50486,0.04176 -21.34128,0.04176h-4.34552c-1.33198,0 -2.41177,-1.44815 -2.41177,-3.23453c0,-1.78638 1.07979,-3.23453 2.41177,-3.23453h4.34552c8.7325,0 18.28253,-1.68311 26.60532,2.00561z" fill="#3e9a44" stroke="none" stroke-width="0.5" stroke-linecap="butt"/><path d="M99.93312,164.68981c2.41177,0 2.41177,3.23453 2.41177,3.23453v1.94266c-0.01038,1.46781 0.17726,2.96242 -0.03114,4.40344c-0.6562,4.53747 -3.193,12.13272 -0.55865,16.78923c0.4714,0.83325 1.46356,0.73076 2.16828,1.17879c2.06136,1.31055 7.349,5.01044 8.27569,7.18489c0.13607,0.31929 0.51532,10.92151 0.1163,12.42927c-0.78638,2.97137 -3.57588,4.50997 -4.27994,7.51824c-0.79788,3.40919 0.10348,7.14546 0.10348,10.71865c0,0 0,3.23453 -2.41177,3.23453c-2.41177,0 -2.41177,-3.23453 -2.41177,-3.23453c0,-1.05824 -0.02971,-12.04265 0.10348,-12.59329c0.5886,-2.43333 1.96247,-4.3966 3.0945,-6.45555c0.34828,-0.63346 1.11734,-0.82722 1.31661,-1.56751c0.22829,-0.84813 -0.18405,-1.79411 -0.16907,-2.69559c0.02393,-1.43922 0.81814,-3.05201 0.28537,-4.30175c-0.58952,-1.38287 -2.06528,-1.57467 -3.11172,-2.32817c-0.63745,-0.459 -6.4749,-4.4023 -6.7234,-4.84945c-4.60457,-8.28531 -0.51079,-16.88867 -0.5898,-25.43121v-1.94266c0,0 0,-3.23453 2.41177,-3.23453z" fill="#3e9a44" stroke="none" stroke-width="0.5" stroke-linecap="butt"/><path d="M83.62962,46.5289c2.15715,1.44653 1.07857,4.33958 1.07857,4.33958l-1.2584,3.18194c-0.19232,3.07602 3.10832,6.46205 4.85697,8.28884c1.08702,1.13561 2.95493,1.19205 3.53841,2.86616c0.76685,2.20027 0.80733,5.11224 0,7.28631c-1.76326,4.74828 -4.03254,1.75272 -6.13956,4.47109c-0.53857,0.69483 -0.64342,1.81249 -0.90028,2.75367c-0.41159,1.50807 -1.26982,2.99499 -1.10265,4.58518c0.5685,5.40772 5.00189,4.69531 7.53943,4.62431c0,0 2.41177,0 2.41177,3.23453c0,3.23453 -2.41177,3.23453 -2.41177,3.23453c-5.27338,-0.11286 -11.05165,-0.82147 -12.29687,-10.02619c-0.30734,-2.2719 1.77998,-10.82264 3.34829,-12.97857c0.93212,-1.28138 2.30795,-1.81273 3.52449,-2.54945c0.64796,-0.39239 2.56067,-0.81007 1.92402,-1.23443c-2.97354,-1.98203 -7.42476,-5.77218 -8.86765,-10.17601c-0.58677,-1.79087 -0.07939,-3.91084 -0.11907,-5.86626l1.6386,-4.58871c0,0 1.07858,-2.89306 3.23573,-1.44653z" fill="#3e9a44" stroke="none" stroke-width="0.5" stroke-linecap="butt"/><path d="M60.11478,290.80818c1.07858,-2.89306 3.23573,-1.44653 3.23573,-1.44653l4.10644,3.81287c-0.52645,2.11823 -0.83482,4.35762 -1.57936,6.3547c-0.2517,0.67513 -1.5833,0.75049 -1.31765,1.41595c0.32019,0.80212 1.47124,-0.19487 2.0192,0.34152c1.4562,1.42542 2.86589,3.13867 3.71501,5.27151c0.50853,1.27732 -0.18113,2.94781 0.11208,4.34138c0.3477,1.6525 3.88424,8.43045 4.23337,9.14625c1.05252,2.15798 1.82545,6.17209 3.73689,5.89305c1.34102,-0.19577 2.46695,-1.54453 3.78824,-1.90903c1.07204,-0.29574 2.18889,-0.02785 3.28332,-0.04177c0,0 2.41177,0 2.41177,3.23453c0,3.23453 -2.41177,3.23453 -2.41177,3.23453c-4.64676,-0.0773 -7.46419,4.23964 -11.73565,-0.80967c-1.36113,-1.60899 -2.0685,-3.99874 -3.08621,-6.01325c-1.31166,-2.59636 -4.19425,-8.04039 -4.90048,-11.17116c-0.24704,-1.09517 0.45891,-2.3839 0.11209,-3.42926c-0.56348,-1.69832 -5.70551,-5.37414 -5.85385,-6.04294c-0.92821,-4.18492 1.188,-5.93414 2.89701,-7.77065l-1.68759,-0.07246c0,0 -2.15715,-1.44652 -1.07858,-4.33958z" fill="#3e9a44" stroke="none" stroke-width="0.5" stroke-linecap="butt"/><path d="M38.83895,192.83445c1.70537,-2.28716 3.41075,0 3.41075,0l2.15489,4.22982c-0.00182,2.18375 0.1512,8.10444 -0.6808,9.74289c-0.98136,1.93257 -2.99941,2.45043 -4.26843,4.0537c-1.15121,1.45444 -1.50627,8.68398 -1.03651,10.1942c0.43876,1.41057 6.39667,6.36068 6.55152,6.53306c3.02476,3.3671 5.17448,6.6333 5.22219,12.444c0.00556,0.67829 -2.74174,7.90472 -3.14556,8.98789c0,0 -1.07857,2.89306 -3.23573,1.44653c-2.15715,-1.44653 -1.07858,-4.33958 -1.07858,-4.33958c0.82853,-2.22239 2.60852,-4.06929 2.64847,-6.55341c0.12665,-7.87664 -9.32665,-9.69068 -11.40241,-15.99085c-1.31777,-3.99955 -0.40916,-13.68281 1.86051,-17.00306c0.99594,-1.45694 2.79375,-1.62876 3.75841,-3.12308c1.03992,-1.61091 -0.01466,-4.26151 -0.0166,-6.39228l-0.74212,0.3445c0,0 -1.70538,-2.28716 0,-4.57432z" fill="#3e9a44" stroke="none" stroke-width="0.5" stroke-linecap="butt"/><path d="M41.25296,14.95017c1.07858,2.89306 -1.07857,4.33958 -1.07857,4.33958l-2.56541,1.6736c-0.693,0.83305 -1.7649,1.32427 -2.07902,2.49914c-0.38564,1.44234 0.15041,3.05857 0.18358,4.59018c0.07924,3.65817 -1.18143,8.84117 1.13218,11.68888c1.04852,1.29058 2.39193,2.0692 3.58789,3.10379c0,0 2.0067,1.7942 0.6689,4.48549c-1.3378,2.69129 -3.34451,0.8971 -3.34451,0.8971c-1.47964,-1.35766 -3.20755,-2.32547 -4.43895,-4.07299c-3.29732,-4.67941 -2.52608,-10.31362 -2.42904,-16.10226c0.0395,-2.3561 -0.5021,-4.89592 0.18358,-7.06579c0.70347,-2.22615 2.47669,-3.51434 3.715,-5.27151l3.22863,-2.21172c0,0 2.15714,-1.44653 3.23573,1.44652z" fill="#3e9a44" stroke="none" stroke-width="0.5" stroke-linecap="butt"/><path d="M366.08854,267.99238c2.15715,1.44653 1.07857,4.33958 1.07857,4.33958l-1.90028,4.72596c-2.8722,2.07324 -6.375,4.66664 -8.69925,7.78555c-2.193,2.94277 -3.58401,6.80255 -5.56468,10.00471c-0.74616,1.20632 -2.08011,1.90687 -2.41524,3.40841c-0.17854,0.79987 0.74216,1.36896 1.23511,1.87891c1.09266,1.13029 2.28082,2.09213 3.48269,3.00143c4.13731,3.13013 8.57161,5.71915 12.8143,8.58631c1.55089,1.04807 3.45762,1.4636 4.64591,3.16212c0.08852,0.12653 0.1742,0.25584 0.25727,0.38769l0.03792,-0.05087l2.89701,3.88533c0.43644,0.58533 0.70638,1.39397 0.7064,2.28716c0,1.78638 -1.07979,3.23453 -2.41177,3.23453c-0.40507,0 -0.78683,-0.13393 -1.12197,-0.37057l-2.85361,-1.91356l0.42449,-1.13862l-1.05129,-1.40994l3.37283,-4.52345c1.44668,2.29634 2.10063,5.36474 3.18609,8.01289l-5.93212,-0.94087c0,0 -1.58846,-1.06518 -1.35766,-3.19554c-1.02554,-0.40945 -2.0278,-1.02255 -2.95664,-1.64017c-4.31504,-2.86928 -8.92491,-5.49021 -13.07147,-8.77202c-1.58119,-1.25144 -3.34705,-2.29373 -4.56138,-4.14054c-1.23569,-1.8793 -2.70789,-4.1903 -2.55867,-6.68793c0.16448,-2.75314 2.19923,-4.67264 3.37299,-6.9421c4.00367,-7.74103 8.20194,-14.56982 14.71201,-18.48313l0.99674,-3.04469c0,0 1.07857,-2.89306 3.23573,-1.44653z" fill="#3e9a44" stroke="none" stroke-width="0.5" stroke-linecap="butt"/><path d="M378.53179,323.33732c0,-3.23453 2.41177,-3.23453 2.41177,-3.23453l1.18785,0.01894c4.01006,-0.57196 8.90091,-3.92406 12.92987,-1.61839c3.83035,2.192 3.47661,8.83323 2.30988,13.45807c0.74523,-0.78285 1.76556,-1.00549 2.58356,-1.66224c2.00943,-1.61331 3.74132,-3.77959 5.61491,-5.66416c2.7736,-2.78986 5.4495,-5.45347 7.919,-8.72384c1.02428,-1.35647 2.16138,-2.57053 3.09124,-4.04425c0.39989,-0.63377 1.04396,-1.41995 0.85545,-2.21076c-0.73429,-3.08036 -2.80339,-5.29371 -3.88473,-8.18425c0,0 -1.07857,-2.89305 1.07858,-4.33958c2.15715,-1.44653 3.23573,1.44652 3.23573,1.44652c1.31775,3.54796 3.94769,6.42724 4.36351,10.35157c0.23772,2.24336 -0.71003,4.52361 -1.59876,6.45069c-2.67515,5.80062 -8.19761,10.43764 -12.16588,14.42916c-2.73134,2.74735 -5.73901,6.52729 -9.05952,8.07608c-1.70413,0.79486 -3.8797,3.38527 -5.24352,1.80107c-1.75611,-2.03986 -0.92792,-6.11825 -1.14382,-9.22052c-0.14282,-2.05206 1.41184,-5.98458 -0.11789,-6.18091c-3.42276,-0.4393 -6.85612,1.76321 -10.24626,2.26693l-1.70917,0.01895c0,0 -2.41177,0 -2.41177,-3.23453z" fill="#55d55e" stroke="none" stroke-width="0.5" stroke-linecap="butt"/><path d="M315.7004,349.89216c-0.94495,-0.00334 -1.89041,-0.00835 -2.83668,-0.00835c-2.1818,0 -4.3638,-0.04885 -6.54459,-0.13841c-0.3366,-0.01382 -1.18422,-0.45798 -1.00884,-0.07243c0.58021,1.27538 1.73517,1.92151 2.39684,3.12346c0.56135,1.01974 0.64411,2.42531 1.21419,3.4363c0.87885,1.55859 4.57674,6.18252 5.91646,4.91219c1.01457,-0.96202 1.48401,-2.79013 2.54984,-3.64666c1.43916,-1.15655 3.20592,-1.35057 4.75277,-2.22189c0.461,-0.25967 1.3954,-0.89666 2.51076,-1.6642c-1.03031,0.15253 -2.06422,0.21556 -3.09642,0.15697c-1.39226,-0.07903 -2.99687,0.53603 -4.16495,-0.48308c-0.85812,-0.74867 -1.26954,-2.07676 -1.6894,-3.3939zM331.6943,349.24272c1.43756,-0.14584 2.65038,1.52276 3.97558,2.28414c0,0 2.15715,1.44652 1.07858,4.33958c-1.07857,2.89306 -3.23573,1.44653 -3.23573,1.44653c-0.60614,-0.53373 -1.10036,-1.73621 -1.81844,-1.60118c-1.23908,0.233 -2.133,1.75873 -3.23573,2.55157c-2.71223,1.95007 -5.8908,2.61311 -8.53073,4.73419c-1.27816,1.02695 -1.86103,3.38102 -3.24419,4.124c-1.41814,0.76177 -3.14066,0.75684 -4.58262,0.08023c-3.79138,-1.77904 -6.82844,-6.67142 -8.56582,-11.15836c-2.48086,-6.40706 -5.77869,-8.86695 1.388,-12.49027c1.72249,-0.87085 3.68083,-0.10633 5.52148,-0.13841c1.51996,-0.02649 3.04,-0.04088 4.56001,-0.04182c0.2624,-0.89113 0.85702,-1.90084 2.20452,-1.90084c1.36592,0 1.95824,1.03751 2.2151,1.93732c2.46704,0.04294 4.93356,0.12485 7.39889,0.25156l0.53509,1.03287l0.24734,-0.33171l2.89701,3.88532v0.00001c0.25279,0.33903 0.44972,0.75297 0.5707,1.21486c0.26775,-0.12765 0.47999,-0.20528 0.62094,-0.21957z" fill="#55d55e" stroke="none" stroke-width="0.5" stroke-linecap="butt"/><path d="M214.05452,327.49262c-1.64981,-2.35933 0.10937,-4.57197 0.10937,-4.57197l1.93149,-2.41423c3.11947,-2.65104 5.74726,-6.84798 9.87992,-3.3759c1.58578,1.3323 2.09619,4.16802 3.29156,6.0988c0.90407,1.46027 2.16829,2.49785 2.98842,4.04471c0.45977,0.86718 0.13839,2.36378 0.75992,3.02514c0.43567,0.46359 1.07379,-0.52445 1.62907,-0.48308c1.54971,0.11547 3.3803,-0.33586 4.60239,0.94738c0.76035,0.7984 -0.45748,2.74477 0,3.88532c0.22348,0.55716 1.07251,0.02428 1.3722,-0.4643c0.58108,-0.94729 0.37184,-2.54369 1.01108,-3.42102c0.75456,-1.03562 2.11624,-0.94259 2.89701,-1.94266c0.59767,-0.76554 0.66449,-2.02979 0.99675,-3.04469c0,0 1.07857,-2.89306 3.23573,-1.44653c2.15715,1.44653 1.07858,4.33958 1.07858,4.33958c-0.63342,1.57532 -0.9737,3.43793 -1.90028,4.72596c-0.74964,1.04205 -2.12626,0.9287 -2.89701,1.94267c-0.89276,1.17448 -0.69308,3.8461 -1.88596,4.34962c-2.32968,0.98336 -5.08591,0.86274 -7.31883,-0.4643c-0.88287,-0.52469 0.46144,-2.74764 0,-3.88532c-0.22065,-0.54401 -0.73085,0.90743 -1.19164,0.94737c-1.3906,0.12053 -2.97989,0.50014 -4.16495,-0.48307c-1.1718,-0.9722 -1.28796,-3.29016 -2.13709,-4.74552c-0.81107,-1.39011 -1.99776,-2.33245 -2.80561,-3.72594c-0.3143,-0.54217 -1.34235,-6.07255 -3.3534,-4.73755c-1.13716,0.75489 -2.06,1.98751 -3.09001,2.98126l-1.62972,2.06496c0,0 -1.75918,2.21265 -3.409,-0.14668z" fill="#55d55e" stroke="none" stroke-width="0.5" stroke-linecap="butt"/><path d="M117.05835,301.62352c1.70537,-2.28716 3.41076,0 3.41076,0l0.93477,1.25367c1.42046,1.90505 5.79645,10.07643 8.56363,9.49626c0.91073,-0.19095 1.25928,-1.85112 2.04635,-2.49464c3.37747,-2.76148 4.51324,-3.82389 7.99948,-3.37467c2.27407,0.29302 5.34673,-1.04259 6.78005,1.34326c1.30225,2.16767 -0.82129,5.46701 -1.02441,8.23737c-0.21639,2.9514 -0.2276,5.94646 -0.67524,8.8507c-0.03966,0.25734 0.14172,-0.50101 0.2687,-0.70116c0.76975,-1.21338 1.4653,-2.5548 2.40978,-3.521c0.75908,-0.77654 1.92674,-0.70046 2.60182,-1.60584c0.67508,-0.90538 0.48977,-2.62986 1.19736,-3.48943c0.09579,-0.11636 0.19302,-0.23017 0.2916,-0.34164l-0.04045,-0.05426l2.89701,-3.88532c0.43644,-0.58533 1.03939,-0.94738 1.70537,-0.94738c1.33198,0 2.41177,1.44815 2.41177,3.23453v3.30532c0.39797,1.00627 0.79592,2.01254 1.19389,3.01881c0,0 1.07857,2.89305 -1.07858,4.33958c-2.15715,1.44653 -3.23573,-1.44653 -3.23573,-1.44653c-0.24845,-0.69573 -0.49689,-1.39147 -0.74533,-2.0872c-0.74123,2.21898 -2.23922,3.08356 -4.37837,5.20733c-1.24208,1.23315 -1.90283,3.65963 -3.38426,4.24965c-1.77346,0.70633 -4.25258,1.09948 -5.52533,-0.70116c-0.51884,-0.73404 -1.00748,-12.75712 -0.67524,-14.46125c0.2667,-1.36799 2.44258,-2.22906 1.87261,-3.4186c-0.54727,-1.14216 -1.87398,1.07953 -2.86701,1.34327c-1.88185,0.4998 -3.81544,1.10272 -5.46712,2.41143c-1.31048,1.03835 -2.29236,3.2219 -3.81013,3.37523c-5.71292,0.57713 -9.29234,-6.68056 -12.74295,-11.30835l-0.93477,-1.25367c0,0 -1.70538,-2.28716 0,-4.57432z" fill="#55d55e" stroke="none" stroke-width="0.5" stroke-linecap="butt"/><path d="M220.76824,213.45818c-0.76267,-3.06855 1.52533,-4.09139 1.52533,-4.09139l4.72187,-2.06689c2.17299,-0.02133 10.0705,-0.42471 11.12893,1.49228c0.80344,1.45514 0.88643,2.82757 0.5488,4.08177c7.28092,-1.88111 14.60849,-3.45129 21.97595,-4.54608c3.46172,-0.51441 6.34094,-1.64087 9.31964,-0.80414c0.00856,-0.04232 0.01764,-0.08383 0.02724,-0.12455l-0.07795,-0.41815l0.23299,-0.07811c0.63387,-1.58744 2.13445,-1.58744 2.13445,-1.58744h2.89702c1.33198,0 2.41177,1.44815 2.41177,3.23453c0,1.53932 -0.80176,2.82749 -1.87577,3.15437l-4.63057,1.55257l-0.00622,-0.03339c-0.0507,0.0268 -0.10156,0.05317 -0.15258,0.07907c-1.55429,0.78919 -3.30322,0.49661 -4.95497,0.74313c-3.17546,0.47392 -6.36147,0.83292 -9.52706,1.41358c-8.63557,1.58401 -17.21006,3.72726 -25.72278,6.20743c-0.83324,0.84512 -1.6949,1.57099 -2.69877,1.65638c-0.21687,0.01844 -0.43134,0.01324 -0.64379,-0.01193v0.1293h-2.89701c-1.33198,0 -2.41177,-1.44815 -2.41177,-3.23453c0,-1.56746 0.83135,-2.87452 1.93496,-3.17133l3.57286,-1.06483c0.044,-0.01311 0.088,-0.02621 0.13201,-0.03931c0.79573,-0.70034 1.74605,-1.16984 2.56426,-1.82642c0.13006,-0.10437 0.25944,-0.21112 0.3886,-0.31877c-0.85084,0.04009 -1.76159,-0.08625 -2.89758,-0.09988l-3.96917,1.81844c0,0 -2.288,1.02285 -3.05067,-2.0457z" fill="#55d55e" stroke="none" stroke-width="0.5" stroke-linecap="butt"/><path d="M368.61562,216.98704c1.07857,2.89306 -1.07857,4.33958 -1.07857,4.33958l-1.47973,0.99227c-0.3105,0.20457 -0.62424,0.41207 -0.9411,0.61621c0.09364,0.02228 0.187,0.04763 0.28007,0.07635c2.07613,0.64072 4.45535,1.16393 5.91572,3.24416c0.9988,1.42273 0.39317,3.87813 0.45491,5.83048c0.12225,3.86647 0.35017,7.83286 -0.30161,11.60279c-0.24893,1.43983 -2.07298,2.46781 -1.65737,3.8367c0.32868,1.08255 1.58587,-1.04399 2.44455,-1.24396c2.67312,-0.62252 5.97315,0 8.69105,0c0,0 2.41177,0 2.41177,3.23453c0,3.23453 -2.41177,3.23453 -2.41177,3.23453c-2.8326,0 -5.87453,0.38318 -8.69105,0c-2.09425,-0.28492 -4.98426,1.01529 -6.24649,-1.24396c-1.30601,-2.33761 0.5212,-5.80212 0.68239,-8.71513c0.199,-3.59635 -0.05336,-7.23094 0.25565,-10.81329c0.05809,-0.67345 0.84397,-1.50734 0.4549,-1.94016c-0.87679,-0.97538 -6.33434,-0.60362 -6.73452,-0.59939h-2.89701c-1.33198,0 -2.41177,-1.44815 -2.41177,-3.23453c0,-0.89319 0.26995,-1.70183 0.7064,-2.28716l2.89701,-3.88532l0.02504,0.03358c0.08764,-0.12612 0.17761,-0.24967 0.27014,-0.37041c1.24475,-1.62414 3.09727,-2.10808 4.64591,-3.16212l1.47973,-0.99227c0,0 2.15715,-1.44653 3.23573,1.44653z" fill="#55d55e" stroke="none" stroke-width="0.5" stroke-linecap="butt"/><path d="M119.4155,153.56411c-0.88063,-3.01119 1.3646,-4.19225 1.3646,-4.19225l1.94303,-0.94876c3.61637,-4.86666 6.04904,-6.00188 10.65008,-8.6819c0.03805,-0.02216 0.07582,-0.04642 0.11337,-0.07247c-0.60133,-0.40539 -1.20106,-1.21402 -1.20106,-2.82697c0,-3.23453 2.41177,-3.23453 2.41177,-3.23453c1.67447,0.56943 4.66276,-0.55743 5.0234,1.70829c1.71996,10.80543 -7.1662,10.177 -10.91043,13.91485c-1.30068,1.29846 -2.29693,3.07021 -3.44539,4.60531l-2.82353,1.55857c0,0 -2.24524,1.18105 -3.12587,-1.83014z" fill="#55d55e" stroke="none" stroke-width="0.5" stroke-linecap="butt"/><path d="M274.64379,75.82686c0.59081,3.13598 -1.74748,3.92833 -1.74748,3.92833l-2.67946,0.8885c-2.18356,1.47554 -4.33002,2.95374 -6.52622,4.3174c18.90526,-0.28574 38.03184,-1.08487 56.71477,2.0472c0,0 2.39314,0.40119 2.09399,3.61075c-0.29914,3.20956 -2.69228,2.80836 -2.69228,2.80836c-21.52756,-3.60896 -43.66632,-1.91769 -65.34721,-1.91769h-2.43349v0c-1.33198,0 -2.41177,-1.44815 -2.41177,-3.23453c0,-1.29123 0.56415,-2.40575 1.37993,-2.92439l2.85028,-1.91133l0.00734,0.01968c0.02762,-0.02597 0.05537,-0.05174 0.08324,-0.07729c0.41724,-0.38246 5.99332,-3.12931 7.24254,-3.88533c2.49823,-1.5119 4.90487,-3.28248 7.35972,-4.91725l3.17703,-1.09604c0,0 2.33828,-0.79236 2.92908,2.34363z" fill="#55d55e" stroke="none" stroke-width="0.5" stroke-linecap="butt"/><path d="M222.571,33.88066c0,1.05122 -0.25474,1.7608 -0.59864,2.23976c1.64196,0.78096 3.25901,1.65992 4.87661,2.5277c0,0 2.23926,1.20127 1.34356,4.20446c-0.8957,3.00319 -3.13498,1.80192 -3.13498,1.80192c-2.67988,-1.43765 -5.3462,-2.92438 -7.97986,-4.50828l-1.2456,-3.04294c-2.87598,-0.01648 -5.75483,-0.03903 -8.62689,0.01002c-0.84524,0.01444 -1.75383,-0.30968 -2.53419,0.12615c-1.29389,0.72266 -2.30206,2.14522 -3.45308,3.21783c0,0 -2.00671,1.7942 -3.34452,-0.8971c-1.3378,-2.69129 0.66891,-4.48549 0.66891,-4.48549c1.52459,-1.31965 2.88232,-3.07785 4.57375,-3.95895c1.22409,-0.63765 2.61191,-0.39793 3.92405,-0.46771c3.27035,-0.17393 6.62299,-0.06522 9.92559,-0.01937c0.28896,-0.0686 0.55239,-0.05662 0.7903,0.00961c0.47899,0.00489 0.95668,0.00787 1.4327,0.00787h0.9705c0,0 2.41177,0 2.41177,3.23453z" fill="#55d55e" stroke="none" stroke-width="0.5" stroke-linecap="butt"/><path d="M370.31875,82.44722c0,3.23453 -2.41177,3.23453 -2.41177,3.23453l-2.7665,-0.00474c-4.0424,0.58434 -9.82181,1.66278 -13.65964,3.62513c-2.4674,1.26163 -4.14359,4.43582 -6.43369,6.19903c-1.33655,1.02905 -2.95838,1.34016 -4.22548,2.51667c-0.10161,0.09435 -0.19897,0.19626 -0.29281,0.30438c5.89176,-0.72487 11.67687,-2.52614 17.57361,-3.64254c11.96797,-2.26585 23.80453,-3.81102 35.87764,-3.81102c0,0 2.41177,0 2.41177,3.23453c0,3.23453 -2.41177,3.23453 -2.41177,3.23453c-11.84852,0 -23.45656,1.52354 -35.2034,3.74752c-7.78314,1.47355 -15.33477,4.0062 -23.21491,4.02313h-2.41901v0c-1.33198,0 -2.41177,-1.44815 -2.41177,-3.23453c0,-1.29123 0.56415,-2.40575 1.37993,-2.92439l2.58495,-1.73341c1.60818,-2.211 3.15295,-4.30683 3.38354,-4.52017c1.37844,-1.27529 3.11463,-1.68894 4.56742,-2.80595c2.44696,-1.8814 4.29637,-5.14532 6.92205,-6.52698c4.30456,-2.2651 10.7426,-3.47501 15.31051,-4.14552l3.02753,-0.00474c0,0 2.41177,0 2.41177,3.23453z" fill="#55d55e" stroke="none" stroke-width="0.5" stroke-linecap="butt"/><path d="M143.75827,75.66884c2.15715,-1.44653 3.23573,1.44653 3.23573,1.44653l1.24613,3.43732c0.62564,0.93 0.98955,2.39925 1.87689,2.79c1.23755,0.54495 2.60112,-0.20816 3.90336,-0.24467c0.68394,-0.01917 9.83003,-0.00448 10.20116,0.08653c1.06204,0.26044 1.85316,1.57289 2.89702,1.94266c0.75537,0.26757 1.56194,-0.05768 2.34291,-0.08653c0,0 2.41177,0 2.41177,3.23453c0,3.23453 -2.41177,3.23453 -2.41177,3.23453c-1.15037,-0.02885 -2.33189,0.27123 -3.45112,-0.08652c-1.05024,-0.33571 -1.83694,-1.6681 -2.89702,-1.94266c-4.48821,-1.16247 -10.54412,2.15664 -14.83664,-0.15815c-1.67587,-0.90373 -2.63074,-3.32044 -3.9461,-4.98065l-1.65089,-4.33333c0,0 -1.07858,-2.89306 1.07857,-4.33958z" fill="#55d55e" stroke="none" stroke-width="0.5" stroke-linecap="butt"/><path d="M152.56029,111.5852c-1.44706,2.58763 -3.37647,0.64691 -3.37647,0.64691l-1.93521,-1.94655c-1.27876,-1.28635 -2.55753,-2.57271 -3.83629,-3.85906c-8.14457,-7.80122 -16.2437,-15.74072 -24.54636,-23.23825c-0.52509,-0.47416 -7.92562,-6.8354 -8.16553,-7.11137c-0.16268,-0.18713 -6.36983,-9.56658 -6.64152,-9.97651c-4.41875,-6.66717 -8.68087,-13.20309 -12.03752,-20.96782c-2.3818,-5.50962 -3.41167,-10.28425 -6.83022,-14.79273c0,0 -1.70537,-2.28716 0,-4.57431c1.70538,-2.28716 3.41075,0 3.41075,0c3.68684,5.01378 5.00242,10.13111 7.5924,16.12235c3.19357,7.38749 7.26613,13.57212 11.4698,19.91476c2.06436,3.11477 3.81796,6.65083 6.17658,9.36391c2.32146,2.67034 5.18088,4.36345 7.71777,6.65431c8.35556,7.54519 16.50716,15.53347 24.7029,23.38564c1.29379,1.30128 2.58757,2.60255 3.88136,3.90383l1.9352,1.94655c0,0 1.92941,1.94072 0.48236,4.52835z" fill="#55d55e" stroke="none" stroke-width="0.5" stroke-linecap="butt"/><path d="M108.62417,171.15889c-2.41177,0 -2.41177,-3.23453 -2.41177,-3.23453c0,-1.29511 0,-6.47555 0,-7.77065c0,0 0,-3.23453 2.41177,-3.23453c2.41177,0 2.41177,3.23453 2.41177,3.23453c0,1.29511 0,2.59022 0,3.88533v3.88533c0,0 0,3.23453 -2.41177,3.23453z" fill="#55d55e" stroke="none" stroke-width="0.5" stroke-linecap="butt"/><path d="M126.00627,210.01213c-2.41177,0 -2.41177,-3.23453 -2.41177,-3.23453l0.06451,-3.14218c-0.41948,-1.06065 -0.83893,-2.1213 -1.2584,-3.18195c0,0 -1.07857,-2.89305 1.07858,-4.33958c2.15715,-1.44653 3.23573,1.44653 3.23573,1.44653c0.5462,1.52957 1.0924,3.05914 1.6386,4.58871l0.06452,4.62847c0,0 0,3.23453 -2.41177,3.23453z" fill="#55d55e" stroke="none" stroke-width="0.5" stroke-linecap="butt"/><path d="M138.87156,275.57182l-1.73368,1.45164c-2.51598,2.10412 -6.29871,5.54074 -9.129,6.72331c-2.48134,1.03677 -5.19767,0.08652 -7.79665,0.08652c0,0 -2.41177,0 -2.41177,-3.23453c0,-3.23453 2.41177,-3.23453 2.41177,-3.23453c1.13108,0 2.29148,0.26537 3.43654,0.40353c0.26444,-1.05182 0.91373,-1.7026 0.91373,-1.7026l3.10581,-3.0969c3.98212,-2.68066 7.9383,-4.81734 12.02163,-7.17744c0.96705,-0.55894 2.52535,-0.44661 2.86569,-1.78308c0.33997,-1.33505 -0.97019,-2.50361 -1.45529,-3.75541c0,0 -0.76267,-3.06855 1.52533,-4.0914c2.288,-1.02285 3.05067,2.0457 3.05067,2.0457c0.48058,2.63352 2.15192,5.36213 1.44173,7.90056c-0.7662,2.73863 -3.29574,3.87807 -5.16115,5.39371c-0.59904,0.48672 -1.23542,0.94159 -1.89721,1.3738c0.0068,1.69656 -1.18816,2.69712 -1.18816,2.69712z" fill="#55d55e" stroke="none" stroke-width="0.5" stroke-linecap="butt"/><path d="M187.3382,232.37327c-0.00618,-0.1095 -0.00939,-0.22314 -0.00939,-0.34107c0,-3.23453 2.41177,-3.23453 2.41177,-3.23453h2.89702c1.33198,0 2.41177,1.44815 2.41177,3.23453c0,1.29123 -0.56415,2.40575 -1.37993,2.92439l-2.70324,1.81272c-5.46924,5.56017 -10.05422,11.77 -14.94009,18.23034c-1.01355,1.34016 -2.25899,2.41396 -3.06455,3.98765c-0.61554,1.20246 -0.79602,2.72018 -1.08831,4.12507c-0.08437,0.40554 -0.34275,1.19761 -0.03255,1.26234c3.40587,0.71067 8.57437,-2.05435 11.90694,-2.54077c9.48602,-1.38457 19.60847,-0.01102 29.16907,-0.01102c0,0 2.41177,0 2.41177,3.23453c0,3.23453 -2.41177,3.23453 -2.41177,3.23453c-9.41612,0 -19.43551,-1.41174 -28.77123,-0.01102c-3.83445,0.57532 -11.54248,4.37132 -15.1222,1.34456c-3.58961,-3.03511 -1.5233,-10.94139 -0.16484,-14.03921c0.16924,-0.38592 6.71452,-9.12753 7.16769,-9.7353c3.66236,-4.91176 7.24722,-9.2939 11.31209,-13.47773z" fill="#55d55e" stroke="none" stroke-width="0.5" stroke-linecap="butt"/><path d="M212.17684,100.42732c1.07857,2.89306 -1.07857,4.33958 -1.07857,4.33958l-1.92402,0.7501c0.30757,1.64934 1.6321,2.61154 2.55083,3.783c1.88616,2.40503 3.42033,5.33323 5.49884,7.43382c2.03758,2.05922 4.15327,1.62577 6.08923,4.22215c0.94364,1.26556 1.26685,3.15064 1.90028,4.72596c0,0 1.07857,2.89305 -1.07857,4.33958c-2.15715,1.44653 -3.23573,-1.44653 -3.23573,-1.44653c-1.58636,-4.84577 -3.40306,-3.49439 -6.49557,-6.59319c-0.1728,-0.17314 -5.78316,-7.68014 -6.08923,-8.10748c-1.15992,-1.61957 -2.83889,-2.82851 -3.41982,-4.93468c-0.58875,-2.13455 0.11774,-4.54908 0.1766,-6.82362l3.87002,-3.13522c0,0 2.15714,-1.44653 3.23573,1.44653z" fill="#55d55e" stroke="none" stroke-width="0.5" stroke-linecap="butt"/><path d="M205.18892,-3.02992c0,3.23453 -2.41177,3.23453 -2.41177,3.23453h-2.89702c-2.59009,0 -5.21183,-0.80578 -7.7681,-0.24621c-0.58712,0.12852 -1.38826,0.62023 -1.43933,1.41512c-0.05393,0.83939 0.81669,1.28045 1.22503,1.92068c0,0 1.07857,2.89305 -1.07858,4.33958c-2.15715,1.44653 -3.23573,-1.44653 -3.23573,-1.44653c-0.55733,-1.94999 -2.11227,-3.84684 -1.67199,-5.84996c2.01057,-9.14746 8.94892,-6.60175 13.96868,-6.60175h2.89702c0,0 2.41177,0 2.41177,3.23453z" fill="#55d55e" stroke="none" stroke-width="0.5" stroke-linecap="butt"/><path d="M290.17284,43.59397c0,-3.23453 2.41177,-3.23453 2.41177,-3.23453l0.20766,0.46095c0.22933,-0.18454 1.14026,-0.91762 2.2458,-1.80722c-2.19956,0.0326 -4.87115,0.81193 -5.95355,-1.48934c-4.36324,-9.27663 4.51101,-8.60159 6.39709,-8.82035c0,0 2.41177,0 2.41177,3.23453c0,0.14065 -0.00455,0.27519 -0.01328,0.40387c2.5618,-0.16358 5.15564,0.24692 7.72658,0.24692h2.9115c1.33198,0 2.41177,1.44815 2.41177,3.23453c0,1.78638 -1.07979,3.23453 -2.41177,3.23453h-2.9115c-0.36507,0 -0.73033,0.00541 -1.09572,0.01439c-3.07252,2.44383 -6.17136,4.82843 -9.23701,7.29532l-2.68935,0.46094c0,0 -2.41177,0 -2.41177,-3.23453z" fill="#55d55e" stroke="none" stroke-width="0.5" stroke-linecap="butt"/><path d="M301.01877,205.17942c-1.70537,-2.28716 0,-4.57431 0,-4.57431l2.64586,-3.48943c2.17228,-5.98925 4.08703,-13.87331 7.14153,-19.03417c2.04315,-3.45211 5.21568,-5.82489 7.72965,-8.83258c-1.22586,0.31544 -2.51517,0.245 -3.74561,-0.03271h-4.82353c-1.33198,0 -2.41177,-1.44815 -2.41177,-3.23453c0,-1.29123 0.56416,-2.40575 1.37993,-2.92439l0.81969,-0.54966c-4.16833,-3.66212 -7.64842,-4.97802 -12.82442,-4.94739c0,0 -2.41177,0 -2.41177,-3.23453c0,-3.23453 2.41177,-3.23453 2.41177,-3.23453c5.8622,0.02944 10.25121,1.49615 15.06858,5.74776l4.32187,1.57998c1.04995,0.35003 1.82804,1.62273 1.82804,3.13915c0,0.38109 -0.04915,0.7468 -0.13939,1.08632c0.21754,0.0341 0.434,0.0697 0.64853,0.10275c1.64115,0.25278 4.20885,-0.69654 4.85354,1.34327c0.94369,2.98585 -0.29674,6.66592 -1.41302,9.54268c-0.92416,2.3816 -6.15101,6.16727 -7.51407,8.47032c-0.89788,1.51704 -1.2594,3.48617 -1.90061,5.22166c-1.67751,4.54022 -3.38726,9.06068 -5.10586,13.57313l-3.14816,4.28121c0,0 -1.70538,2.28716 -3.41076,0z" fill="#55d55e" stroke="none" stroke-width="0.5" stroke-linecap="butt"/><path d="M325.38341,311.10592c0.01502,0.14161 0.02511,0.29075 0.02973,0.44783c0.09513,3.23202 -2.31476,3.35961 -2.31476,3.35961l-1.45427,0.03958c-1.7367,0.43043 -3.48548,1.80168 -5.21011,1.2913c-0.15516,-0.04592 -0.30864,-0.09805 -0.46059,-0.15583l-0.01368,0.08849l-1.06667,-0.2967l-2.36583,0.86456l-0.02826,-0.1391l-0.28594,0.22431c-3.55208,0.01919 -5.70919,-0.066 -7.97479,-0.60097l-0.01348,0.49141l-4.80949,-0.23721c-1.29595,-0.05512 -2.3339,-1.48144 -2.33391,-3.23288c0,-1.53932 0.80177,-2.82749 1.87578,-3.15437l4.63057,-1.55257l0.02396,0.12848l0.26631,-0.20083c2.42767,-0.02168 4.8649,0.2806 7.28317,-0.00624c9.11338,-1.08097 17.93149,-6.57643 27.04364,-7.77065c1.39116,-0.18232 2.82437,0.60565 4.19047,0.20876c0.57355,-0.16663 0.70383,-1.28553 1.16877,-1.76577c2.68776,-2.77619 4.48904,-3.24202 6.45284,-6.83102c0.63876,-1.16738 0.73188,-2.8023 1.44851,-3.88533c0.63251,-0.95592 2.35281,-0.7216 2.44178,-1.99406c0.0776,-1.10996 -1.46042,-1.06544 -2.19062,-1.59816c0,0 -1.70538,-2.28716 0,-4.57432c1.70537,-2.28716 3.41075,0 3.41075,0c1.20114,2.05749 3.54851,3.56042 3.6034,6.17248c0.05126,2.43902 -2.34337,3.74613 -3.35226,5.77659c-0.5987,1.20495 -0.79316,2.73461 -1.44851,3.88532c-2.72726,4.78871 -3.80622,4.61083 -7.36804,8.11641c-0.84201,0.82871 -1.38609,2.33875 -2.39244,2.71342c-1.7533,0.65275 -3.6486,-0.06644 -5.45659,0.20876c-1.51346,0.23036 -2.97636,0.87064 -4.46529,1.30145c-2.96756,0.85864 -5.91624,1.79282 -8.86417,2.67725z" fill="#55d55e" stroke="none" stroke-width="0.5" stroke-linecap="butt"/><path d="M400.75857,234.12264c-0.29244,-0.47366 -0.49917,-1.14341 -0.49917,-2.09044c0,-3.23453 2.41177,-3.23453 2.41177,-3.23453h4.34553c1.33198,0 2.41177,1.44815 2.41177,3.23453c0,1.07168 -0.38861,2.02163 -0.98716,2.61021l-1.91276,1.92396c-2.655,2.67055 -6.98785,6.0905 -9.32005,9.3045c-1.85137,2.55135 -2.70907,6.12578 -4.15476,9.11161c-1.53126,3.16253 -3.40862,4.22871 -1.53785,8.05104c0.30809,0.62948 1.01189,0.73494 1.56986,0.81859c2.69561,0.40411 5.42453,-0.08652 8.13692,-0.08652c0,0 2.41177,0 2.41177,3.23453c0,3.23453 -2.41177,3.23453 -2.41177,3.23453c-0.07381,0 -8.92164,0.03146 -9.24516,-0.08653c-4.37041,-1.59396 -6.41944,-5.0919 -5.89579,-11.86456c0.1982,-2.56343 1.8886,-4.48956 2.87026,-6.70508c1.50845,-3.4044 2.65031,-7.21827 4.6968,-10.07301c1.77068,-2.47002 4.58513,-5.04884 7.1098,-7.38283z" fill="#55d55e" stroke="none" stroke-width="0.5" stroke-linecap="butt"/><path d="M394.23699,113.1853c1.70537,2.28716 0,4.57432 0,4.57432l-1.41903,1.90243c-0.99164,1.37085 -1.94341,2.79567 -2.97489,4.11257c-0.70316,0.89773 -2.10371,1.23146 -2.22302,2.52361c-0.08109,0.87816 1.41813,-0.3231 1.97623,0.14888c0.55373,0.4683 6.46671,8.72664 6.61203,9.15683c1.9041,5.6372 -1.8814,10.67284 -2.77795,15.57958c-0.22984,1.25789 0.24241,2.63169 0,3.88533c-0.31744,1.64163 -1.0924,3.05914 -1.6386,4.58871c0,0 -1.07857,2.89306 -3.23573,1.44653c-2.15715,-1.44653 -1.07857,-4.33958 -1.07857,-4.33958c0.41947,-1.06065 1.05047,-2.01417 1.2584,-3.18194c0.2243,-1.25969 -0.23804,-2.63018 0,-3.88532c0.29766,-1.56949 1.11452,-2.87882 1.56757,-4.37998c0.69883,-2.31547 2.40691,-5.09582 1.44851,-7.23771c-1.18116,-2.63973 -3.22368,-4.39591 -4.97603,-6.38446c-1.20266,-1.36477 -3.69652,-1.62985 -3.8178,-3.73645c-0.25377,-4.40774 4.32854,-9.91546 6.39014,-12.79044l1.47799,-1.98289c0,0 1.70538,-2.28716 3.41076,0z" fill="#55d55e" stroke="none" stroke-width="0.5" stroke-linecap="butt"/><path d="M389.37773,45.19214c1.70537,-2.28716 3.41076,0 3.41076,0l2.89702,3.88532c0,0 1.70537,2.28716 0,4.57432c-1.70538,2.28716 -3.41075,0 -3.41075,0l-2.89701,-3.88533c0,0 -1.70538,-2.28716 0,-4.57431z" fill="#55d55e" stroke="none" stroke-width="0.5" stroke-linecap="butt"/><path d="M43.92659,259.22946c0,-3.23453 2.41177,-3.23453 2.41177,-3.23453l0.36994,0.34148c1.3252,-0.76138 2.55033,-2.57512 3.97559,-2.28414c6.45635,1.31811 6.24952,5.57228 3.15388,11.34968c-0.53374,0.99613 -2.15924,0.24744 -2.55082,1.35599c-0.57148,1.61781 0.65172,3.69236 0.1766,5.36529c-0.50986,1.79531 -1.93739,2.83046 -2.90609,4.24569c-1.1531,1.40745 -3.82342,3.26183 -2.88795,4.93469c1.56519,2.79894 4.26459,4.31652 5.61741,7.30795c2.11086,4.66764 2.84157,11.32304 4.67056,16.23545c1.78994,4.80752 4.99304,9.27169 7.28139,13.63487c1.71169,3.26367 2.48513,7.62127 4.8425,10.05557c1.04876,1.08297 2.57118,0.88061 3.80454,1.52484c0.88722,0.46343 1.61821,1.40715 2.52819,1.78298c2.15885,0.89164 2.54033,-1.25686 4.6858,-1.94266c0.34643,-0.11073 5.71665,-0.08653 6.34813,-0.08653c0,0 2.41177,0 2.41177,3.23453c0,3.23453 -2.41177,3.23453 -2.41177,3.23453c-1.74677,0 -3.55106,-0.68477 -5.23992,-0.08652c-2.27292,0.80514 -4.60419,2.60712 -6.90225,1.94266c-1.18041,-0.3413 -2.14787,-1.49034 -3.26585,-2.10235c-1.60289,-0.87746 -3.52388,-0.92817 -4.88651,-2.36048c-0.50148,-0.52713 -5.26354,-10.33761 -5.85996,-11.47478c-2.45776,-4.68618 -5.71182,-9.31402 -7.64649,-14.45319c-1.78116,-4.7314 -2.46404,-11.20796 -4.46329,-15.73794c-1.93519,-4.38484 -4.32816,-2.80826 -5.97064,-8.23334c-1.88715,-6.2332 1.20596,-8.08507 3.93355,-11.9846c0.62016,-0.71566 1.60845,-1.10309 1.86047,-2.14697c0.48197,-1.99634 -0.54524,-4.42897 0.1766,-6.29068c0.14014,-0.36143 0.45034,-0.74781 0.83475,-1.12l-1.6802,0.22704c0,0 -2.41177,0 -2.41177,-3.23453z" fill="#55d55e" stroke="none" stroke-width="0.5" stroke-linecap="butt"/><path d="M47.41692,108.6941c2.15715,1.44653 1.07858,4.33958 1.07858,4.33958l-1.45589,3.90499c-0.58067,1.50235 -1.02348,3.11602 -1.74199,4.50704c-0.6588,1.27543 -2.46716,1.87732 -2.35325,3.42135c0.13061,1.77025 2.71644,1.92022 2.87761,3.68594c0.45613,4.99694 -3.52665,8.32331 -5.79851,10.65864c-1.00171,1.02969 -2.49644,1.42964 -3.09942,2.91661c-0.49532,1.22152 0.10032,2.78044 0.22981,4.16004c0.15773,1.68038 0.46556,3.33091 0.63092,5.00996c0.16317,1.65684 -0.29946,3.56817 0.35403,4.99116c0.50877,1.10788 1.9866,0.64357 2.66238,1.57715c0.92957,1.28416 1.26685,3.15063 1.90028,4.72596c0,0 1.07858,2.89306 -1.07857,4.33958c-2.15715,1.44653 -3.23573,-1.44653 -3.23573,-1.44653c-0.33225,-1.0149 -0.40255,-2.27427 -0.99674,-3.04469c-0.85637,-1.11036 -2.53354,-0.92668 -3.13164,-2.30818c-0.99148,-2.29017 -0.85839,-5.17054 -1.23194,-7.77093c-0.43929,-3.05811 -1.46404,-10.28343 -0.4503,-13.03583c0.86702,-2.35403 2.9279,-3.48784 4.43366,-5.16577c1.00873,-1.12406 2.10356,-2.10474 3.10706,-3.23718c0.34962,-0.39455 1.14394,-0.78308 0.94343,-1.33373c-0.6168,-1.69394 -2.92987,-2.19967 -2.91641,-4.08472c0.03103,-4.34849 3.10934,-7.63341 4.5958,-11.49823l1.44112,-3.86566c0,0 1.07857,-2.89306 3.23573,-1.44653z" fill="#55d55e" stroke="none" stroke-width="0.5" stroke-linecap="butt"/><path d="M66.87433,-24.74369c1.70537,2.28716 0,4.57432 0,4.57432l-0.74212,-0.3445c-0.11005,1.83962 0.43516,3.9851 -0.33017,5.51887c-0.94506,1.89394 -2.90762,2.37039 -4.27844,3.71704c-2.6627,2.61575 -5.35617,5.23871 -8.29797,7.24586c-1.97028,1.3443 -4.54509,1.54858 -6.0048,3.77505c-0.30393,0.46358 0.74061,0.73833 1.07406,1.16386c0.76229,0.9728 1.30614,2.29906 2.20844,3.02513c1.55797,1.25369 3.79929,1.01538 5.03411,2.80286c0.85863,1.24291 0.06469,3.41988 0.39453,5.05547c0.29844,1.47984 1.32998,2.63654 1.46374,4.15903c0.53676,6.10974 -0.95698,14.0529 -1.41501,20.19588c0,0 -0.23997,3.21848 -2.63977,2.89663c-2.3998,-0.32185 -2.15981,-3.54033 -2.15981,-3.54033l0.95992,-12.87392c0.15222,-1.85315 0.68413,-3.70317 0.50483,-5.55196c-0.13743,-1.41697 -1.19817,-2.44439 -1.41602,-3.8431c-0.14059,-0.9026 0.91377,-2.11076 0.39454,-2.71518c-0.94273,-1.09741 -2.58652,-0.22111 -3.65694,-1.08247c-1.63428,-1.31509 -6.33697,-7.93025 -5.40856,-11.3523c1.4088,-5.19269 9.45188,-7.86041 12.56915,-10.59908c1.32881,-1.16742 2.33446,-2.91986 3.66148,-4.09091c0.86461,-0.76299 2.17229,-0.60477 2.84934,-1.65466c0.37312,-0.57859 -0.22011,-1.50118 -0.33017,-2.25177l2.15491,-4.22982c0,0 1.70538,-2.28716 3.41075,0z" fill="#55d55e" stroke="none" stroke-width="0.5" stroke-linecap="butt"/><text transform="translate(-340.07419,102.85947) rotate(-14.46034) scale(0.5,0.5)" font-size="40" xml:space="preserve" fill="#29682e" fill-rule="nonzero" stroke="none" stroke-width="1" stroke-linecap="butt" stroke-linejoin="miter" stroke-miterlimit="10" stroke-dasharray="" stroke-dashoffset="0" font-family="Sans Serif" font-weight="normal" text-anchor="start" style="mix-blend-mode: normal"><tspan x="0" dy="0">SHOOTERS VERSUS SHOOTERS TWO SHOOTERS VERSUS SHOOTERS TWO SHOOTERS VERSUS SHOOTERS TWO SHOOTERS VERSUS SHOOTERS TWO SHOOTERS VERSUS SHOOTERS TWO </tspan><tspan x="0" dy="46.150000000000006px">SHOOTERS VERSUS SHOOTERS TWO SHOOTERS VERSUS SHOOTERS TWO SHOOTERS VERSUS SHOOTERS TWO SHOOTERS VERSUS SHOOTERS TWO SHOOTERS VERSUS SHOOTERS TWO </tspan><tspan x="0" dy="46.150000000000006px">SHOOTERS VERSUS SHOOTERS TWO SHOOTERS VERSUS SHOOTERS TWO SHOOTERS VERSUS SHOOTERS TWO SHOOTERS VERSUS SHOOTERS TWO SHOOTERS VERSUS SHOOTERS TWO </tspan><tspan x="0" dy="46.150000000000006px">SHOOTERS VERSUS SHOOTERS TWO SHOOTERS VERSUS SHOOTERS TWO SHOOTERS VERSUS SHOOTERS TWO SHOOTERS VERSUS SHOOTERS TWO SHOOTERS VERSUS SHOOTERS TWO </tspan><tspan x="0" dy="46.150000000000006px">SHOOTERS VERSUS SHOOTERS TWO SHOOTERS VERSUS SHOOTERS TWO SHOOTERS VERSUS SHOOTERS TWO SHOOTERS VERSUS SHOOTERS TWO SHOOTERS VERSUS SHOOTERS TWO </tspan><tspan x="0" dy="46.150000000000006px">SHOOTERS VERSUS SHOOTERS TWO SHOOTERS VERSUS SHOOTERS TWO SHOOTERS VERSUS SHOOTERS TWO SHOOTERS VERSUS SHOOTERS TWO </tspan><tspan x="0" dy="46.150000000000006px">SHOOTERS VERSUS SHOOTERS TWO SHOOTERS VERSUS SHOOTERS TWO SHOOTERS VERSUS SHOOTERS TWO </tspan><tspan x="0" dy="46.150000000000006px">SHOOTERS VERSUS SHOOTERS TWO SHOOTERS VERSUS SHOOTERS TWO SHOOTERS VERSUS SHOOTERS TWO </tspan><tspan x="0" dy="46.150000000000006px">SHOOTERS VERSUS SHOOTERS TWO SHOOTERS VERSUS SHOOTERS TWO SHOOTERS VERSUS SHOOTERS TWO SHOOTERS VERSUS SHOOTERS TWO SHOOTERS VERSUS SHOOTERS TWO </tspan><tspan x="0" dy="46.150000000000006px">SHOOTERS VERSUS SHOOTERS TWO SHOOTERS VERSUS SHOOTERS TWO SHOOTERS VERSUS SHOOTERS TWO SHOOTERS VERSUS SHOOTERS TWO SHOOTERS VERSUS SHOOTERS TWO </tspan><tspan x="0" dy="46.150000000000006px">SHOOTERS VERSUS SHOOTERS TWO SHOOTERS VERSUS SHOOTERS TWO SHOOTERS VERSUS SHOOTERS TWO SHOOTERS VERSUS SHOOTERS TWO </tspan><tspan x="0" dy="46.150000000000006px">SHOOTERS VERSUS SHOOTERS TWO SHOOTERS VERSUS SHOOTERS TWO SHOOTERS VERSUS SHOOTERS TWO SHOOTERS VERSUS SHOOTERS TWO SHOOTERS VERSUS SHOOTERS TWO </tspan><tspan x="0" dy="46.150000000000006px">SHOOTERS VERSUS SHOOTERS TWO SHOOTERS VERSUS SHOOTERS TWO SHOOTERS VERSUS SHOOTERS TWO SHOOTERS VERSUS SHOOTERS TWO </tspan><tspan x="0" dy="46.150000000000006px">SHOOTERS VERSUS SHOOTERS TWO SHOOTERS VERSUS SHOOTERS TWO SHOOTERS VERSUS SHOOTERS TWO SHOOTERS VERSUS SHOOTERS TWO </tspan><tspan x="0" dy="46.150000000000006px">SHOOTERS VERSUS SHOOTERS TWO SHOOTERS VERSUS SHOOTERS TWO SHOOTERS VERSUS SHOOTERS TWO SHOOTERS VERSUS SHOOTERS TWO SHOOTERS VERSUS SHOOTERS TWO </tspan><tspan x="0" dy="46.150000000000006px">SHOOTERS VERSUS SHOOTERS TWO SHOOTERS VERSUS SHOOTERS TWO SHOOTERS VERSUS SHOOTERS TWO SHOOTERS VERSUS SHOOTERS TWO SHOOTERS VERSUS SHOOTERS TWO SHOOTERS VERSUS SHOOTERS TWO SHOOTERS VERSUS SHOOTERS TWO </tspan><tspan x="0" dy="46.150000000000006px">SHOOTERS VERSUS SHOOTERS TWO SHOOTERS VERSUS SHOOTERS TWO SHOOTERS VERSUS SHOOTERS TWO SHOOTERS VERSUS SHOOTERS TWO SHOOTERS VERSUS SHOOTERS TWO SHOOTERS VERSUS SHOOTERS TWO </tspan><tspan x="0" dy="46.150000000000006px">SHOOTERS VERSUS SHOOTERS TWO  OOTERS VERSUS SHOOTERS TWO SHOOTERS VERSUS SHOOTERS TWO SHOOTERS VERSUS SHOOTERS TWO SHOOTERS VERSUS SHOOTERS TWO SHOOTERS VERSUS SHOOTERS TWO SHOOTERS VERSUS SHOOTERS TWO SHOOTERS VERSUS SHOOTERS TWO </tspan><tspan x="0" dy="46.150000000000006px">SHOOTERS VERSUS SHOOTERS TWO SHOOTERS VERSUS SHOOTERS TWO SHOOTERS VERSUS SHOOTERS TWO SHOOTERS VERSUS SHOOTERS TWO SHOOTERS VERSUS SHOOTERS TWO SHOOTERS VERSUS SHOOTERS TWO </tspan><tspan x="0" dy="46.150000000000006px">SHOOTERS VERSUS SHOOTERS TWO </tspan></text><text transform="translate(5.00221,33.94001) scale(0.95183,0.90127)" font-size="40" xml:space="preserve" fill="#ffffff" fill-rule="nonzero" stroke="#000000" stroke-width="1" stroke-linecap="butt" stroke-linejoin="miter" stroke-miterlimit="10" stroke-dasharray="" stroke-dashoffset="0" font-family="Marker" font-weight="normal" text-anchor="start" style="mix-blend-mode: normal"><tspan x="0" dy="0">         SVS2 demo</tspan><tspan x="0" dy="46.150000000000006px">a top-down shooter game</tspan></text><path d="M505.43875,382.48956c-39.0143,43.92041 -106.24613,47.89759 -150.16654,8.88329c-43.92041,-39.0143 -47.89759,-106.24613 -8.88329,-150.16654c39.0143,-43.92041 106.24613,-47.89759 150.16654,-8.88329c43.92041,39.0143 47.89759,106.24613 8.88329,150.16654z" fill="#ff6679" stroke="#000000" stroke-width="20" stroke-linecap="butt"/><text transform="translate(422.34896,268.98299) rotate(131.61456) scale(2.59438,2.59438)" font-size="40" xml:space="preserve" fill="#000000" fill-rule="nonzero" stroke="none" stroke-width="1" stroke-linecap="butt" stroke-linejoin="miter" stroke-miterlimit="10" stroke-dasharray="" stroke-dashoffset="0" font-family="Sans Serif" font-weight="normal" text-anchor="start" style="mix-blend-mode: normal"><tspan x="0" dy="0">3</tspan></text><path d="M-14.49648,385.47825c-44.28634,-39.23779 -48.37901,-106.94742 -9.14123,-151.23377c39.23779,-44.28634 106.94742,-48.37901 151.23377,-9.14123c44.28634,39.23779 48.37901,106.94742 9.14123,151.23377c-39.23779,44.28634 -106.94742,48.37901 -151.23377,9.14123z" fill="#669bff" stroke="#000000" stroke-width="20" stroke-linecap="butt"/><text transform="translate(99.71806,301.64484) rotate(-138.45897) scale(2.61301,2.61301)" font-size="40" xml:space="preserve" fill="#000000" fill-rule="nonzero" stroke="none" stroke-width="1" stroke-linecap="butt" stroke-linejoin="miter" stroke-miterlimit="10" stroke-dasharray="" stroke-dashoffset="0" font-family="Sans Serif" font-weight="normal" text-anchor="start" style="mix-blend-mode: normal"><tspan x="0" dy="0">9</tspan></text><path d="M62.50848,247.47746l51.82851,45.92015" fill="none" stroke="#000000" stroke-width="10" stroke-linecap="round"/></g></g></svg>