<svg version="1.1" xmlns="http://www.w3.org/2000/svg" xmlns:xlink="http://www.w3.org/1999/xlink" width="498.4985" height="274.3424" viewBox="0,0,498.4985,274.3424"><g transform="translate(2.45133,-90.66066)"><g data-paper-data="{&quot;isPaintingLayer&quot;:true}" fill="#000000" fill-rule="nonzero" stroke="none" stroke-width="0" stroke-linecap="butt" stroke-linejoin="miter" stroke-miterlimit="10" stroke-dasharray="" stroke-dashoffset="0" style="mix-blend-mode: normal"><path d="M240,230.3003c-36.90191,0 -66.81682,-12.10042 -66.81682,-27.02703c0,-14.92662 29.91491,-27.02703 66.81682,-27.02703c36.90191,0 66.81682,12.10042 66.81682,27.02703c0,14.92662 -29.91491,27.02703 -66.81682,27.02703z"/><path d="M239.24925,192.76276c-19.90216,0 -36.03604,-22.85633 -36.03604,-51.05105c0,-28.19472 16.13389,-51.05105 36.03604,-51.05105c19.90216,0 36.03604,22.85633 36.03604,51.05105c0,28.19472 -16.13389,51.05105 -36.03604,51.05105z"/><path d="M173.18318,269.33934v-69.06907h133.63363v69.06907z"/><path d="M496.04717,327.46552v37.53754h-498.4985v-37.53754z" data-paper-data="{&quot;index&quot;:null}"/></g></g></svg>