<svg version="1.1" xmlns="http://www.w3.org/2000/svg" xmlns:xlink="http://www.w3.org/1999/xlink" width="408.32615" height="312.43107" viewBox="0,0,408.32615,312.43107"><g transform="translate(3.91174,-50.12012)"><g data-paper-data="{&quot;isPaintingLayer&quot;:true}" fill="#000000" fill-rule="nonzero" stroke="none" stroke-width="0" stroke-linecap="butt" stroke-linejoin="miter" stroke-miterlimit="10" stroke-dasharray="" stroke-dashoffset="0" style="mix-blend-mode: normal"><path d="M134.75425,219.58821l143.33246,-143.33246l19.11099,19.11099l-143.33246,143.33246z"/><path d="M98.10811,80.9009c0,-16.99976 13.78102,-30.78078 30.78078,-30.78078c16.99976,0 30.78078,13.78102 30.78078,30.78078c0,16.99976 -13.78102,30.78078 -30.78078,30.78078c-16.99976,0 -30.78078,-13.78102 -30.78078,-30.78078z"/><path d="M276.78679,287.35736c0,-13.2681 10.75592,-24.02402 24.02402,-24.02402c13.2681,0 24.02402,10.75592 24.02402,24.02402c0,13.2681 -10.75592,24.02402 -24.02402,24.02402c-13.2681,0 -24.02402,-10.75592 -24.02402,-24.02402z"/><path d="M359.36937,212.28228c0,-12.43885 10.08368,-22.52252 22.52252,-22.52252c12.43885,0 22.52252,10.08368 22.52252,22.52252c0,12.43885 -10.08368,22.52252 -22.52252,22.52252c-12.43885,0 -22.52252,-10.08368 -22.52252,-22.52252z"/><path d="M-3.91174,362.55119v-33.03303h25.52553v33.03303z"/></g></g></svg>