<svg version="1.1" xmlns="http://www.w3.org/2000/svg" xmlns:xlink="http://www.w3.org/1999/xlink" width="349.05797" height="372.37237" viewBox="0,0,349.05797,372.37237"><g transform="translate(14.46338,7.36931)"><g data-paper-data="{&quot;isPaintingLayer&quot;:true}" fill="#000000" fill-rule="nonzero" stroke="none" stroke-width="0" stroke-linecap="butt" stroke-linejoin="miter" stroke-miterlimit="10" stroke-dasharray="" stroke-dashoffset="0" style="mix-blend-mode: normal"><path d="M-14.46338,-7.36931h37.53754v372.37237h-37.53754z"/><path d="M167.76109,179.83317c0,-44.6877 -9.71021,-80.91425 -21.68836,-80.91425c-11.97815,0 -21.68836,36.22654 -21.68836,80.91425c0,44.6877 9.71021,80.91425 21.68836,80.91425c11.97815,0 21.68836,-36.22654 21.68836,-80.91425z"/><path d="M334.59459,258.24491c0,-11.51745 -43.32246,-20.85419 -96.76343,-20.85419c-53.44097,0 -96.76343,9.33674 -96.76343,20.85419c0,11.51745 43.32246,20.85419 96.76343,20.85419c53.44097,0 96.76343,-9.33674 96.76343,-20.85419z"/></g></g></svg>