<svg version="1.1" xmlns="http://www.w3.org/2000/svg" xmlns:xlink="http://www.w3.org/1999/xlink" width="489.48949" height="481.75052" viewBox="0,0,489.48949,481.75052"><defs><radialGradient cx="239.54563" cy="174.59016" r="244.74475" gradientUnits="userSpaceOnUse" id="color-1"><stop offset="0" stop-color="#afb635"/><stop offset="1" stop-color="#93982c"/></radialGradient></defs><g transform="translate(4.74473,60.87526)"><g data-paper-data="{&quot;isPaintingLayer&quot;:true}" fill-rule="nonzero" stroke="none" stroke-linecap="butt" stroke-linejoin="miter" stroke-miterlimit="10" stroke-dasharray="" stroke-dashoffset="0" style="mix-blend-mode: normal"><path d="M-4.74473,-60.87526h489.48949v481.75052h-489.48949z" fill="url(#color-1)" stroke-width="0"/><path d="M372.758,0.56548c-3.22134,0 -3.22134,-2.35916 -3.22134,-2.35916l0.34008,-2.47197c2.26732,-3.32096 4.33639,-9.26637 11.6389,-8.26761c1.84783,0.25272 1.82737,2.45842 3.1939,3.40374c1.71515,1.18647 4.22113,1.58147 6.10927,2.61751c2.95974,1.62405 5.37467,3.73798 8.32358,5.37256c0.37316,0.20684 1.02298,0.19903 1.40398,0c3.71819,-1.94239 3.67231,-5.41693 6.46342,-7.80218c1.35275,-1.15604 3.54916,-1.68136 4.85771,-2.86437c0.56834,-0.51382 0.97205,-1.1042 1.32732,-1.71711l-0.75546,-0.18442c-1.31632,-0.29647 -2.27313,-1.19406 -2.27313,-2.2553c0,-1.30293 1.44225,-2.35916 3.22134,-2.35916h2.85513c0.86867,-0.71428 1.73734,-1.42857 2.606,-2.14284c0,0 2.27784,-1.66818 4.55566,0c2.27784,1.66818 0,3.33635 0,3.33635c-0.43243,0.29435 -0.86487,0.5887 -1.2973,0.88304c2.83343,1.06992 7.75282,3.57004 7.87973,3.78731c0.68153,1.16678 -1.72806,2.31116 -1.76943,3.57986c-0.02313,0.7091 1.06311,1.18586 1.59466,1.77878l-2.53816,4.14014c0,0 -2.27784,1.66818 -4.55566,0c-2.27784,-1.66818 0,-3.33635 0,-3.33635l1.33132,1.30631c-0.75828,-1.29629 -2.2336,-2.47897 -2.27482,-3.88888c-0.02527,-0.86417 2.16215,-1.22462 2.10005,-2.08779c-0.03956,-0.54978 -1.53877,0.11647 -2.25408,-0.05285c-0.87351,-0.20677 -1.70633,-0.50153 -2.50837,-0.83572c-0.62736,1.05741 -1.25962,2.11251 -2.22819,3.00918c-1.28976,1.19402 -3.47425,1.728 -4.85771,2.86437c-3.77404,3.1 -2.58695,7.18459 -9.01451,9.20078c-1.9411,0.60888 -4.37309,0.57201 -6.33499,0c-2.00713,-0.58519 -3.09035,-2.21603 -4.74736,-3.23117c-2.34094,-1.43414 -4.72063,-2.85708 -7.3219,-4.02615c-1.43696,-0.64581 -3.30257,-0.85347 -4.45375,-1.75556c-0.72019,-0.56435 -0.10368,-1.61487 -0.67558,-2.26391c-0.23329,-0.26474 -0.39492,0.56017 -0.57297,0.847c-0.45685,0.73595 -0.85913,1.48995 -1.33132,2.2207c-0.61684,0.95461 -1.28983,1.88922 -1.93474,2.83382l0.34008,0.36187c0,0 0,2.35916 -3.22134,2.35916z" fill="#7e8226" stroke-width="0.5"/><path d="M432.73496,105.41707c-3.22134,0 -3.22134,-2.35916 -3.22134,-2.35916v-2.83382c0.0844,-3.30649 1.36072,-7.67971 4.813,-10.16966c1.32415,-0.95504 3.17278,-1.4536 4.91456,-1.92831c1.40679,-0.38341 3.40023,0.18739 4.42369,-0.61676c0.97205,-0.76375 -0.66561,-2.37919 0.33546,-3.12258c0.90569,-0.67256 2.95744,0.66794 3.86948,0c0.91204,-0.66794 -1.01559,-2.2515 0,-2.83382c0.90866,-0.52102 2.89014,-0.83372 5.06988,-0.90081c-0.62537,-0.19088 -1.2473,-0.38864 -1.87602,-0.57281c-5.75016,-1.68446 -11.53831,-3.10447 -17.41264,-4.5385c0,0 -3.05604,-0.74603 -2.03736,-2.98413c1.01868,-2.2381 4.07472,-1.49207 4.07472,-1.49207c7.22486,1.76372 14.26072,3.70518 21.37148,5.69053c2.26137,0.63139 5.19729,0.5263 6.80684,1.84989c1.86169,1.53093 4.05284,4.12017 2.56434,5.85635c-0.46983,0.548 -9.81679,1.44749 -12.41394,1.11887c-0.60775,-0.0769 -1.29693,-1.08776 -1.59165,-0.69098c-0.61635,0.82978 0.91204,2.16589 0,2.83382c-0.91204,0.66794 -2.94981,-0.66231 -3.86948,0c-0.82979,0.59758 1.17946,1.95825 0.33546,2.54507c-2.63003,1.82859 -7.47947,1.21957 -10.00917,3.12258c-2.13118,1.60321 -3.00446,4.74615 -2.92597,6.8333v2.83382c0,0 0,2.35916 -3.22134,2.35916z" fill="#7e8226" stroke-width="0.5"/><path d="M417.08115,196.20886c1.38554,-0.67529 3.4163,-0.04502 4.93872,-0.53749c0.53147,-0.17192 -1.12399,-0.28057 -1.5719,-0.55159c-2.1225,-1.28432 -4.26197,-2.59224 -6.67581,-3.56212c-1.45597,-0.58501 -2.81576,-1.28088 -4.11256,-2.04382l-0.14381,0.17554l-5.47393,-2.40531c-0.96502,-0.4075 -1.6146,-1.17079 -1.6146,-2.04521c0,-1.30293 1.44225,-2.35916 3.22134,-2.35916h5.80422c0.09672,0 0.43129,-0.00058 0.91531,-0.00104c0.02296,-0.03692 0.04725,-0.07417 0.07292,-0.11176c1.44062,-2.1101 4.32188,-1.05504 4.32188,-1.05504c1.28983,0.4723 2.57965,0.94461 3.86948,1.41691l3.80706,1.39406c1.0896,0.37828 1.84314,1.19117 1.84314,2.13295c0,1.30293 -1.44225,2.35916 -3.22134,2.35916c-0.54104,0 -1.05094,-0.09769 -1.49859,-0.27028l-3.64043,-1.33304c-0.31476,0.01862 -0.62997,0.03589 -0.94634,0.05179c3.81004,1.53431 6.12868,1.736 8.69865,4.89752c1.25393,1.54256 3.26966,3.46803 2.29758,5.11607c-0.5016,0.8504 -1.74889,1.13355 -3.10152,1.36275c0.73394,0.31703 1.41199,0.90281 1.41199,1.98518c0,2.35916 -3.22134,2.35916 -3.22134,2.35916h-9.67371c-1.7791,0 -3.22134,-1.05623 -3.22134,-2.35916c0,-1.30293 1.44225,-2.35916 3.22134,-2.35916h2.34726c0.3373,-0.82011 0.41059,-1.80083 1.34633,-2.25691z" fill="#7e8226" stroke-width="0.5"/><path d="M375.34087,270.25368c0,-0.16289 0.01536,-0.31452 0.04395,-0.4557c-3.11736,-2.75939 -2.49944,-6.12777 1.48383,-8.63569c1.17142,-0.73754 3.15355,0.10214 4.62189,-0.24941c1.18678,-0.28414 1.85093,-1.3437 3.05401,-1.58835c1.48847,-0.30268 3.09301,0.10186 4.63421,0.02496c0.44143,-0.02203 -0.89048,-0.07112 -1.3014,-0.19125c-1.25038,-0.36555 -2.49444,-0.75886 -3.65558,-1.25791c-1.79822,-0.77288 -3.47434,-1.68663 -5.07085,-2.67808l-0.0946,0.13858l-3.80706,-1.39406c-1.0896,-0.37828 -1.84314,-1.19117 -1.84314,-2.13295c0,-1.30293 1.44225,-2.35916 3.22134,-2.35916c1.28983,0 8.38388,0 9.67371,0c0,0 3.22134,0 3.22134,2.35916c0,1.25404 -0.91024,1.84149 -1.76299,2.11667c3.00783,1.2564 10.20774,3.05498 7.27251,7.3706c-1.25985,1.85235 -5.31966,1.41717 -7.86643,2.31368c-1.3557,0.47723 -2.35382,1.46964 -3.79275,1.79058c-0.99987,0.22301 -2.09709,-0.41658 -3.11708,-0.24941c-0.84537,0.13856 -0.35982,1.59793 0.41707,1.87859c1.68237,0.60779 3.59144,0.79489 5.38716,1.19233l0.41499,0.46262l0.16929,-0.12398l3.86948,2.83382c0.58295,0.42692 0.94351,1.01671 0.94351,1.66818c0,1.30293 -1.44225,2.35916 -3.22134,2.35916h-3.86948v-0.09363c-0.41095,0.00508 -0.82187,-0.02054 -1.23276,-0.08595c-2.18546,-0.34792 -3.27638,-2.23015 -4.91456,-3.34522l0.3431,0.69098c0,0 -3.22134,0 -3.22134,-2.35916z" fill="#7e8226" stroke-width="0.5"/><path d="M414.9792,330.92969c1.73944,-1.27388 3.47888,-0.6022 4.20398,-0.2135c0.52913,-0.29355 1.18589,-0.47014 1.89858,-0.47726l3.64456,-0.0424c1.69168,-0.44463 3.40509,-0.8476 5.07166,-1.34034c1.28054,-0.37861 3.08883,-0.39062 3.75948,-1.27469c0.47908,-0.63155 -0.59104,-1.45368 -1.32133,-1.93938c-1.8319,-1.21836 -4.53269,-1.45899 -6.74602,-2.26946c0,0 -2.88126,-1.05504 -1.44062,-3.16514c1.44062,-2.1101 4.32188,-1.05504 4.32188,-1.05504c5.15312,1.88695 13.93757,3.62494 11.28006,9.9603c-0.89609,2.13622 -5.59089,3.65492 -9.51383,4.6768c0.00959,0.07412 0.01448,0.14926 0.01448,0.22522c0,0.24684 -0.05176,0.48483 -0.14778,0.70846c0.09601,0.22363 0.14778,0.46161 0.14778,0.70846c0,1.30293 -1.44225,2.35916 -3.22134,2.35916h-3.86948c-0.25554,0 -0.50414,-0.02179 -0.74251,-0.06298c-1.68301,0.0929 -3.04499,-1.06896 -4.5676,-1.603l-2.77194,-1.85883c0,0 -2.27784,-1.66818 0,-3.33635z" fill="#7e8226" stroke-width="0.5"/><path d="M329.36495,19.62001c0.41948,-0.56291 1.22327,-1.10223 2.76349,-1.10223c3.22134,0 3.22134,2.35916 3.22134,2.35916l-0.94351,4.50201c-2.61363,0.11288 -5.44835,1.11736 -7.84088,0.33864c-1.90866,-0.62122 -2.35998,-2.543 -3.21731,-3.93784c-2.4425,-3.97386 -3.9413,-8.88919 0.6983,-12.48939c3.14091,-2.43725 9.13725,-3.08925 13.20773,-3.96198c0.53958,-0.11569 -0.91457,-0.57941 -1.47624,-0.59748c-1.86,-0.05983 -3.72252,0.06852 -5.58417,0.08533c-1.28972,0.01164 -2.57965,0 -3.86948,0c0,0 -3.22134,0 -3.22134,-2.35916c0,-2.35916 3.22134,-2.35916 3.22134,-2.35916c2.00517,0 10.69129,-0.01507 11.17069,0.08533c4.29355,0.89917 8.67364,4.10634 4.98579,7.904c-2.26609,2.33357 -10.68978,2.45792 -13.87864,4.5395c-2.93252,1.91425 -0.44308,4.60778 0.7629,6.99329z" fill="#7e8226" stroke-width="0.5"/><path d="M381.48518,76.49842c1.44062,-2.1101 4.32188,-1.05504 4.32188,-1.05504l2.42885,1.16785c1.69916,-0.77497 2.09472,-2.53519 3.52639,-3.55976c0.87374,-0.62529 2.41721,-0.46469 3.40707,-0.98902c1.11028,-0.5881 -1.72784,-1.56521 -2.72089,-2.25666c-1.55901,-1.08552 -2.97584,-2.27598 -4.29385,-3.5281l-0.26182,0.19174l-3.86948,-2.83382c-0.58295,-0.42692 -0.94351,-1.01671 -0.94351,-1.66818c0,-1.30293 1.44225,-2.35916 3.22134,-2.35916h3.86948c0,0 3.22134,0 3.22134,2.35916c0,0.77367 -0.34645,1.29362 -0.81211,1.64306c5.35709,1.86752 10.84977,6.78106 8.06997,10.93253c-0.73543,1.09834 -3.1622,0.97152 -4.33188,1.84481c-1.00983,0.75393 -0.82777,2.15697 -1.93474,2.83382c-1.73683,1.06197 -4.09821,1.40527 -6.14732,2.10789l-5.31011,-1.66597c0,0 -2.88126,-1.05504 -1.44062,-3.16514z" fill="#7e8226" stroke-width="0.5"/><path d="M286.34277,169.65284c0,-2.35916 3.22134,-2.35916 3.22134,-2.35916h3.21877c-1.89995,-0.28072 -3.99081,-0.60746 -4.02427,-0.6513c-1.05542,-1.38257 1.21039,-3.05066 1.53982,-4.61613c0.32914,-1.56415 0.38826,-3.19719 -0.04458,-4.74774c-0.78253,-2.80318 -2.75336,-5.36602 -3.74577,-8.13335c-0.7154,-1.99487 -3.09222,-4.23467 -1.75996,-6.05182c1.41246,-1.92656 5.30782,-2.06648 8.16948,-2.69057c0.87137,-0.19004 1.91902,0.67252 2.69192,0.32187c0.75836,-0.34405 0.49803,-1.25471 0.74704,-1.88205c0,0 1.44062,-2.1101 4.32188,-1.05504c2.88126,1.05504 1.44062,3.16514 1.44062,3.16514c-1.04082,1.26187 -1.4629,2.95122 -3.12244,3.7856c-1.3922,0.69997 -3.36303,0.22957 -5.04705,0.32187c-1.14497,0.06276 -3.03536,-0.64394 -3.43896,0.14327c-0.46338,0.90377 1.57658,1.5667 2.10952,2.44966c0.82452,1.36605 1.29614,2.8323 1.93474,4.25074c1.13737,2.52629 2.11805,5.17056 2.10005,7.8306c-0.00535,0.78946 0.48298,2.4211 -0.13716,3.46797c2.29732,0.53862 5.21816,1.21826 5.77608,2.87057c2.17603,6.44449 -4.711,5.67623 -8.86025,5.93902h-3.86948c0,0 -3.22134,0 -3.22134,-2.35916z" fill="#7e8226" stroke-width="0.5"/><path d="M320.51999,257.97612c1.49697,0 2.2983,0.50947 2.72724,1.05488c0.07184,-0.71239 0.15946,-1.41989 0.26209,-2.12326c-1.84667,0.6234 -3.69853,1.11842 -6.34281,1.50549c-1.43354,0.20984 -2.96391,0.28016 -4.38549,0.03046c-0.07196,-0.01265 -0.14999,-0.04189 -0.23088,-0.08298c3.60657,3.65255 5.20914,8.2667 7.72596,12.41263c4.9187,8.10257 11.08293,15.90882 14.90838,24.31388l-5.48489,2.78098c0,0 -2.88126,1.05504 -4.32188,-1.05504c-1.44062,-2.1101 1.44062,-3.16514 1.44062,-3.16514l2.25408,-0.05285c-3.30896,-1.9417 -4.76429,-5.43277 -6.61767,-8.14786c-4.37587,-6.41041 -8.59618,-12.98552 -12.03507,-19.69861c-1.00739,-1.96655 -5.14697,-9.37755 -4.15583,-11.00793c0.90334,-1.48595 4.31651,-0.7958 6.51719,-1.01539c4.47142,-0.44617 7.75657,-1.00733 11.89111,-2.5075c0.9315,-3.56963 2.21344,-7.08304 3.73939,-10.64603c1.70327,-3.97699 2.06622,-7.35467 8.28836,-9.33749c3.77891,-1.20423 9.98979,-0.16959 13.04602,1.83285c1.54969,1.01535 2.09242,2.65858 3.48743,3.78784c2.64771,2.14335 6.77489,2.97803 9.98669,4.65767c1.18096,0.61759 1.6434,1.85067 2.90693,2.37331c0.51995,0.21507 -0.33776,-0.8575 -0.29716,-1.29382c0.09594,-1.0309 0.45987,-2.03898 0.70207,-3.05692c0.3526,-1.48189 0.90325,-2.94402 1.08231,-4.44252c0.29149,-2.4395 -0.01227,-4.89766 -0.01227,-7.34649c0,0 0,-2.35916 3.22134,-2.35916c3.22134,0 3.22134,2.35916 3.22134,2.35916c0,1.1681 0.00236,7.63549 -0.01227,7.75781c-0.19537,1.63508 -0.76248,3.23483 -1.1557,4.8507c-0.48274,1.9837 -1.19227,7.59863 -5.09604,8.09149c-2.86986,0.36233 -5.21469,-1.90002 -7.81436,-2.8612c-4.901,-1.81205 -7.61653,-2.49977 -11.50886,-5.56323c-2.27308,-1.78903 -4.17829,-6.11005 -9.29197,-4.42834c-3.4574,1.13702 -3.71681,4.20066 -4.59315,6.35888c-1.0261,2.52707 -2.43321,4.98034 -3.16921,7.56108c-0.16845,0.59069 -1.66385,8.96496 -1.82374,9.34664c-0.88923,2.12257 -2.42311,4.07043 -3.63467,6.10564c-2.18389,-0.33449 -4.36777,-0.66899 -6.55166,-1.00348l-2.09435,-3.62698c0,0 0,-2.35916 3.22134,-2.35916zM323.15075,260.11163l-1.50377,-0.5695c0.48662,0.39589 0.97323,0.79178 1.45985,1.18767c0.0133,-0.2065 0.02795,-0.41255 0.04393,-0.61817z" fill="#7e8226" stroke-width="0.5"/><path d="M312.92886,150.68693c2.68033,-1.30863 4.46721,0.65432 4.46721,0.65432l0.29572,0.32486c7.25586,7.98846 11.49753,16.88631 17.30479,25.41419c1.77486,2.60634 4.20795,4.44943 5.86269,7.17279c0.68291,1.12392 0.10442,2.69393 1.28595,3.56835c1.15288,0.85322 3.35212,0.28984 4.75915,0.90551c0.02349,0.01028 0.04694,0.02237 0.07032,0.03612c-1.10386,-2.7665 0.07494,-5.47678 0.56362,-8.57187c0.11913,-0.75445 0.22354,-1.51048 0.31314,-2.2676c-1.80425,-1.84816 -3.80005,-3.73888 -5.99812,-4.94002c-1.9226,-1.05061 -7.59179,-2.03123 -8.59565,-3.50739c-1.07834,-1.5857 -1.32119,-3.83052 0,-5.3144c1.56999,-1.7633 4.8273,-2.34354 7.50303,-3.11249c2.31112,-0.66417 5.59648,0.19265 7.4938,-0.81484c0,-0.49797 0,-0.99594 0,-1.49391l-1.59466,-2.20181c0,0 -1.44062,-2.1101 1.44062,-3.16514c0.05181,-0.01897 0.10315,-0.03692 0.15403,-0.05387c0,-1.32848 0,-2.65695 0,-3.98543c0,-1.39916 -0.14754,-10.02565 0.56962,-10.77616c4.98292,-5.21461 9.5551,-0.99527 13.82512,0.66851c3.09214,1.20483 6.63212,1.69959 9.75223,2.86511c2.49864,0.93337 4.09495,2.842 6.45005,3.95775c0.73344,0.34748 0.42368,-1.26315 0.35884,-1.90112c-0.16077,-1.58168 -0.60508,-3.20181 -1.59466,-4.6126c-0.65892,-0.93941 -1.28983,-1.88922 -1.93474,-2.83382c0,0 -1.44062,-2.1101 1.44062,-3.16514c2.88126,-1.05504 4.32188,1.05504 4.32188,1.05504c0.64491,0.94461 1.30169,1.88492 1.93474,2.83382c2.48639,3.72691 6.02442,13.94635 -5.10529,13.32307c-2.70891,-0.1517 -4.55861,-2.16638 -6.79767,-3.29329c-3.70457,-1.86451 -8.01099,-2.40751 -11.82541,-4.05299c-1.52574,-0.65819 -2.66124,-1.74878 -4.22233,-2.3609c-0.38999,-0.15292 -1.23448,-0.12482 -1.29995,0.19558c-0.54613,2.67286 0.56962,5.39451 0.56962,8.09713c0,3.34133 0,6.68265 0,10.02399c0.08819,0.72553 0.17729,1.45127 0,2.11439c0,3.1943 0,6.38861 0,9.58291c-0.00202,1.85189 -0.08567,3.70548 -0.25147,5.55484c0.51846,0.52799 1.03091,1.04631 1.54194,1.54532c0,0 1.93281,1.88733 -0.64427,3.30282c-0.56499,0.31032 -1.09899,0.4619 -1.58847,0.50943c-0.29595,2.08368 -0.54153,4.17252 -0.99778,6.23995c-0.4519,2.04778 0.68845,4.82575 -1.52248,6.12233c-0.87367,0.51235 -13.30581,-2.92567 -13.6451,-3.17247c-1.70623,-1.24111 -1.54315,-3.3453 -2.58354,-4.93313c-0.87841,-1.34062 -2.1039,-2.54368 -3.15038,-3.81794c-7.41354,-9.02712 -11.47396,-19.30054 -19.52448,-28.12337l-0.29572,-0.32486c0,0 -1.78688,-1.96294 0.89345,-3.27157zM338.73814,166.64238c-0.85071,0.30901 1.69706,0.62639 2.56987,0.90036c1.48361,0.46569 3.02293,0.9021 4.3124,1.61316c0.92585,0.51055 1.80025,1.09025 2.63407,1.71608c0,-1.95153 0,-3.90305 0,-5.85458c-3.27477,0.581 -6.98896,0.70693 -9.51634,1.62498z" fill="#7e8226" stroke-width="0.5"/><path d="M277.61258,355.51975c-2.27784,-1.66818 0,-3.33635 0,-3.33635l2.77194,-1.85883c0.75136,-0.01762 1.60599,0.22613 2.25408,-0.05285c0.37091,-0.15967 -0.76765,-0.28486 -1.15654,-0.41962c-1.67239,-0.57947 -3.69237,-0.32857 -5.46113,-0.72593h-3.86948c-1.7791,0 -3.22134,-1.05623 -3.22134,-2.35916c0,-1.30293 1.44225,-2.35916 3.22134,-2.35916h3.3205c2.20047,-0.77802 4.84026,-3.45385 3.37708,-5.23951c-0.72837,-0.8889 -2.31582,-1.24246 -3.17118,-2.06846l-3.86948,-2.83382c-0.58295,-0.42692 -0.94351,-1.01671 -0.94351,-1.66818c0,-1.30293 1.44225,-2.35916 3.22134,-2.35916h3.86948v1.85663l2.27784,1.66818l-4.55566,3.33635c-1.74821,-1.6882 -3.04519,-3.60321 -4.56778,-5.40482l6.84561,-1.45635c0,0 3.22134,0 3.22134,2.35916c0,0.74789 -0.32375,1.25869 -0.76597,1.60756c5.19212,1.90522 6.20131,7.00963 3.37969,11.02605c3.23021,1.58996 5.7234,4.32089 4.95993,6.5323c-0.54509,1.57885 -3.65659,1.85399 -5.48489,2.78098l-1.09754,0.97499c0,0 -2.27784,1.66818 -4.55566,0z" fill="#7e8226" stroke-width="0.5"/><path d="M232.17003,295.75812c0,-2.35916 3.22134,-2.35916 3.22134,-2.35916l2.17593,0.35234c0.59072,-1.20043 -1.54548,-2.38489 -1.52778,-3.66083c0.02468,-1.77825 2.6674,-3.41147 2.02092,-5.12563c-0.53576,-1.42057 -2.16268,-2.8934 -4.00104,-4.25872l-0.10865,0.15914l-3.80706,-1.39406c-1.0896,-0.37828 -1.84314,-1.19117 -1.84314,-2.13295c0,-1.30293 1.44225,-2.35916 3.22134,-2.35916h2.85513c0.86867,-0.71428 1.73734,-1.42857 2.606,-2.14284c0,0 2.27784,-1.66818 4.55566,0c2.27784,1.66818 0,3.33635 0,3.33635c-0.76156,0.51838 -1.52313,1.03677 -2.28471,1.55514c3.86059,2.24921 6.04141,6.83053 5.07677,10.07092c-0.25807,0.8669 -1.86348,1.40461 -1.84856,2.2918c0.01776,1.05603 2.14279,1.78877 1.93474,2.83382c-0.35883,1.80248 -2.30835,3.2271 -3.46252,4.84065l-5.56304,0.35234c0,0 -3.22134,0 -3.22134,-2.35916z" fill="#7e8226" stroke-width="0.5"/><path d="M231.1788,227.49501c0.93132,-0.68205 1.86263,-0.80638 2.63827,-0.71502c0.63347,-1.16804 1.32419,-2.30066 2.12941,-3.36435c1.08098,-1.42797 2.82049,-2.52921 4.21438,-3.80348c0.57534,-0.52597 1.93451,-0.94664 1.69304,-1.59695c-0.72206,-1.94464 -3.95189,-2.87178 -5.33328,-4.6147c-1.46763,-1.85172 -2.807,-3.75822 -4.22441,-5.63091c-0.57341,0.65107 -1.57249,1.08214 -2.70906,1.08214c-1.44909,0 -2.67469,-0.70073 -3.07953,-1.66474l-1.91125,-4.19913l0.09393,-0.02293c-0.07507,-0.11406 -0.14769,-0.22909 -0.21765,-0.3452c-1.13162,-1.87801 0.68917,-3.63901 0.04458,-5.50353c-0.64737,-1.87256 -2.43601,-3.42691 -3.61557,-5.15462l-0.34008,-2.47197c0,0 0,-2.35916 3.22134,-2.35916c3.22134,0 3.22134,2.35916 3.22134,2.35916l-0.34008,0.36187c1.74152,2.55082 3.39427,4.94108 4.01427,7.37506c1.28547,0.05389 2.36904,0.65979 2.81557,1.499l2.37131,4.17138c2.75667,3.23193 4.9924,6.61478 7.91122,9.7408c1.53909,1.64835 4.1376,3.02363 4.49971,5.00283c0.56305,3.07751 -5.04969,5.91634 -6.70288,8.07311c-1.00238,1.30771 -1.82351,2.73585 -2.57677,4.21081l0.21306,0.15868c1.28983,0.4723 2.71582,0.78325 3.86948,1.41691c1.23417,0.67789 5.51347,5.05171 8.49213,3.98501c3.48067,-1.24648 1.88089,-5.75843 1.88089,-7.75299c0,-6.13523 0,-12.27047 0,-18.4057c0,0 0,-2.35916 3.22134,-2.35916c3.22134,0 3.22134,2.35916 3.22134,2.35916c0,6.13523 0,12.27047 0,18.4057c0,1.57278 0.04819,3.14594 0,4.71832c-0.03358,1.09576 0.50589,2.33521 -0.24521,3.28323c-2.95409,3.72854 -5.93982,5.08199 -11.45521,4.22707c-4.65997,-0.72233 -7.52922,-3.67124 -11.39727,-5.4835c-0.7173,1.46393 -1.47978,2.90116 -2.39404,4.2425c0,0 -1.44062,2.1101 -4.32188,1.05504c-2.88126,-1.05504 -1.44062,-3.16514 -1.44062,-3.16514c1.17437,-1.71711 2.10392,-3.57315 3.00268,-5.44275l-0.46452,-0.3355c0,0 -2.27784,-1.66818 0,-3.33635z" fill="#7e8226" stroke-width="0.5"/><path d="M264.75559,78.71911c2.27784,1.66818 0,3.33635 0,3.33635l-0.99123,-0.25127c0,0.94461 0,1.88922 0,2.83382c-0.04809,2.83964 2.5416,5.76712 1.32669,8.46399c-0.44107,0.97909 -3.00252,-0.24746 -4.20494,0.28875c-0.52678,0.23492 0.85822,0.7183 0.94351,1.16565c0.23811,1.24894 0.0059,2.52211 0,3.78316c-0.00796,1.69876 0.32872,3.41924 -0.04159,5.09622c-0.5664,2.56497 -3.1169,4.71684 -3.91406,7.24869c-0.63055,2.00263 1.28412,4.00133 1.93474,6.00052c0.99547,3.05878 0.83131,9.44481 0,12.41936c-0.24246,0.86756 -4.6711,6.82754 -5.31109,7.13245c-1.56019,0.74331 -3.70322,0.40612 -5.56304,0.35234c-2.07149,-0.0599 -4.68141,0.38258 -6.14732,-0.69098c-1.4659,-1.07356 -0.62901,-3.00133 -0.94351,-4.50201c0,0 0,-2.35916 3.22134,-2.35916c3.22134,0 3.22134,2.35916 3.22134,2.35916c-0.31451,0.38855 -1.37962,0.84626 -0.94351,1.16565c0.43612,0.31939 0.97948,-0.63595 1.59165,-0.69098c0.73729,-0.06627 1.57155,0.66863 2.17593,0.35234c0.72581,-0.37984 0.39946,-1.28036 0.74704,-1.88205c1.93808,-3.35498 3.01795,-8.86457 1.68083,-12.57206c-0.36825,-1.02109 -1.68828,-1.79326 -1.93474,-2.83382c-0.41499,-1.7521 -0.42964,-3.58458 0,-5.33479c0.60126,-2.44936 3.30967,-4.46059 3.82491,-6.92044c0.29955,-1.43011 -0.03418,-2.8936 -0.04159,-4.34042c-0.00749,-1.46127 -0.25222,-7.16001 0.94351,-8.28516c0.72801,-0.68504 3.14937,1.10984 3.53402,0.28875c0.45699,-0.97549 -2.06422,-1.51301 -2.50119,-2.49342c-0.45363,-1.01778 -0.02773,-2.14115 -0.04159,-3.21172c0,-0.94461 0,-1.88922 0,-2.83382l2.87824,-3.08509c0,0 2.27784,-1.66818 4.55566,0z" fill="#7e8226" stroke-width="0.5"/><path d="M231.1788,3.62272c2.27784,-1.66818 4.55566,0 4.55566,0l2.53816,2.03004c2.24901,3.29929 4.45321,6.78992 6.00934,10.29771c0.15393,0.34699 0.29455,0.69491 0.42469,1.04353c0.44793,0.01565 0.88269,0.07269 1.29191,0.2081c2.65647,0.87896 5.50207,1.909 7.18273,3.65327c2.49596,2.59045 0.48994,7.37213 -2.55319,9.11296c-0.22305,0.12759 -0.46824,0.21017 -0.72938,0.26122c1.60985,2.736 3.9564,6.17087 6.5088,6.71616c0.53504,0.11431 0.21452,-0.86887 0.64222,-1.13057c1.44926,-0.88677 3.59653,-1.13684 4.8027,-2.20106c2.256,-1.99048 0.82752,-5.34686 1.31502,-7.44738c0.37054,-1.59666 1.35914,-3.08243 2.05845,-4.61888c1.13174,-2.48649 1.79759,-5.13454 1.76943,-7.75545c0,0 0,-2.35916 3.22134,-2.35916c3.22134,0 3.22134,2.35916 3.22134,2.35916c-0.01386,1.54288 0.30404,3.10663 -0.04159,4.62864c-0.66916,2.94664 -3.21302,5.5533 -3.86948,8.50148c-0.99386,4.46343 1.95864,5.11425 -2.55446,9.55558c-1.43761,1.41474 -3.9492,2.01866 -5.91858,3.03345c-1.37497,0.7085 -2.44969,2.30834 -4.11443,2.13641c-3.0565,-0.31568 -5.79159,-1.82587 -8.0205,-3.38974c-1.74253,-1.22261 -2.31713,-3.10067 -3.45255,-4.66013c-0.61564,-0.84555 -1.18089,-1.70092 -1.7058,-2.56422c-0.36378,0.1698 -0.73199,0.33309 -1.12442,0.45469c-0.82158,0.25455 -2.05121,0.01555 -2.56987,0.5471c-0.43189,0.44262 0.4364,1.05052 0.4811,1.59355c0.23415,2.8444 -0.56781,5.72423 -0.05157,8.54861c0.31573,1.72738 2.41333,3.38991 1.76317,5.06638c-0.5011,1.29209 -3.25807,1.29879 -4.58985,2.22233c-2.05956,1.42822 -1.03495,5.71209 -1.07741,7.37532l-2.18866,3.34685c0,0 -1.44062,2.1101 -4.32188,1.05504c-2.88126,-1.05504 -1.44062,-3.16514 -1.44062,-3.16514l1.68083,-2.3208c-0.13066,-3.47491 -0.92557,-6.76707 2.79208,-9.62763c0.7487,-0.5761 2.89025,0.16089 3.14912,-0.6115c0.31872,-0.95096 -1.83543,-1.54106 -2.10631,-2.49994c-0.02323,-0.08225 -0.08677,-8.78039 -0.05157,-9.38952c0.0787,-1.36189 -0.53385,-2.9315 0.4811,-4.07411c0.30486,-0.3432 4.03759,-1.88088 6.82837,-2.92007c-0.80845,-1.71184 -1.52873,-3.44172 -2.23349,-5.17611c-2.75942,0.05515 -5.55812,0.36032 -7.65887,0.36032c0,0 -3.22134,0 -3.22134,-2.35916c0,-2.35916 3.22134,-2.35916 3.22134,-2.35916c1.95761,0 3.91532,-0.01064 5.87296,-0.01374c-1.33052,-3.15812 -2.8121,-6.29351 -4.88473,-9.32427l-1.33132,-0.80378c0,0 -2.27784,-1.66818 0,-3.33635zM247.67013,23.29919c-0.40666,-0.34083 -0.87273,-0.62275 -1.38617,-0.85482c0.31148,1.11096 0.66628,2.2179 1.15539,3.31401c0.32922,-0.60157 0.37338,-2.33966 0.23078,-2.45919z" fill="#7e8226" stroke-width="0.5"/><path d="M171.54492,57.24201c-3.22134,0 -3.22134,-2.35916 -3.22134,-2.35916v-4.25074c0,-4.06254 -1.23046,-10.00096 0.45688,-13.81392c0.70662,-1.59679 2.71509,-2.72421 3.74016,-4.22553c1.03263,-1.5124 0.99494,-3.41532 2.39494,-4.75997c0.41519,-0.39877 9.15637,-2.72212 7.1964,-4.63602c-2.01642,-1.96903 -5.20604,-3.17049 -7.28597,-5.10378c-1.24339,-1.15572 -1.92873,-2.59897 -3.18329,-3.74821c-2.35192,-2.15446 -5.13526,-4.12537 -6.84853,-6.58182c0,0 -1.44062,-2.1101 1.44062,-3.16514c2.88126,-1.05504 4.32188,1.05504 4.32188,1.05504c1.45393,2.18901 4.05503,3.85822 6.13229,5.75854c1.25558,1.14864 1.94631,2.5888 3.18329,3.74821c1.37425,1.28806 7.51068,5.00273 8.19195,6.23152c2.24198,4.04373 -1.10608,6.20576 -4.96207,8.48432c-0.93785,0.55419 -2.60709,0.33696 -3.31945,1.04879c-1.04779,1.04699 -0.70072,2.57367 -1.47454,3.74152c-0.87469,1.32007 -2.75395,2.23916 -3.40736,3.62623c-0.57828,1.2276 -0.10928,2.59608 -0.13546,3.89454c-0.05673,2.81351 0.0009,5.63185 0.0009,8.44569v4.25074c0,0 0,2.35916 -3.22134,2.35916z" fill="#7e8226" stroke-width="0.5"/><path d="M183.64748,139.17393c-2.88126,-1.05504 -1.44062,-3.16514 -1.44062,-3.16514l1.68083,-2.3208c0.02482,-4.58198 -6.31164,-8.66624 -9.32471,-12.44299c-0.59045,-0.74011 -0.59082,-1.74954 -1.4264,-2.34977c-0.91035,-0.65394 -2.48518,-0.58266 -3.4752,-1.17124c-1.8695,-1.11146 -4.08109,-2.20364 -4.96207,-3.84487c-2.13088,-3.96977 -0.01705,-5.91271 2.02961,-9.04243c0,0 1.44062,-2.1101 4.32188,-1.05504c2.88126,1.05504 1.44062,3.16514 1.44062,3.16514c-0.56028,0.7736 -1.37689,1.47388 -1.68083,2.3208c-1.67859,4.67733 3.57145,3.83316 6.88163,6.29128c1.20474,0.89464 1.55167,2.24426 2.44308,3.31788c3.10654,3.74154 8.46126,7.62381 10.01338,11.94925c0.45649,1.27215 0.00621,2.63068 0.00933,3.94603l-2.18866,3.34685c0,0 -1.44062,2.1101 -4.32188,1.05504z" fill="#7e8226" stroke-width="0.5"/><path d="M166.44065,220.28656l-0.01023,-0.00275c0.00771,-0.01694 0.01546,-0.03388 0.02323,-0.05081c0.06255,-0.24517 0.18542,-0.56442 0.42684,-0.87247c0.56027,-1.09643 1.17212,-2.18285 1.48467,-3.32745c0.26759,-0.97998 -0.3014,-2.03123 0.04458,-2.99796c0.30716,-0.85827 1.73351,-1.40855 1.84856,-2.2918c0.0773,-0.59337 -3.30703,-2.95257 -3.46749,-3.10936c-1.34119,-1.31047 -2.48697,-2.72233 -3.73045,-4.08349c0,0 -1.78688,-1.96294 0.89345,-3.27157c2.68033,-1.30863 4.46721,0.65432 4.46721,0.65432c2.125,2.34341 8.08292,6.78282 8.27999,9.81011c0.07989,1.22728 -1.6303,2.18094 -2.02092,3.37586c-0.28294,0.86551 0.28294,1.79702 0.04458,2.6697c-0.39147,1.4333 -1.25208,2.77537 -1.89315,4.16013v2.54653v0c0,1.30293 -1.44225,2.35916 -3.22134,2.35916c-1.7791,0 -3.22134,-1.05623 -3.22134,-2.35916v-2.83382c0,0 0,-0.15035 0.05182,-0.37515z" fill="#7e8226" stroke-width="0.5"/><path d="M136.57172,244.20321c2.68033,1.30863 0.89345,3.27157 0.89345,3.27157l-0.29572,0.32486c-1.05699,1.1003 -2.54221,2.03684 -3.17096,3.3009c-1.88942,3.79852 5.03128,9.99192 9.45882,11.22755c3.2083,0.89537 8.20922,-0.74812 11.6161,0.00171c1.91674,0.42186 5.31876,3.28671 7.87267,2.8165c1.26322,-0.23258 1.63436,-1.48563 2.45153,-2.22844c0,0 2.27784,-1.66818 4.55566,0c0.3683,0.26973 0.61749,0.53945 0.77649,0.80212c0.26036,-0.04972 0.53354,-0.07619 0.81517,-0.07619c1.58346,0 2.90007,0.8367 3.17049,1.93934l1.25181,4.58384c2.20658,3.71943 -0.08549,8.16368 0.69977,12.01524c0.3155,1.5475 1.22857,2.99715 1.84285,4.49573l0.12519,3.36329c0,0 0.06724,2.35865 -3.1534,2.40789c-3.22065,0.04924 -3.28788,-2.3094 -3.28788,-2.3094l-0.04847,-2.7292c-0.3114,-0.76373 -0.56055,-1.50318 -0.76083,-2.22616c-1.06812,5.46259 -1.91366,10.95212 -2.42864,16.38802c-0.16152,1.70483 0.22735,6.97135 0.00622,8.35489c-0.26289,1.64486 0.44145,4.02654 -1.52778,4.84065c-2.09862,0.8676 -4.73566,-0.71698 -7.00367,-1.31364c-0.9115,-0.23979 -1.46034,-1.16785 -2.42885,-1.16785c-0.96852,0 -1.58395,0.82111 -2.42885,1.16785c-1.25801,0.51628 -2.57965,0.94461 -3.86948,1.41691c0,0 -2.88126,1.05504 -4.32188,-1.05504c-1.44062,-2.1101 1.44062,-3.16514 1.44062,-3.16514c1.3341,-0.48852 8.22931,-3.08289 9.17959,-3.08289c1.50747,0 2.95115,0.51617 4.25692,1.13554c-0.60499,-3.8522 0.47235,-8.65092 1.08469,-12.25237c1.50175,-8.83234 2.64215,-17.62842 4.98024,-26.3673v-2.52099c-1.05887,0.94144 -2.11583,1.88564 -3.65773,2.13044c-2.80011,0.44456 -5.70749,-0.58865 -8.42073,-1.26281c-1.18239,-0.29379 -1.87154,-1.29474 -3.05401,-1.58835c-3.38508,-0.84051 -8.1387,0.99284 -11.60079,0.00171c-8.02803,-2.29828 -16.39298,-10.51242 -13.75808,-17.11072c0.69027,-1.72857 2.65104,-3.03391 3.97657,-4.55086l0.29572,-0.32486c0,0 1.78688,-1.96294 4.46721,-0.65432z" fill="#7e8226" stroke-width="0.5"/><path d="M178.83119,373.08862c0.93406,0.92349 1.27377,2.50994 2.80217,2.77046c1.10151,0.18775 -1.64582,-1.90908 -0.75781,-2.42199c2.51868,-1.45479 12.83306,-0.74018 15.82102,-0.69098c1.70227,0.02803 3.56144,-0.35115 5.10224,0.17958c2.4772,0.85327 3.33827,3.98355 6.07439,4.04773c1.76389,0.04138 3.45614,-0.53908 5.20676,-0.70251c1.64049,-0.15315 3.47975,0.30892 4.94996,-0.24567c0.84603,-0.31914 0.6247,-1.31669 0.93704,-1.97502c0,0 1.44062,-2.1101 4.32188,-1.05504c2.88126,1.05504 1.44062,3.16514 1.44062,3.16514c-0.97748,1.23088 -1.27113,2.95289 -2.93244,3.69262c-0.92991,0.41406 -14.12829,1.84567 -15.35503,1.7209c-5.00306,-0.5088 -3.32176,-2.76096 -7.10869,-4.289c-0.77312,-0.31196 -1.7544,0.16081 -2.63672,0.17958c-3.22321,0.06858 -6.49621,0.40204 -9.67371,0c-0.60775,-0.0769 -1.24711,-1.06561 -1.59165,-0.69098c-0.83723,0.91036 0.72969,3.11167 -0.75781,3.24566c-2.84662,0.25642 -5.27941,-1.6427 -7.91912,-2.46405l-0.65069,-0.0179c-0.05595,0.20714 -0.04315,0.40319 0.11632,0.57857c0.58739,0.64597 2.25587,0.20018 3.01279,0.74334c2.07104,1.4862 5.27925,3.0037 5.16568,5.12557c-0.09227,1.72392 -3.73907,2.09941 -5.6086,3.14911l-3.86948,1.41691c0,0 -2.88126,1.05504 -4.32188,-1.05504c-1.44062,-2.1101 1.44062,-3.16514 1.44062,-3.16514l3.86948,-1.41691c0.71013,0.1051 2.72411,0.61931 2.13036,0.31529c-2.22278,-1.13814 -5.79442,-0.98016 -7.29945,-2.63256c-0.89508,-0.98273 0.01328,-2.38924 -0.39494,-3.53209c-0.40674,-1.13869 -2.03476,-2.03172 -2.01281,-3.20861c0.02949,-1.58182 3.13859,-8.03291 5.38917,-9.25863c1.15998,-0.63175 3.01845,0.27197 4.33029,-0.17276c2.39332,-0.81136 7.16335,-6.59881 8.32939,-7.7374c0,0 1.93281,-1.88733 4.50988,-0.47183c2.57708,1.4155 0.64427,3.30282 0.64427,3.30282c-2.78591,2.72036 -6.75927,7.61061 -11.01803,9.26557c-1.00608,0.39096 -2.39966,-0.55965 -3.40867,-0.17276c-0.72362,0.27746 -0.38203,1.16529 -0.65217,1.72981c-0.40696,0.85045 -1.25359,1.63447 -1.57281,2.4889z" fill="#7e8226" stroke-width="0.5"/><path d="M80.61209,269.31143c3.22134,0 3.22134,2.35916 3.22134,2.35916v1.41691c-0.10133,1.8783 1.21143,3.72559 2.59237,5.31011c2.19979,2.66093 4.8754,5.11587 6.83603,7.87526c1.45213,2.04372 4.5648,4.12571 3.73361,6.3477c-0.59795,1.59848 -4.34722,0.94575 -6.5734,1.24386c-6.80394,0.91112 -13.93995,0.07998 -19.52092,3.95101c-3.82046,2.64992 -2.60277,3.28789 -2.54563,6.92591c0.0494,3.14534 0.09883,6.29193 0,9.43664c-0.02095,0.66652 -0.62464,1.40023 -0.21096,1.99411c0.73148,1.05012 2.30829,1.64724 3.36628,2.5357c5.61675,4.71668 12.04993,8.17273 18.81794,12.02784c0,0 2.54277,1.44838 0.56506,3.31059c-1.97771,1.86221 -4.52049,0.41383 -4.52049,0.41383c-7.08325,-4.03467 -14.05649,-7.62016 -19.77796,-12.70205c-1.47601,-1.31101 -3.51526,-2.35837 -4.47161,-3.90649c-0.68981,-1.11664 -0.18016,-2.44815 -0.21096,-3.67353c-0.07906,-3.14502 -0.04274,-6.29125 0,-9.43664c0.02447,-1.8003 -0.61984,-3.68741 0.1375,-5.40023c2.06529,-4.67092 9.5787,-8.11124 15.71325,-9.38107c2.26133,-0.46809 4.67881,-0.32543 7.01942,-0.47845c1.07394,-0.07021 2.15763,-0.26445 3.234,-0.35503c-3.18919,-2.11508 -5.41781,-6.24853 -7.1021,-8.28479c-1.13516,-1.42868 -2.69271,-2.71768 -3.4055,-4.28604c-0.49868,-1.09726 -0.0791,-2.31216 -0.11866,-3.46823v-1.41691c0,0 0,-2.35916 3.22134,-2.35916z" fill="#7e8226" stroke-width="0.5"/><path d="M44.19511,196.32292c2.27784,1.66818 0,3.33635 0,3.33635l-4.21258,2.10789c-0.53056,-0.23033 -0.97966,-0.63485 -1.59165,-0.69098c-0.39967,-0.03666 0.64111,0.37475 0.85734,0.62362c0.59007,0.67918 0.95384,1.45448 1.53982,2.13557c1.627,1.89107 3.66954,3.57234 5.49756,5.36221c3.59046,2.61953 7.27457,5.18667 10.76652,7.8765c1.19793,0.92276 1.9914,2.20584 3.51059,2.82495c3.17002,1.29186 9.66263,-3.90932 11.37694,-4.3291c1.96712,-0.48167 4.17413,0.17159 6.22172,-0.07077c1.76836,-0.2093 3.38134,-0.86805 5.08747,-1.26779c0.77795,-0.18228 1.82977,-0.02387 2.36199,-0.47762c0.3499,-0.29832 -0.44878,-0.73341 -0.4811,-1.12596c-0.02341,-0.2844 -0.0045,-9.27303 0.08618,-9.51109c0.60642,-1.59224 1.62246,-3.25812 3.37635,-4.29863c1.00225,-0.59458 2.71059,0.41468 3.86948,0c0.67418,-0.24124 0.41805,-1.05628 0.58132,-1.59264c0.67081,-2.20373 1.32624,-6.72465 3.35257,-8.21153c-0.9476,-1.15353 -1.99592,-2.24789 -3.43494,-2.89592c-0.56506,-0.25446 0.44817,0.96685 0.30129,1.44059c-0.48943,1.57841 -1.02431,3.20435 -2.17063,4.58821c-1.07416,1.29674 -2.88792,2.17448 -4.33188,3.26172c0,0 -2.27784,1.66818 -4.55566,0c-2.27784,-1.66818 0,-3.33635 0,-3.33635c1.13569,-0.80197 2.60364,-1.41158 3.40707,-2.40593c1.30725,-1.61788 2.01495,-7.82312 5.86961,-8.14033c0.25809,-0.02124 9.32234,3.53653 10.95227,5.03517c0.84077,0.77304 0.7836,1.9796 1.73938,2.67727c1.02137,0.74555 2.57965,0.94461 3.86948,1.41691l0.25592,0.74038l0.34751,-0.12724l1.90576,2.79138c0.23569,0.32784 0.36906,0.70126 0.36906,1.0975c0,1.30293 -1.44225,2.35916 -3.22134,2.35916c-0.38258,0 -0.74958,-0.04884 -1.09001,-0.13848l-5.73288,-1.3995l0.01625,-0.03569c-0.23289,-0.05853 -0.46337,-0.12345 -0.69113,-0.19558c-1.14398,-0.36227 -0.44848,-3.28632 -1.24242,-2.58271c-0.84596,0.74971 0.9307,1.85912 0.96178,2.83143c0.03004,0.93966 -0.26992,1.89929 -0.78303,2.76083c-0.86131,1.44621 -1.58726,3.10665 -3.28817,4.07502c-1.01832,0.57975 -2.68391,-0.37204 -3.86948,0c-0.59234,0.18588 -0.45537,0.89789 -0.49314,1.36903c-0.22475,2.80427 0.24837,5.62045 0.08618,8.42704c-0.06975,1.20682 0.48217,2.62605 -0.4811,3.60653c-1.57441,1.60255 -9.70677,3.64709 -11.89794,3.92224c-1.77004,0.22226 -3.66729,-0.45035 -5.38673,-0.07077c-3.00649,0.66374 -4.43073,3.66051 -7.48759,4.18659c-2.66796,0.45914 -5.66124,0.70123 -8.22185,-0.01419c-2.39165,-0.66822 -3.75463,-2.54913 -5.60074,-3.84776c-3.76582,-2.64904 -7.39206,-5.41272 -11.07801,-8.1214c-2.19737,-2.14024 -7.93067,-6.53517 -8.44055,-9.50518c-0.28861,-1.68108 -0.68508,-3.7812 0.85734,-5.04403c1.38211,-1.1316 4.09821,-0.46066 6.14732,-0.69098l-0.3431,-0.72593c0,0 2.27784,-1.66818 4.55566,0z" fill="#7e8226" stroke-width="0.5"/><path d="M56.10859,138.48074c0,-2.35916 3.22134,-2.35916 3.22134,-2.35916l0.49412,0.24906c5.02519,-1.79016 8.0066,-4.7391 12.0198,-7.55703c1.25495,-0.88117 2.97659,-1.47323 3.85737,-2.57099c0.99176,-1.23608 -0.24521,-2.86359 -0.24521,-4.29726c0,-1.57645 0.17752,-3.15195 0.47966,-4.71832h-0.47966v-4.25074c0,-1.30293 1.44225,-2.35916 3.22134,-2.35916c1.17915,0 2.21033,0.46398 2.77171,1.15624l2.15187,2.55536l-0.21168,0.0956l0.49281,0.32772c0.33371,1.56808 0.29084,3.2049 1.00113,4.70423c0.68423,1.44433 2.31684,2.5664 3.11276,3.9797c0.91588,1.6263 1.59007,3.31379 2.19444,5.01925l2.75129,3.02236c0.35668,0.37972 0.56545,0.83974 0.56545,1.33546c0,1.30293 -1.44225,2.35916 -3.22134,2.35916c-0.85511,0 -1.6324,-0.244 -2.20913,-0.64214l-2.23064,-1.53206c-1.91093,-0.95278 -4.11497,-1.65286 -5.71416,-2.87441c-0.12013,-0.09176 -0.23232,-0.18771 -0.33779,-0.28721c-1.08361,0.79732 -2.33305,1.50865 -3.39456,2.31354c-4.34762,3.29655 -8.107,6.35084 -13.6942,8.44087l-3.37538,0.24906c0,0 -3.22134,0 -3.22134,-2.35916z" fill="#7e8226" stroke-width="0.5"/><path d="M112.19559,10.34028c-0.51463,-0.16613 -1.02275,-0.47375 -1.45545,-1.00211c-1.6569,-2.02317 1.10564,-3.23661 1.10564,-3.23661l6.80308,1.18629c-0.0652,13.01184 0.07115,26.03958 -9.86732,37.3239c-2.23935,2.54259 -5.88159,7.44388 -10.25359,8.35058c-1.93462,0.40122 -4.07177,-0.69746 -5.58701,-1.66543c-4.56162,-2.91407 -4.80177,-5.75713 -6.15246,-9.68429c-0.27517,-0.80005 -0.7568,-1.59343 -1.13443,-2.39082c-0.52433,-0.6386 -0.52433,-1.34189 -0.52433,-1.34189v-0.25903c-0.03023,-0.24023 -0.03295,-0.48144 0,-0.7239v-3.26781c0,-1.30293 1.44225,-2.35916 3.22134,-2.35916c1.7791,0 3.22134,1.05623 3.22134,2.35916v2.58217c0.7578,1.1908 2.19022,7.29937 2.84653,8.44679c0.6541,1.14354 1.89746,2.05437 2.79325,3.1064c0.14046,0.16496 0.11508,0.66986 0.30939,0.53741c1.37691,-0.93859 5.23008,-5.55024 5.84756,-6.24968c8.43265,-9.55202 8.78225,-20.66963 8.82644,-31.71196z" fill="#7e8226" stroke-width="0.5"/><path d="M254.24468,90.99888c-2.88126,1.05504 -4.32188,-1.05504 -4.32188,-1.05504l-2.02961,-2.98607c0.01836,-0.06324 0.03672,-0.12649 0.05508,-0.18973l-0.13499,0.03295l-0.04277,-0.09397c-1.79931,0.15308 -3.60992,0.45478 -5.38028,0.22707c-5.623,-0.72323 -10.25132,-5.16002 -14.64208,-7.44367c-1.25627,-0.65338 -2.76904,-1.02793 -3.96751,-1.73716c-1.06576,-0.63071 -1.5732,-2.75249 -2.74956,-2.2379c-1.58006,0.69119 0.28774,3.12803 -1.16882,3.95197c-5.15652,2.9169 -9.90289,-1.66393 -14.23212,-2.45163c-3.11249,-0.56631 -6.44258,0.04026 -9.61125,-0.32228c-6.57351,-0.75209 -12.07361,-1.03149 -18.79337,-1.03327c-6.42095,-0.35986 -12.81217,-0.63268 -19.1939,-0.83783c1.19794,7.67341 3.18198,15.32414 3.19145,23.03551v0.94934c0,0 0,2.35916 -3.22134,2.35916c-3.22134,0 -3.22134,-2.35916 -3.22134,-2.35916v-0.94934c0.01015,-7.7835 -1.97306,-15.48593 -3.17328,-23.21996c-12.02097,-0.30513 -24.03235,-0.39289 -36.16969,-0.39289c-3.65666,0 -7.31342,0.019 -10.96998,0c-1.90103,-0.00988 -3.80443,-0.14043 -5.70258,-0.06311c-0.64764,0.02638 -1.7031,-0.08543 -1.87849,0.37192c-0.43781,1.14159 0.65739,2.37895 0.3757,3.54663c-0.61202,2.53695 -4.22063,8.85721 -7.54373,10.09065c-0.06889,0.02557 -0.13782,0.05016 -0.2068,0.07378c0.25464,0.67338 0.4155,1.97601 -1.6546,2.73403c-2.88126,1.05504 -4.32188,-1.05504 -4.32188,-1.05504c-0.56139,-0.828 -1.11496,-1.66365 -1.63499,-2.51001c-2.27253,-1.24773 -3.95397,-3.19983 -4.37109,-4.94595c-0.05475,-0.2292 -0.07618,-0.457 -0.07003,-0.68365h-0.06819v-2.83382c0,-0.40048 0.13626,-0.77765 0.37668,-1.10801c-1.74517,-1.07146 -3.4365,-2.1784 -4.82072,-3.49201c-2.66378,-2.52791 -4.20164,-5.60521 -6.62338,-8.26048c0,0 -1.78688,-1.96294 0.89345,-3.27157c2.68033,-1.30863 4.46721,0.65432 4.46721,0.65432c2.33538,2.57013 3.80564,5.55052 6.36951,8.00106c2.36878,2.26409 5.80676,3.80335 8.63922,5.76105l-0.27638,-0.64351c0,0 3.22134,0 3.22134,2.35916c0,2.35916 -3.22134,2.35916 -3.22134,2.35916l-0.76941,-0.11943c0.33965,0.9402 0.76708,1.86305 1.25363,2.77078c0.02757,-0.01829 0.05532,-0.03895 0.08323,-0.06206c1.25114,-1.03554 3.65969,-5.60025 3.93607,-6.6484c0.4515,-1.71231 -0.7311,-3.7279 0.50435,-5.21877c1.16841,-1.40996 3.68319,-2.04042 5.86046,-2.46192c2.31492,-0.44815 4.78841,-0.05202 7.1828,-0.06311c5.80325,-0.02688 11.6093,0 17.41267,0c9.77129,0 19.44274,0.09977 29.11113,0.34603c-0.31072,-3.16061 -0.39656,-6.33032 -0.06936,-9.51676c0.29417,-2.86482 1.39005,-5.65639 1.93474,-8.50148c0.25547,-1.33441 -0.6275,-3.01301 0.59708,-4.01867c1.24035,-1.01861 4.09033,-0.00024 5.44138,-0.9403c0.68269,-0.47502 -1.77201,-0.74085 -2.09378,-1.38899c-0.4383,-0.88286 0.32403,-1.9083 0.00512,-2.81821c-0.40285,-1.14941 -5.10476,-6.05971 -5.35449,-6.33358c0,0 -1.78688,-1.96294 0.89345,-3.27157c2.68033,-1.30863 4.46721,0.65432 4.46721,0.65432c1.68766,1.85695 5.35525,5.52904 6.25396,7.83555c0.35588,0.91335 -0.2283,1.91514 0.00512,2.84945c0.36633,1.4663 2.71624,2.95671 1.77571,4.27866c-1.03001,1.44771 -4.48407,0.82315 -6.16707,1.89353c-0.58627,0.37287 0.64034,1.08121 0.59708,1.64899c-0.21855,2.86846 -1.64335,5.6365 -1.93474,8.50148c-0.31676,3.11451 -0.23293,6.2171 0.0711,9.31321c6.66705,0.21604 13.34283,0.50662 20.05905,0.88701c6.9119,-0.0019 12.75825,0.29515 19.53375,1.08555c3.3307,0.38854 6.83272,-0.20883 10.10385,0.39272c1.63816,0.30126 3.0593,1.04968 4.56999,1.60287c1.06947,0.39162 2.09904,0.84001 3.16896,1.23096c0.40287,0.14721 0.98922,0.65315 1.24581,0.3822c1.2868,-1.3588 0.50499,-4.16382 2.70066,-4.54951c2.92901,-0.51451 5.59404,1.64762 8.29956,2.61722c6.4318,2.305 10.88911,7.26355 17.74171,8.82325l1.18502,-1.7357c0.51652,-0.79797 1.6265,-1.34983 2.91247,-1.34983c1.44909,0 2.67469,0.70073 3.07953,1.66474l1.85673,4.07934l1.81449,2.6446c0,0 1.44062,2.1101 -1.44062,3.16514z" fill="#7e8226" stroke-width="0.5"/><path d="M313.49184,72.78215c0.66894,-1.48246 2.95852,-7.55723 5.33457,-8.57081c1.50941,-0.64389 3.48006,0.4523 5.21996,0.33864c0.4012,-0.02621 -0.64147,-0.37458 -0.85734,-0.62362c-0.61418,-0.70862 -1.04296,-1.49547 -1.61115,-2.22438c-0.73833,-0.94717 -1.25227,-2.03199 -2.30695,-2.80198c-1.50903,-1.1017 -3.74028,-1.57763 -5.22505,-2.69688c-3.73849,-2.81814 -2.6326,-5.83167 -7.56321,-3.46091c0,0 -2.88126,1.05504 -4.32188,-1.05504c-1.44062,-2.1101 1.44062,-3.16514 1.44062,-3.16514c1.77004,-0.55533 3.38612,-1.72406 5.31011,-1.66597c6.87894,0.20767 5.92959,3.1834 9.75213,6.05682c1.51035,1.13534 3.79393,1.60997 5.29602,2.75117c0.76153,0.57856 5.31465,6.05731 5.4997,7.17827c0.27765,1.68207 0.76687,3.83746 -0.85734,5.04403c-1.49893,1.1135 -4.40693,-0.24352 -6.38849,0.33864c-0.75807,0.22271 -0.40611,1.15942 -0.65217,1.72981c-1.15403,2.67508 -3.08786,5.20327 -3.66586,7.97657c-1.37429,6.59398 0.04159,14.18849 0.04159,20.87581v4.25074c0,1.30293 -1.44225,2.35916 -3.22134,2.35916c-1.7791,0 -3.22134,-1.05623 -3.22134,-2.35916v-4.25074c0,-8.54203 -1.67625,-17.88376 1.99744,-26.02501z" fill="#7e8226" stroke-width="0.5"/><path d="M230.23529,317.01182c0,-2.35916 3.22134,-2.35916 3.22134,-2.35916h1.93474c1.46183,0.01015 2.95034,-0.17339 4.38549,0.03046c4.51897,0.64189 12.08325,3.12334 16.72078,0.54646c0.82984,-0.46111 0.72778,-1.43164 1.17399,-2.12098c1.3052,-2.0164 4.99,-7.18871 7.15558,-8.09519c0.31799,-0.1331 10.87698,-0.50409 12.37859,-0.11377c2.95926,0.76922 4.49157,3.49788 7.48759,4.18659c3.39528,0.78049 7.11634,-0.10123 10.67495,-0.10123c0,0 3.22134,0 3.22134,2.35916c0,2.35916 -3.22134,2.35916 -3.22134,2.35916c-1.05393,0 -11.99355,0.02906 -12.54194,-0.10123c-2.4234,-0.57576 -4.37867,-1.91967 -6.42924,-3.027c-0.63088,-0.34068 -0.82384,-1.09297 -1.56111,-1.28789c-0.84468,-0.22332 -1.7868,0.18004 -2.6846,0.16539c-1.43336,-0.0234 -3.03956,-0.80029 -4.28421,-0.27915c-1.37723,0.57666 -1.56825,2.02023 -2.31868,3.04386c-0.45713,0.62355 -4.38434,6.33368 -4.82967,6.57675c-8.25152,4.50414 -16.81981,0.49964 -25.32752,0.57693h-1.93474c0,0 -3.22134,0 -3.22134,-2.35916z" fill="#7e8226" stroke-width="0.5"/><path d="M112.55617,332.95973c1.44062,-2.1101 4.32188,-1.05504 4.32188,-1.05504l3.16896,1.23096c3.06349,0.18813 6.43569,-3.04052 8.25504,-4.75103c1.13098,-1.06332 1.18719,-2.89048 2.85447,-3.46122c2.1913,-0.75013 5.0914,-0.78972 7.25661,0c4.72892,1.7248 1.74557,3.94457 4.45286,6.00564c0.692,0.52682 1.8051,0.62938 2.74245,0.88065c1.50192,0.4026 2.98277,1.24214 4.56649,1.0786c5.38567,-0.55611 4.67617,-4.8928 4.60545,-7.37498c0,0 0,-2.35916 3.22134,-2.35916c3.22134,0 3.22134,2.35916 3.22134,2.35916c-0.1124,5.15836 -0.81813,10.8106 -9.98532,12.02866c-2.26263,0.30064 -10.77851,-1.74115 -12.92564,-3.27526c-1.27615,-0.91181 -1.80533,-2.2576 -2.53905,-3.44761c-0.3908,-0.63382 -0.80677,-2.50482 -1.22941,-1.88205c-1.97395,2.90868 -5.74863,7.26281 -10.13452,8.67424c-1.78357,0.57397 -3.8949,0.07764 -5.84235,0.11647l-4.56999,-1.60287c0,0 -2.88126,-1.05504 -1.44062,-3.16514z" fill="#7e8226" stroke-width="0.5"/><path d="M355.83943,355.96166c-2.88126,-1.05504 -1.44062,-3.16514 -1.44062,-3.16514l3.79732,-4.01688c2.10959,0.51497 4.33985,0.81661 6.32879,1.54491c0.67238,0.24621 0.74743,1.54876 1.41018,1.28891c0.79884,-0.3132 -0.19407,-1.43914 0.34014,-1.97516c1.41961,-1.42442 3.12588,-2.80337 5.25002,-3.63399c1.27211,-0.49743 2.93579,0.17718 4.32369,-0.10964c1.64576,-0.34012 8.39607,-3.79952 9.10896,-4.14103c2.14919,-1.02957 6.14693,-1.78564 5.86902,-3.65538c-0.19497,-1.31178 -1.53824,-2.41314 -1.90125,-3.70561c-0.29453,-1.04867 -0.02773,-2.14115 -0.04159,-3.21172c0,0 0,-2.35916 3.22134,-2.35916c3.22134,0 3.22134,2.35916 3.22134,2.35916c-0.07699,4.54541 4.22236,7.30139 -0.80637,11.47969c-1.60244,1.33144 -3.98243,2.02338 -5.98874,3.0189c-2.58577,1.28305 -8.0076,4.10277 -11.12562,4.7936c-1.0907,0.24165 -2.37418,-0.44891 -3.41528,-0.10964c-1.6914,0.55118 -5.35224,5.58107 -6.0183,5.72617c-4.16785,0.90797 -5.90995,-1.16208 -7.73897,-2.83382l-0.07216,1.65078c0,0 -1.44062,2.1101 -4.32188,1.05504z" fill="#7e8226" stroke-width="0.5"/><path d="M258.26517,376.77344c-2.27784,-1.66818 0,-3.33635 0,-3.33635l4.21258,-2.10789c2.17485,0.00178 8.0714,-0.14789 9.70316,0.66596c1.92469,0.95995 2.44044,2.93399 4.03718,4.17533c1.44851,1.1261 8.64857,1.4734 10.15263,1.0139c1.40482,-0.42918 6.33475,-6.25715 6.50642,-6.40862c3.35338,-2.95878 6.60625,-5.06162 12.39327,-5.10828c0.67553,-0.00544 7.87249,2.68194 8.95124,3.07696c0,0 2.88126,1.05504 1.44062,3.16514c-1.44062,2.1101 -4.32188,1.05504 -4.32188,1.05504c-2.21332,-0.81047 -4.0527,-2.55163 -6.52669,-2.5907c-7.84451,-0.12388 -9.65117,9.12321 -15.92565,11.15371c-3.98324,1.28902 -13.62702,0.40024 -16.93374,-1.81993c-1.451,-0.97422 -1.62211,-2.73281 -3.11034,-3.67643c-1.60433,-1.01724 -4.24413,0.01433 -6.36621,0.01624l0.3431,0.72593c0,0 -2.27784,1.66818 -4.55566,0z" fill="#7e8226" stroke-width="0.5"/><path d="M81.10621,374.41208c2.88126,-1.05504 4.32188,1.05504 4.32188,1.05504l1.66677,2.50945c0.82965,0.67789 1.31887,1.72641 2.48895,2.03367c1.43646,0.37722 3.0461,-0.14713 4.57147,-0.17958c3.64325,-0.07751 8.80512,1.15565 11.64122,-1.10748c1.28533,-1.02566 2.06076,-2.33976 3.09114,-3.50964c0,0 1.78688,-1.96294 4.46721,-0.65432c2.68033,1.30863 0.89345,3.27157 0.89345,3.27157c-1.35213,1.44737 -2.31598,3.1376 -4.05638,4.34213c-4.66033,3.2254 -10.27158,2.47098 -16.03661,2.37606c-2.34649,-0.03863 -4.87595,0.49115 -7.03697,-0.17958c-2.21708,-0.68812 -3.50002,-2.42265 -5.25002,-3.63399l-2.2027,-3.1582c0,0 -1.44062,-2.1101 1.44062,-3.16514z" fill="#7e8226" stroke-width="0.5"/><path d="M333.11663,56.66163c1.44062,-2.1101 4.32188,-1.05504 4.32188,-1.05504l4.70669,1.85883c2.06479,2.80956 4.64761,6.23596 7.7538,8.50951c2.93078,2.14516 6.77481,3.50583 9.96391,5.4433c1.20141,0.72989 1.8991,2.03474 3.39451,2.36257c0.79661,0.17464 1.36339,-0.72597 1.87125,-1.20817c1.12569,-1.06882 2.0836,-2.23108 2.98919,-3.40673c3.11736,-4.04706 5.69584,-8.38465 8.5513,-12.53481c1.04379,-1.51706 1.45763,-3.38221 3.14922,-4.54457c0.12602,-0.08659 0.2548,-0.17041 0.38611,-0.25166l-0.05065,-0.0371l3.86948,-2.83382c0.58295,-0.42692 1.38828,-0.69098 2.27784,-0.69098c1.7791,0 3.22134,1.05623 3.22134,2.35916c0,0.39624 -0.13339,0.76966 -0.36906,1.0975l-1.90576,2.79138l-1.13398,-0.41523l-1.4042,1.02837l-4.50501,-3.29926c2.28697,-1.41512 5.34287,-2.05481 7.98021,-3.11659l-0.93704,5.80272c0,0 -1.06084,1.55382 -3.18251,1.32805c-0.40778,1.00317 -1.01838,1.98357 -1.63349,2.89215c-2.85758,4.22093 -5.46782,8.73024 -8.73625,12.78637c-1.24634,1.5467 -2.28437,3.27404 -4.12367,4.4619c-1.87164,1.20874 -4.17321,2.64882 -6.66067,2.50286c-2.74192,-0.16089 -4.65359,-2.15125 -6.91379,-3.29942c-7.70947,-3.91634 -14.51041,-8.02304 -18.40776,-14.39112l-3.03228,-0.97499c0,0 -2.88126,-1.05504 -1.44062,-3.16514z" fill="#7e8226" stroke-width="0.5"/><path d="M388.23592,44.4898c-3.22134,0 -3.22134,-2.35916 -3.22134,-2.35916l0.01886,-1.16195c-0.56964,-3.92259 -3.90806,-8.70677 -1.61179,-12.64785c2.18307,-3.7468 8.79722,-3.40079 13.4032,-2.2595c-0.77966,-0.72896 -1.0014,-1.72705 -1.65546,-2.52721c-1.60673,-1.96561 -3.76418,-3.65972 -5.64106,-5.49244c-2.77847,-2.7131 -5.43124,-5.33064 -8.68827,-7.74627c-1.35094,-1.00194 -2.56005,-2.11423 -4.02776,-3.02382c-0.63119,-0.39117 -1.41416,-1.02119 -2.20175,-0.83678c-3.0678,0.71828 -5.27213,2.74224 -8.15088,3.79999c0,0 -2.88126,1.05504 -4.32188,-1.05504c-1.44062,-2.1101 1.44062,-3.16514 1.44062,-3.16514c3.53349,-1.28901 6.40103,-3.86159 10.30936,-4.26834c2.23422,-0.23252 4.50517,0.69454 6.42438,1.5639c5.77696,2.61681 10.39508,8.01881 14.37034,11.90052c2.73616,2.67177 6.50067,5.61383 8.04314,8.86193c0.79163,1.66696 3.37147,3.79508 1.79372,5.12915c-2.03153,1.7178 -6.0933,0.90768 -9.18293,1.11887c-2.0437,0.1397 -5.96017,-1.38104 -6.1557,0.11533c-0.43751,3.34811 1.75602,6.70657 2.25769,10.02277l0.01886,1.67188c0,0 0,2.35916 -3.22134,2.35916z" fill="#c7ce3c" stroke-width="0.5"/><path d="M414.68247,105.95074c-0.00334,0.92434 -0.00831,1.84919 -0.00831,2.77483c0,2.13421 -0.04866,4.26863 -0.13785,6.40184c-0.01376,0.32926 -0.45612,1.1584 -0.07213,0.98683c1.27019,-0.56756 1.91367,-1.69734 3.11072,-2.34455c1.01559,-0.5491 2.41543,-0.63006 3.42229,-1.18771c1.55224,-0.85969 6.15732,-4.4769 4.89215,-5.78742c-0.95809,-0.99244 -2.77876,-1.45164 -3.63178,-2.49423c-1.15182,-1.40778 -1.34507,-3.136 -2.21283,-4.64912c-0.25862,-0.45095 -0.89301,-1.36495 -1.65741,-2.456c0.15191,1.00784 0.21467,2.01919 0.15633,3.02888c-0.0787,1.36189 0.53385,2.9315 -0.4811,4.07411c-0.74561,0.83939 -2.06828,1.24184 -3.38007,1.65254zM414.03569,90.30569c-0.14524,-1.40622 1.51656,-2.59259 2.27482,-3.88888c0,0 1.44062,-2.1101 4.32188,-1.05504c2.88126,1.05504 1.44062,3.16514 1.44062,3.16514c-0.53155,0.59292 -1.72914,1.07635 -1.59466,1.77878c0.23205,1.21205 1.75155,2.08647 2.54118,3.16514c1.94212,2.65307 2.60246,5.76232 4.71489,8.34466c1.02276,1.25028 3.36723,1.82044 4.10717,3.17343c0.75867,1.38722 0.75376,3.07216 0.0799,4.48267c-1.77178,3.70869 -6.64422,6.67951 -11.11286,8.37899c-6.38093,2.42675 -8.8308,5.65264 -12.43935,-1.35773c-0.8673,-1.68492 -0.10589,-3.60054 -0.13785,-5.40105c-0.02639,-1.4868 -0.04072,-2.97369 -0.04165,-4.46055c-0.88751,-0.25668 -1.89309,-0.83833 -1.89309,-2.15643c0,-1.33612 1.03328,-1.91553 1.92943,-2.16679c0.04277,-2.41323 0.12433,-4.82595 0.25053,-7.23751l1.02867,-0.52342l-0.33037,-0.24195l3.86948,-2.83382v0c0.33765,-0.24728 0.7499,-0.43992 1.20991,-0.55825c-0.12713,-0.26192 -0.20444,-0.46952 -0.21868,-0.6074z" fill="#c7ce3c" stroke-width="0.5"/><path d="M392.37428,205.37957c-2.3497,1.61383 -4.55333,-0.10698 -4.55333,-0.10698l-2.40439,-1.88937c-2.64023,-3.05141 -6.82006,-5.62191 -3.36213,-9.66442c1.32687,-1.55119 4.15101,-2.05048 6.07393,-3.21978c1.45432,-0.88435 2.48768,-2.121 4.02823,-2.92324c0.86366,-0.44974 2.35413,-0.13537 3.01279,-0.74334c0.4617,-0.42617 -0.52231,-1.05037 -0.4811,-1.59355c0.115,-1.5159 -0.33449,-3.30658 0.94351,-4.50201c0.79514,-0.74377 2.73358,0.4475 3.86948,0c0.5549,-0.21861 0.02419,-1.04912 -0.4624,-1.34228c-0.94343,-0.5684 -2.53333,-0.36373 -3.40707,-0.98902c-1.0314,-0.73812 -0.93875,-2.07008 -1.93474,-2.83382c-0.76241,-0.58464 -2.02152,-0.65 -3.03228,-0.97499c0,0 -2.88126,-1.05504 -1.44062,-3.16514c1.44062,-2.1101 4.32188,-1.05504 4.32188,-1.05504c1.5689,0.61961 3.4239,0.95245 4.70669,1.85883c1.0378,0.73328 0.92491,2.07989 1.93474,2.83382c1.16968,0.87329 3.83042,0.67795 4.33188,1.84481c0.97934,2.27886 0.85922,4.97498 -0.4624,7.1592c-0.52255,0.86361 -2.73644,-0.45138 -3.86948,0c-0.54179,0.21583 0.90373,0.7149 0.94351,1.16565c0.12004,1.36026 0.4981,2.91489 -0.4811,4.07411c-0.96825,1.14624 -3.27674,1.25987 -4.72616,2.09048c-1.38444,0.79338 -2.32294,1.95419 -3.71074,2.74441c-0.53995,0.30746 -6.04779,1.31307 -4.71824,3.28025c0.75181,1.11235 1.9794,2.01507 2.96911,3.0226l2.05653,1.59418c0,0 2.20362,1.72081 -0.14608,3.33465z" fill="#c7ce3c" stroke-width="0.5"/><path d="M366.61068,300.26013c-2.27784,-1.66818 0,-3.33635 0,-3.33635l1.24855,-0.91438c1.89728,-1.38948 10.03535,-5.67002 9.45754,-8.37684c-0.19016,-0.89088 -1.84356,-1.23181 -2.48447,-2.00171c-2.75022,-3.3038 -3.8083,-4.4148 -3.36092,-7.82501c0.29183,-2.22447 -1.03834,-5.23011 1.33779,-6.63218c2.15883,-1.27384 5.44472,0.80338 8.20378,1.00207c2.93937,0.21167 5.92222,0.22264 8.81461,0.66052c0.25629,0.0388 -0.49897,-0.13863 -0.6983,-0.26284c-1.20843,-0.75296 -2.54438,-1.43333 -3.50664,-2.35722c-0.77337,-0.74253 -0.6976,-1.88472 -1.59928,-2.54507c-0.90169,-0.66036 -2.61913,-0.47909 -3.4752,-1.17124c-0.11589,-0.0937 -0.22923,-0.18882 -0.34025,-0.28524l-0.05404,0.03958l-3.86948,-2.83382c-0.58295,-0.42692 -0.94351,-1.01671 -0.94351,-1.66818c0,-1.30293 1.44225,-2.35916 3.22134,-2.35916h3.29184c1.00216,-0.38928 2.00433,-0.77857 3.00649,-1.16785c0,0 2.88126,-1.05504 4.32188,1.05504c1.44062,2.1101 -1.44062,3.16514 -1.44062,3.16514c-0.6929,0.24302 -1.3858,0.48605 -2.07869,0.72908c2.20993,0.72506 3.07098,2.19038 5.18609,4.28289c1.22812,1.21499 3.64471,1.86132 4.23233,3.31044c0.70345,1.73478 1.09499,4.15981 -0.6983,5.40482c-0.73105,0.50753 -12.7051,0.98552 -14.40228,0.66052c-1.36242,-0.26089 -2.21997,-2.3893 -3.40466,-1.83176c-1.1375,0.53533 1.07513,1.83311 1.33779,2.80447c0.49776,1.84081 1.09822,3.73222 2.4016,5.34787c1.03412,1.28188 3.20877,2.24235 3.36147,3.72703c0.57478,5.58829 -6.65332,9.08966 -11.26224,12.46501l-1.24855,0.91438c0,0 -2.27784,1.66818 -4.55566,0z" fill="#c7ce3c" stroke-width="0.5"/><path d="M251.88798,198.81228c-3.05604,0.74603 -4.07472,-1.49207 -4.07472,-1.49207l-2.05845,-4.61888c-0.02125,-2.12559 -0.42299,-9.85085 1.48619,-10.8862c1.44921,-0.78591 2.81605,-0.8671 4.06513,-0.53683c-1.87343,-7.12211 -3.43721,-14.28986 -4.52755,-21.49662c-0.51231,-3.38623 -1.63417,-6.20264 -0.80086,-9.11637c-0.04215,-0.00838 -0.0835,-0.01726 -0.12403,-0.02664l-0.41644,0.07625l-0.0778,-0.2279c-1.58096,-0.62004 -1.58096,-2.08789 -1.58096,-2.08789v-2.83382c0,-1.30293 1.44225,-2.35916 3.22134,-2.35916c1.53304,0 2.81596,0.78427 3.14151,1.83486l1.54623,4.52957l-0.03324,0.00609c0.0267,0.0496 0.05295,0.09935 0.07874,0.14925c0.78597,1.52038 0.49459,3.23116 0.7401,4.8469c0.47199,3.1062 0.82952,6.22271 1.40782,9.31926c1.57754,8.44721 3.71206,16.83469 6.18212,25.16173c0.84167,0.81506 1.56459,1.65793 1.64962,2.63992c0.01837,0.21215 0.01319,0.42193 -0.01188,0.62974h0.12876v2.83382c0,1.30293 -1.44225,2.35916 -3.22134,2.35916c-1.56108,0 -2.8628,-0.81321 -3.1584,-1.89275l-1.06049,-3.49493c-0.01307,-0.04304 -0.02611,-0.08608 -0.03916,-0.12913c-0.69749,-0.77838 -1.16507,-1.70798 -1.81898,-2.50834c-0.10395,-0.12722 -0.21026,-0.25377 -0.31747,-0.38013c0.03993,0.83227 -0.08589,1.72317 -0.09946,2.83438l1.81103,3.8826c0,0 1.01868,2.2381 -2.03736,2.98413z" fill="#c7ce3c" stroke-width="0.5"/><path d="M282.31926,54.18968c2.88126,-1.05504 4.32188,1.05504 4.32188,1.05504l0.98823,1.44746c0.20374,0.30373 0.41039,0.61062 0.6137,0.92057c0.02219,-0.09159 0.04743,-0.18292 0.07604,-0.27396c0.6381,-2.03085 1.15918,-4.35817 3.23093,-5.78669c1.41694,-0.97701 3.86233,-0.3846 5.80672,-0.44498c3.8507,-0.11958 7.80092,-0.34253 11.55548,0.29503c1.43395,0.2435 2.45774,2.02776 3.82106,1.62122c1.07813,-0.32151 -1.03973,-1.55128 -1.23889,-2.39124c-0.61999,-2.61482 0,-5.84286 0,-8.50148c0,0 0,-2.35916 3.22134,-2.35916c3.22134,0 3.22134,2.35916 3.22134,2.35916c0,2.77082 0.38161,5.74641 0,8.50148c-0.28376,2.04856 1.01115,4.87555 -1.23889,6.11024c-2.32808,1.27752 -5.77847,-0.50983 -8.6796,-0.66751c-3.5817,-0.19466 -7.20146,0.05219 -10.76921,-0.25007c-0.67071,-0.05683 -1.5012,-0.82556 -1.93225,-0.44498c-0.9714,0.85767 -0.60115,6.19618 -0.59695,6.58763v2.83382c0,1.30293 -1.44225,2.35916 -3.22134,2.35916c-0.88955,0 -1.69489,-0.26406 -2.27784,-0.69098l-3.86948,-2.83382l0.03345,-0.0245c-0.12561,-0.08572 -0.24865,-0.17374 -0.36891,-0.26425c-1.61751,-1.2176 -2.09948,-3.02972 -3.14922,-4.54457l-0.98823,-1.44746c0,0 -1.44062,-2.1101 1.44062,-3.16514z" fill="#c7ce3c" stroke-width="0.5"/><path d="M219.15494,297.95439c-2.99892,0.86142 -4.17516,-1.33484 -4.17516,-1.33484l-0.9449,-1.90065c-4.84682,-3.5375 -5.97741,-5.91711 -8.6465,-10.41779c-0.02207,-0.03722 -0.04623,-0.07418 -0.07217,-0.11091c-0.40374,0.58821 -1.20907,1.17486 -2.81544,1.17486c-3.22134,0 -3.22134,-2.35916 -3.22134,-2.35916c0.56711,-1.63795 -0.55517,-4.56106 1.70133,-4.91384c10.76138,-1.68244 10.13551,7.0099 13.85812,10.67245c1.29316,1.2723 3.05769,2.24683 4.58654,3.37024l1.55222,2.76194c0,0 1.17624,2.19627 -1.82268,3.05769z" fill="#c7ce3c" stroke-width="0.5"/><path d="M141.73468,146.11186c3.1232,-0.57792 3.91232,1.70936 3.91232,1.70936l0.88488,2.62102c1.46953,2.13593 2.94169,4.23558 4.2998,6.38388c-0.28457,-18.49292 -1.08045,-37.20231 2.03885,-55.47773c0,0 0.39956,-2.34094 3.59602,-2.04833c3.19646,0.29262 2.79691,2.63356 2.79691,2.63356c-3.59423,21.05802 -1.90987,42.71389 -1.90987,63.92189v2.38041v0c0,1.30293 -1.44225,2.35916 -3.22134,2.35916c-1.28597,0 -2.39595,-0.55185 -2.91247,-1.34983l-1.90353,-2.78811l0.0196,-0.00717c-0.02586,-0.02702 -0.05153,-0.05416 -0.07698,-0.08143c-0.3809,-0.40813 -3.11655,-5.86259 -3.86948,-7.08457c-1.50573,-2.44375 -3.2691,-4.7979 -4.8972,-7.19919l-1.09157,-3.10773c0,0 -0.78913,-2.28728 2.33407,-2.8652z" fill="#c7ce3c" stroke-width="0.5"/><path d="M99.95949,197.04886c1.04694,0 1.75362,0.24918 2.23063,0.58559c0.77777,-1.60614 1.65316,-3.18793 2.51739,-4.77025c0,0 1.19638,-2.19042 4.18732,-1.31426c2.99094,0.87617 1.79457,3.0666 1.79457,3.0666c-1.43178,2.62143 -2.91246,5.2296 -4.4899,7.8058l-3.03054,1.21843c-0.01642,2.81325 -0.03888,5.62932 0.00999,8.43873c0.01438,0.8268 -0.30842,1.71558 0.12563,2.4789c0.71971,1.26567 2.13647,2.25185 3.20471,3.37777c0,0 1.78688,1.96294 -0.89345,3.27157c-2.68033,1.30863 -4.46721,-0.65432 -4.46721,-0.65432c-1.31427,-1.49133 -3.0653,-2.81945 -3.94281,-4.47399c-0.63504,-1.19739 -0.39632,-2.55494 -0.46581,-3.83847c-0.17322,-3.19901 -0.06496,-6.47853 -0.01929,-9.7091c-0.06832,-0.28266 -0.05639,-0.54034 0.00957,-0.77307c0.00487,-0.46854 0.00783,-0.93582 0.00783,-1.40145v-0.94934c0,0 0,-2.35916 3.22134,-2.35916z" fill="#c7ce3c" stroke-width="0.5"/><path d="M148.32801,52.52369c3.22134,0 3.22134,2.35916 3.22134,2.35916l-0.00472,2.70616c0.58196,3.95423 1.65599,9.60759 3.61035,13.36171c1.25648,2.41358 4.41774,4.05321 6.17376,6.29335c1.02485,1.3074 1.33469,2.89385 2.50641,4.13332c0.09396,0.0994 0.19546,0.19464 0.30314,0.28642c-0.72192,-5.76325 -2.51583,-11.42219 -3.62768,-17.19032c-2.25662,-11.70694 -3.79549,-23.28532 -3.79549,-35.09509c0,0 0,-2.35916 3.22134,-2.35916c3.22134,0 3.22134,2.35916 3.22134,2.35916c0,11.5901 1.51732,22.94494 3.73224,34.43555c1.46754,7.61338 3.98987,15.0003 4.00673,22.70855v2.36625v0c0,1.30293 -1.44225,2.35916 -3.22134,2.35916c-1.28597,0 -2.39595,-0.55185 -2.91247,-1.34983l-1.72633,-2.52858c-2.20198,-1.57311 -4.28926,-3.08418 -4.50174,-3.30975c-1.27009,-1.34837 -1.68204,-3.0467 -2.79452,-4.4678c-1.87374,-2.39359 -5.12433,-4.20267 -6.50036,-6.77108c-2.25587,-4.21066 -3.46083,-10.50829 -4.12862,-14.97656l-0.00472,-2.96149c0,0 0,-2.35916 3.22134,-2.35916z" fill="#c7ce3c" stroke-width="0.5"/><path d="M141.57728,274.14256c-1.44062,-2.1101 1.44062,-3.16514 1.44062,-3.16514l3.4233,-1.21894c0.92621,-0.61199 2.38948,-0.96796 2.77863,-1.83596c0.54273,-1.21055 -0.20731,-2.54437 -0.24368,-3.81823c-0.0191,-0.66902 -0.00447,-9.61562 0.08618,-9.97866c0.25938,-1.03888 1.56649,-1.81274 1.93474,-2.83382c0.26648,-0.73889 -0.05746,-1.52787 -0.08618,-2.2918c0,0 0,-2.35916 3.22134,-2.35916c3.22134,0 3.22134,2.35916 3.22134,2.35916c-0.02872,1.12528 0.27013,2.28103 -0.08618,3.37586c-0.33434,1.02733 -1.6613,1.79688 -1.93474,2.83382c-1.15773,4.39033 2.14785,10.31414 -0.1575,14.51304c-0.90004,1.63931 -3.30689,2.57335 -4.96034,3.86003l-4.31566,1.61488c0,0 -2.88126,1.05504 -4.32188,-1.05504z" fill="#c7ce3c" stroke-width="0.5"/><path d="M177.3472,265.53253c2.57708,1.4155 0.64427,3.30282 0.64427,3.30282l-1.9386,1.893c-1.2811,1.25087 -2.56221,2.50175 -3.84332,3.75262c-7.76942,7.96691 -15.67654,15.8894 -23.1435,24.01096c-0.47222,0.51363 -6.80752,7.75275 -7.08237,7.98743c-0.18636,0.15913 -9.52758,6.23089 -9.93584,6.49666c-6.63998,4.32236 -13.14926,8.49152 -20.88232,11.77496c-5.48716,2.32983 -10.24231,3.33726 -14.7324,6.68125c0,0 -2.27784,1.66818 -4.55566,0c-2.27784,-1.66818 0,-3.33635 0,-3.33635c4.99333,-3.60643 10.0898,-4.8933 16.05662,-7.42679c7.35737,-3.12393 13.51678,-7.10765 19.83357,-11.21963c3.10206,-2.01933 6.6237,-3.73469 9.32573,-6.04186c2.65945,-2.27081 4.34566,-5.06787 6.62718,-7.54944c7.51443,-8.17331 15.47014,-16.14711 23.29028,-24.16409c1.29597,-1.26557 2.59194,-2.53112 3.8879,-3.79669l1.9386,-1.893c0,0 1.93281,-1.88733 4.50988,-0.47183z" fill="#c7ce3c" stroke-width="0.5"/><path d="M236.67798,308.51034c0,2.35916 -3.22134,2.35916 -3.22134,2.35916c-1.28983,0 -6.44914,0 -7.73897,0c0,0 -3.22134,0 -3.22134,-2.35916c0,-2.35916 3.22134,-2.35916 3.22134,-2.35916c1.28983,0 2.57965,0 3.86948,0h3.86948c0,0 3.22134,0 3.22134,2.35916z" fill="#c7ce3c" stroke-width="0.5"/><path d="M275.3728,291.50738c0,2.35916 -3.22134,2.35916 -3.22134,2.35916l-3.12937,-0.06311c-1.05632,0.41032 -2.11265,0.82064 -3.16896,1.23096c0,0 -2.88126,1.05504 -4.32188,-1.05504c-1.44062,-2.1101 1.44062,-3.16514 1.44062,-3.16514c1.52333,-0.53429 3.04667,-1.06858 4.56999,-1.60287l4.6096,-0.06311c0,0 3.22134,0 3.22134,2.35916z" fill="#c7ce3c" stroke-width="0.5"/><path d="M340.66516,278.92269l1.44573,1.69587c2.09555,2.4611 5.51815,6.16133 6.6959,8.92989c1.03254,2.42722 0.08618,5.0843 0.08618,7.62659c0,0 0,2.35916 -3.22134,2.35916c-3.22134,0 -3.22134,-2.35916 -3.22134,-2.35916c0,-1.10642 0.26429,-2.2415 0.40189,-3.36158c-1.04754,-0.25867 -1.69566,-0.8938 -1.69566,-0.8938l-3.08428,-3.03807c-2.66973,-3.89526 -4.79769,-7.76516 -7.14817,-11.75943c-0.55666,-0.94595 -0.44479,-2.47027 -1.77581,-2.80318c-1.32962,-0.33257 -2.4934,0.94902 -3.7401,1.42355c0,0 -3.05604,0.74603 -4.07472,-1.49207c-1.01868,-2.2381 2.03736,-2.98413 2.03736,-2.98413c2.62278,-0.4701 5.34027,-2.10498 7.86834,-1.41029c2.72746,0.74949 3.86226,3.22386 5.37172,5.04858c0.48473,0.58598 0.93776,1.20848 1.36819,1.85583c1.68963,-0.00665 2.68612,1.16224 2.68612,1.16224z" fill="#c7ce3c" stroke-width="0.5"/><path d="M297.64278,231.51317c-0.10905,0.00605 -0.22222,0.00918 -0.33968,0.00918c-3.22134,0 -3.22134,-2.35916 -3.22134,-2.35916v-2.83382c0,-1.30293 1.44225,-2.35916 3.22134,-2.35916c1.28597,0 2.39595,0.55185 2.91247,1.34983l1.80533,2.64427c5.5375,5.34995 11.72201,9.83493 18.15601,14.61423c1.33469,0.99143 2.40411,2.20971 3.97139,2.99771c1.19755,0.6021 2.70909,0.77866 4.10824,1.06458c0.40389,0.08253 1.19273,0.33527 1.2572,0.03184c0.70777,-3.33158 -2.04598,-8.38735 -2.5304,-11.64722c-1.37892,-9.27912 -0.01098,-19.18079 -0.01098,-28.53285c0,0 0,-2.35916 3.22134,-2.35916c3.22134,0 3.22134,2.35916 3.22134,2.35916c0,9.21074 -1.40599,19.0116 -0.01098,28.14368c0.57297,3.75082 4.35349,11.29073 1.33907,14.79238c-3.02274,3.51132 -10.89678,1.49007 -13.98197,0.16125c-0.38434,-0.16554 -9.09032,-6.56807 -9.69561,-7.01136c-4.89174,-3.58248 -9.256,-7.08915 -13.42277,-11.06536z" fill="#c7ce3c" stroke-width="0.5"/><path d="M166.23479,207.21631c2.88126,-1.05504 4.32188,1.05504 4.32188,1.05504l0.74704,1.88205c1.64261,-0.30088 2.60089,-1.5965 3.76757,-2.49518c2.39522,-1.84502 5.31148,-3.34571 7.40351,-5.3789c2.05082,-1.99314 1.61914,-4.06269 4.20494,-5.95641c1.26041,-0.92306 3.1378,-1.23922 4.70669,-1.85883c0,0 2.88126,-1.05504 4.32188,1.05504c1.44062,2.1101 -1.44062,3.16514 -1.44062,3.16514c-4.82601,1.55175 -3.48013,3.32883 -6.5663,6.3539c-0.17243,0.16902 -7.64884,5.65703 -8.07441,5.95641c-1.61297,1.13462 -2.81698,2.77697 -4.91456,3.34522c-2.12584,0.57592 -4.53054,-0.11517 -6.7958,-0.17276l-3.12244,-3.7856c0,0 -1.44062,-2.1101 1.44062,-3.16514z" fill="#c7ce3c" stroke-width="0.5"/><path d="M63.19942,214.05182c3.22134,0 3.22134,2.35916 3.22134,2.35916v2.83382c0,2.5336 -0.80249,5.09816 -0.24521,7.59867c0.12799,0.57431 0.6177,1.35799 1.40935,1.40794c0.83596,0.05275 1.27524,-0.79888 1.91285,-1.19831c0,0 2.88126,-1.05504 4.32188,1.05504c1.44062,2.1101 -1.44062,3.16514 -1.44062,3.16514c-1.94203,0.54517 -3.83116,2.06619 -5.82611,1.63551c-9.11017,-1.96672 -6.57483,-8.75373 -6.57483,-13.664v-2.83382c0,0 0,-2.35916 3.22134,-2.35916z" fill="#c7ce3c" stroke-width="0.5"/><path d="M109.6332,130.92151c-3.22134,0 -3.22134,-2.35916 -3.22134,-2.35916l0.45907,-0.20313c-0.18378,-0.22432 -0.91388,-1.11537 -1.79986,-2.19682c0.03246,2.15158 0.80861,4.7649 -1.48327,5.82369c-9.2388,4.26808 -8.56652,-4.41262 -8.78439,-6.25756c0,0 0,-2.35916 3.22134,-2.35916c0.14008,0 0.27406,0.00446 0.40222,0.01299c-0.16292,-2.50593 0.24592,-5.0432 0.24592,-7.55806v-2.848c0,-1.30293 1.44225,-2.35916 3.22134,-2.35916c1.7791,0 3.22134,1.05623 3.22134,2.35916v2.848c0,0.3571 0.00539,0.7144 0.01433,1.07182c2.43387,3.00551 4.80874,6.03676 7.26557,9.03554l0.45907,2.63069c0,0 0,2.35916 -3.22134,2.35916z" fill="#c7ce3c" stroke-width="0.5"/><path d="M270.55979,120.31214c-2.27784,1.66818 -4.55566,0 -4.55566,0l-3.4752,-2.58815c-5.96482,-2.1249 -13.81674,-3.99788 -18.95656,-6.98576c-3.43804,-1.9986 -5.80115,-5.10192 -8.79656,-7.56106c0.31416,1.19912 0.24401,2.46031 -0.03257,3.66391v4.71832c0,1.30293 -1.44225,2.35916 -3.22134,2.35916c-1.28597,0 -2.39595,-0.55185 -2.91247,-1.34983l-0.54742,-0.8018c-3.64719,4.07741 -4.95773,7.4816 -4.92721,12.5447c0,0 0,2.35916 -3.22134,2.35916c-3.22134,0 -3.22134,-2.35916 -3.22134,-2.35916c0.02931,-5.73434 1.49005,-10.02762 5.72433,-14.73991l1.57355,-4.2276c0.3486,-1.02704 1.61611,-1.78816 3.12634,-1.78816c0.37954,0 0.74374,0.04807 1.08189,0.13635c0.03397,-0.2128 0.06943,-0.42454 0.10234,-0.63439c0.25175,-1.60535 -0.6937,-4.11706 1.33779,-4.74768c2.97367,-0.9231 6.63874,0.29026 9.50376,1.3822c2.37189,0.90399 6.14212,6.01685 8.43578,7.35019c1.51086,0.87829 3.47196,1.23193 5.20037,1.85916c4.52171,1.64092 9.02373,3.31338 13.51779,4.99449l4.26376,3.0795c0,0 2.27784,1.66818 0,3.33635z" fill="#c7ce3c" stroke-width="0.5"/><path d="M376.0544,96.47893c0.14103,-0.01469 0.28956,-0.02456 0.446,-0.02908c3.21883,-0.09305 3.34591,2.26427 3.34591,2.26427l0.03942,1.42255c0.42868,1.69882 1.79433,3.40946 1.28604,5.09647c-0.04573,0.15177 -0.09765,0.30191 -0.15519,0.45054l0.08814,0.01339l-0.29549,1.0434l0.86104,2.31423l-0.13853,0.02764l0.22339,0.2797c0.01911,3.47461 -0.06573,5.58467 -0.59851,7.80085l0.48941,0.01318l-0.23624,4.70459c-0.05489,1.26768 -1.47539,2.283 -3.21969,2.283c-1.53304,0 -2.81596,-0.78427 -3.14151,-1.83486l-1.54623,-4.52957l0.12796,-0.02343l-0.20001,-0.2605c-0.0216,-2.37472 0.27946,-4.75878 -0.00621,-7.12432c-1.07656,-8.91459 -6.54961,-17.54037 -7.73897,-26.45377c-0.18158,-1.36082 0.60318,-2.76277 0.20791,-4.09907c-0.16595,-0.56104 -1.28029,-0.68849 -1.75857,-1.14329c-2.76487,-2.62913 -3.2288,-4.39112 -6.80317,-6.31209c-1.16261,-0.62482 -2.79087,-0.71593 -3.86948,-1.41691c-0.95202,-0.61871 -0.71866,-2.30149 -1.98593,-2.38852c-1.10544,-0.07591 -1.0611,1.42857 -1.59165,2.14284c0,0 -2.27784,1.66818 -4.55566,0c-2.27784,-1.66818 0,-3.33635 0,-3.33635c2.04911,-1.17494 3.5459,-3.47111 6.14732,-3.52481c2.42907,-0.05015 3.73086,2.29225 5.75304,3.27914c1.20003,0.58565 2.72347,0.77586 3.86948,1.41691c4.76919,2.66778 4.59203,3.7232 8.08332,7.20732c0.82533,0.82364 2.32921,1.35586 2.70235,2.34026c0.65009,1.71506 -0.06617,3.56901 0.20791,5.33757c0.22942,1.48045 0.8671,2.91145 1.29614,4.36789c0.85514,2.90282 1.78551,5.7872 2.66633,8.67083z" fill="#c7ce3c" stroke-width="0.5"/><path d="M299.385,22.74781c-0.47172,0.28605 -1.13875,0.48829 -2.08192,0.48829c-3.22134,0 -3.22134,-2.35916 -3.22134,-2.35916v-4.25074c0,-1.30293 1.44225,-2.35916 3.22134,-2.35916c1.06731,0 2.01339,0.38014 2.59957,0.96563l1.91612,1.87103c2.65967,2.59709 6.06566,6.83543 9.26656,9.11677c2.54096,1.81099 6.10081,2.64998 9.07446,4.06414c3.14962,1.49786 4.21147,3.33428 8.01821,1.5043c0.62691,-0.30137 0.73195,-0.98981 0.81526,-1.53561c0.40246,-2.63681 -0.08618,-5.30622 -0.08618,-7.95946c0,0 0,-2.35916 3.22134,-2.35916c3.22134,0 3.22134,2.35916 3.22134,2.35916c0,0.07219 0.03134,8.72705 -0.08618,9.0435c-1.58745,4.27509 -5.07114,6.27943 -11.81619,5.76719c-2.55297,-0.19388 -4.47126,-1.8474 -6.67774,-2.80766c-3.39052,-1.47554 -7.18883,-2.5925 -10.03193,-4.59435c-2.45995,-1.73207 -5.02826,-4.48511 -7.35273,-6.95473z" fill="#c7ce3c" stroke-width="0.5"/><path d="M178.94079,29.12715c2.27784,-1.66818 4.55566,0 4.55566,0l1.89468,1.38808c1.36527,0.97 2.78427,1.90102 4.0958,2.91001c0.89408,0.68783 1.22644,2.05781 2.51333,2.17453c0.87457,0.07932 -0.32179,-1.38721 0.14827,-1.93312c0.46639,-0.54165 8.69106,-6.32566 9.1195,-6.46781c5.61422,-1.86257 10.62933,1.84037 15.51605,2.71736c1.25277,0.22483 2.62095,-0.23712 3.86948,0c1.63494,0.31051 3.04667,1.06858 4.56999,1.60287c0,0 2.88126,1.05504 1.44062,3.16514c-1.44062,2.1101 -4.32188,1.05504 -4.32188,1.05504c-1.05632,-0.41032 -2.00596,-1.02756 -3.16896,-1.23096c-1.25455,-0.21941 -2.61946,0.23286 -3.86948,0c-1.5631,-0.29118 -2.86709,-1.09021 -4.36212,-1.53339c-2.30603,-0.68358 -5.07503,-2.3544 -7.2082,-1.41691c-2.62898,1.15539 -4.37799,3.15337 -6.35843,4.8675c-1.35921,1.17643 -1.62321,3.61589 -3.72122,3.73453c-4.38976,0.24823 -9.87503,-4.23413 -12.73829,-6.25077l-1.97481,-1.44575c0,0 -2.27784,-1.66818 0,-3.33635z" fill="#c7ce3c" stroke-width="0.5"/><path d="M111.22486,33.88043c-2.27784,-1.66818 0,-3.33635 0,-3.33635l3.86948,-2.83382c0,0 2.27784,-1.66818 4.55566,0c2.27784,1.66818 0,3.33635 0,3.33635l-3.86948,2.83382c0,0 -2.27784,1.66818 -4.55566,0z" fill="#c7ce3c" stroke-width="0.5"/><path d="M324.38946,371.79677c-3.22134,0 -3.22134,-2.35916 -3.22134,-2.35916l0.34008,-0.36187c-0.75828,-1.29629 -2.56461,-2.4947 -2.27482,-3.88888c1.31274,-6.31552 5.54956,-6.11321 11.3034,-3.08509c0.99207,0.5221 0.24643,2.11215 1.35046,2.49518c1.61121,0.55901 3.67731,-0.6375 5.34342,-0.17276c1.78799,0.49874 2.81892,1.89513 4.22837,2.84269c1.40171,1.12795 3.24852,3.74002 4.91456,2.82495c2.78753,-1.53105 4.29892,-4.17158 7.27816,-5.49489c4.64861,-2.06481 11.27688,-2.77959 16.16925,-4.56868c4.78792,-1.75089 9.23389,-4.88412 13.57928,-7.12257c3.25036,-1.67436 7.59019,-2.43093 10.01457,-4.73688c1.07856,-1.02587 0.87703,-2.5151 1.51863,-3.72156c0.46154,-0.86787 1.40141,-1.58292 1.77571,-2.47304c0.88801,-2.11177 -1.25174,-2.48492 -1.93474,-4.5836c-0.11029,-0.33887 -0.08618,-5.59196 -0.08618,-6.20968c0,0 0,-2.35916 3.22134,-2.35916c3.22134,0 3.22134,2.35916 3.22134,2.35916c0,1.70867 -0.68198,3.47361 -0.08618,5.12563c0.80186,2.22335 2.59649,4.50376 1.93474,6.7517c-0.3399,1.15466 -1.48427,2.10102 -2.09378,3.19461c-0.87389,1.56793 -0.92438,3.44703 -2.35085,4.77992c-0.52498,0.49054 -10.29547,5.14874 -11.42799,5.73214c-4.66708,2.40415 -9.27605,5.58724 -14.39427,7.47971c-4.7121,1.74232 -11.16227,2.4103 -15.67377,4.36594c-4.36696,1.89299 -2.79681,4.23376 -8.19978,5.84041c-6.20779,1.84599 -8.05211,-1.17967 -11.93574,-3.84776c-0.71274,-0.60663 -1.09859,-1.57337 -2.13821,-1.81989c-1.9882,-0.47145 -4.41091,0.53335 -6.26502,-0.17276c-0.35995,-0.13709 -0.74476,-0.44051 -1.11544,-0.81653l0.22611,1.64354c0,0 0,2.35916 -3.22134,2.35916z" fill="#c7ce3c" stroke-width="0.5"/><path d="M174.46789,368.38256c1.44062,-2.1101 4.32188,-1.05504 4.32188,-1.05504l3.88906,1.42415c1.49622,0.568 3.10331,1.00117 4.48866,1.704c1.27023,0.64443 1.86967,2.41336 3.40741,2.30193c1.76303,-0.12775 1.91238,-2.65718 3.6709,-2.81485c4.97658,-0.44618 8.28938,3.44973 10.61518,5.67204c1.02548,0.97985 1.42381,2.442 2.90472,3.03182c1.21655,0.48453 2.76911,-0.09813 4.14307,-0.2248c1.67353,-0.15429 3.31733,-0.45541 4.98953,-0.61717c1.65009,-0.15961 3.55362,0.29292 4.9708,-0.34631c1.10336,-0.49769 0.64094,-1.94327 1.57071,-2.60432c1.27893,-0.9093 3.1378,-1.23922 4.70669,-1.85883c0,0 2.88126,-1.05504 4.32188,1.05504c1.44062,2.1101 -1.44062,3.16514 -1.44062,3.16514c-1.01075,0.325 -2.265,0.39377 -3.03228,0.97499c-1.10584,0.83768 -0.9229,2.47828 -2.29876,3.06333c-2.28083,0.96986 -5.14946,0.83967 -7.73925,1.20507c-3.04564,0.42971 -10.2415,1.43211 -12.98267,0.44048c-2.34444,-0.84811 -3.47363,-2.86404 -5.14472,-4.33695c-1.11948,-0.98672 -2.09617,-2.05768 -3.22399,-3.0393c-0.39294,-0.342 -0.77989,-1.11899 -1.32829,-0.92286c-1.68703,0.60335 -2.19069,2.86596 -4.06805,2.85281c-4.33076,-0.03036 -7.60228,-3.04152 -11.45135,-4.49555l-3.84989,-1.40968c0,0 -2.88126,-1.05504 -1.44062,-3.16514z" fill="#c7ce3c" stroke-width="0.5"/><path d="M41.57416,349.34956c2.27784,-1.66818 4.55566,0 4.55566,0l-0.3431,0.72593c1.83212,0.10765 3.96885,-0.42567 5.49637,0.32297c1.88623,0.92444 2.36073,2.84419 3.70188,4.18512c2.60508,2.60463 5.21735,5.23935 7.21631,8.11698c1.33882,1.92731 1.54226,4.44596 3.75966,5.87383c0.4617,0.2973 0.73532,-0.72446 1.15912,-1.05064c0.96884,-0.74566 2.28969,-1.27765 3.01279,-2.16026c1.24857,-1.52399 1.01124,-3.71642 2.79142,-4.9243c1.23785,-0.83989 3.40593,-0.06328 5.03486,-0.38593c1.47382,-0.29193 2.62579,-1.30097 4.14207,-1.43181c6.08482,-0.52505 13.99561,0.9361 20.11353,1.38415c0,0 3.20535,0.23475 2.88482,2.5822c-0.32054,2.34745 -3.52589,2.1127 -3.52589,2.1127l-12.82143,-0.93898c-1.8456,-0.1489 -3.68807,-0.66921 -5.52932,-0.49381c-1.41119,0.13442 -2.43442,1.17202 -3.82743,1.38513c-0.89892,0.13752 -2.10216,-0.89384 -2.70411,-0.38593c-1.09292,0.92217 -0.22021,2.5301 -1.07805,3.57718c-1.30973,1.59864 -7.89791,6.19875 -11.30602,5.29059c-5.17152,-1.37807 -7.82836,-9.24572 -10.55587,-12.29499c-1.16266,-1.29982 -2.90795,-2.28354 -4.07423,-3.58162c-0.75988,-0.84576 -0.6023,-2.12491 -1.64791,-2.78719c-0.57623,-0.36498 -1.49506,0.21532 -2.2426,0.32297l-4.21258,-2.10789c0,0 -2.27784,-1.66818 0,-3.33635z" fill="#c7ce3c" stroke-width="0.5"/></g></g></svg>