<svg version="1.1" xmlns="http://www.w3.org/2000/svg" xmlns:xlink="http://www.w3.org/1999/xlink" width="37.66667" height="42.11058" viewBox="0,0,37.66667,42.11058"><g transform="translate(-221.16666,-157.81999)"><g data-paper-data="{&quot;isPaintingLayer&quot;:true}" fill-rule="nonzero" stroke-linecap="butt" stroke-linejoin="miter" stroke-miterlimit="10" stroke-dasharray="" stroke-dashoffset="0" style="mix-blend-mode: normal"><path d="M222.16667,180c0,-9.94112 7.98426,-18 17.83334,-18c9.84907,0 17.83333,8.05888 17.83333,18c0,9.94113 -7.98426,18 -17.83333,18c-9.84907,0 -17.83334,-8.05887 -17.83334,-18z" fill="#fffe31" stroke="#000000" stroke-width="2"/><path d="M227.72132,180c0,-9.94112 6.67536,-18 14.90983,-18c8.23448,0 14.90983,8.05888 14.90983,18c0,9.94113 -6.67536,18 -14.90983,18c-8.23448,0 -14.90983,-8.05887 -14.90983,-18z" fill="#fffe31" stroke="#000000" stroke-width="2"/><text transform="translate(234.44667,190.11913) scale(0.76224,0.76224)" font-size="40" xml:space="preserve" fill="#bbbb24" fill-rule="nonzero" stroke="none" stroke-width="1" stroke-linecap="butt" stroke-linejoin="miter" stroke-miterlimit="10" stroke-dasharray="" stroke-dashoffset="0" font-family="Sans Serif" font-weight="normal" text-anchor="start" style="mix-blend-mode: normal"><tspan x="0" dy="0">$</tspan></text></g></g></svg>