<svg version="1.1" xmlns="http://www.w3.org/2000/svg" xmlns:xlink="http://www.w3.org/1999/xlink" width="115.96043" height="142.94172" viewBox="0,0,115.96043,142.94172"><g transform="translate(-180.22788,-73.4911)"><g data-paper-data="{&quot;isPaintingLayer&quot;:true}" fill-rule="nonzero" stroke-linecap="butt" stroke-linejoin="miter" stroke-miterlimit="10" stroke-dasharray="" stroke-dashoffset="0" style="mix-blend-mode: normal"><path d="M240.01951,193.85073c-25.75715,0 -46.63745,-15.50963 -46.63745,-34.64174c0,-19.13211 20.88029,-34.64174 46.63745,-34.64174c25.75715,0 46.63745,15.50963 46.63745,34.64174c0,19.13211 -20.88029,34.64174 -46.63745,34.64174z" fill="#a24d22" stroke="#000000" stroke-width="5"/><path d="M193.25,213.93282v-51.5169h93.5v51.5169z" fill="#a24d22" stroke="#000000" stroke-width="5"/><path d="M240.53688,164.58504c-26.78581,0 -48.5,-3.58172 -48.5,-8c0,-4.41828 21.71419,-8 48.5,-8c26.78581,0 48.5,3.58172 48.5,8c0,4.41828 -21.71419,8 -48.5,8z" fill="#000000" stroke="none" stroke-width="0"/><path d="M233.68348,134.99789v-19.99574h15.63303v19.99574z" fill="#e9d931" stroke="#000000" stroke-width="5"/><text transform="translate(180.47788,98.96071) scale(0.5,0.5)" font-size="40" xml:space="preserve" fill="#000000" fill-rule="nonzero" stroke="none" stroke-width="1" stroke-linecap="butt" stroke-linejoin="miter" stroke-miterlimit="10" stroke-dasharray="" stroke-dashoffset="0" font-family="Pixel" font-weight="normal" text-anchor="start" style="mix-blend-mode: normal"><tspan x="0" dy="0">+1 WEAPON</tspan></text></g></g></svg>